SplineFontDB: 3.0
FontName: TlwgTypewriter
FullName: Tlwg Typewriter
FamilyName: TlwgTypewriter
Weight: Medium
Copyright: Tlwg Typewriter, Free Thai Pseudo Monospace outline font. Copyright (C) 2003, 2004 Poonlap Veerathanabutr <poonlap@linux.thai.net>
UComments: "2003-11-20: Created. +AAoA-PfaEdit 1.0 (http://pfaedit.sf.net).+AAoACgAA-TLWG is Thai Linux Working Group http://linux.thai.net+AAoACgAA-This font was derived from TlwgMono.Most characters have fixed width except some vowels and tone marks.+AAoACgAA-2003-11-25: Fixed above vowel and tone mark level.+AAoA" 
Version: 002.000: 2014-03-17
ItalicAngle: 0
UnderlinePosition: -100
UnderlineWidth: 50
Ascent: 800
Descent: 200
LayerCount: 2
Layer: 0 0 "Back"  1
Layer: 1 0 "Fore"  0
FSType: 0
OS2Version: 0
OS2_WeightWidthSlopeOnly: 0
OS2_UseTypoMetrics: 0
CreationTime: 1153666223
ModificationTime: 1395033736
PfmFamily: 49
TTFWeight: 500
TTFWidth: 5
LineGap: 90
VLineGap: 0
Panose: 2 0 6 3 0 0 0 0 0 0
OS2TypoAscent: 0
OS2TypoAOffset: 1
OS2TypoDescent: 0
OS2TypoDOffset: 1
OS2TypoLinegap: 0
OS2WinAscent: 0
OS2WinAOffset: 1
OS2WinDescent: 0
OS2WinDOffset: 1
HheadAscent: 0
HheadAOffset: 1
HheadDescent: 0
HheadDOffset: 1
OS2Vendor: 'PfEd'
Lookup: 6 0 0 "'ccmp' Thai Conditional Descender Removal"  {"'ccmp' Thai Conditional Descender Removal"  } ['ccmp' ('DFLT' <'dflt' > 'thai' <'KUY ' 'THA ' 'dflt' > ) ]
Lookup: 1 0 0 "'ccmp' Pali-Sanskrit Descender Removal"  {"'ccmp' Pali-Sanskrit Descender Removal" ("descless" ) } ['ccmp' ('thai' <'PAL ' 'SAN ' > ) ]
Lookup: 6 0 0 "'ccmp' Thai General Composition"  {"'ccmp' Thai Below Vowel Tone Reordering"  "'ccmp' Thai General Composition"  } ['ccmp' ('DFLT' <'dflt' > 'thai' <'KUY ' 'PAL ' 'SAN ' 'THA ' 'dflt' > ) ]
Lookup: 1 0 0 "Thai Descender Removal Single Substitution"  {"Thai Descender Removal Single Substitution" ("descless" ) } []
Lookup: 2 0 0 "Thai Sara Am Decomposition"  {"Thai Sara Am Decomposition"  } []

StartChar: mu
Encoding: 181 181 0
Width: 600
Flags: W
HStem: -16 40<196.68 345.69> 0 40<480 540.993> 377 40<43.0066 124 337.007 439>
VStem: 124 41<-199.993 16 55.5615 377> 439 102<0.249912 39.7821> 439 41<40 59 96.0956 377>
LayerCount: 2
Fore
SplineSet
165 16 m 1xb4
 165 -173 l 2
 165 -191 158 -200 144 -200 c 0
 131 -200 124 -191 124 -173 c 2
 124 377 l 1
 70 377 l 2
 52 377 43 384 43 397 c 0
 43 411 52 417 70 417 c 2
 165 417 l 1
 165 115 l 2
 165 61 202 24 256 24 c 0xb4
 324 24 384 54 439 115 c 1
 439 377 l 1
 365 377 l 2
 346 377 337 384 337 397 c 0
 337 411 346 417 365 417 c 2
 480 417 l 1
 480 40 l 1x74
 514 40 l 2
 532 40 541 34 541 20 c 0x78
 541 7 532 0 514 0 c 2
 439 0 l 1x74
 439 59 l 1
 387 10 323 -16 258 -16 c 0
 217 -16 192 -8 165 16 c 1xb4
EndSplineSet
EndChar

StartChar: uni0E31
Encoding: 3633 3633 1
Width: 0
Flags: W
HStem: 493 64<-288.337 -167.15 -167 -119.178> 635 29<-282.548 -222.728>
VStem: -335 42<561.88 630.139> -213 46<560.969 630.564>
AnchorPoint: "AboveMark" -130 700 basemark 0
AnchorPoint: "AboveBase" -100 500 mark 0
LayerCount: 2
Fore
SplineSet
-253 635 m 0
 -275 635 -293 617 -293 595 c 0
 -293 573 -275 557 -253 557 c 0
 -231 557 -213 573 -213 595 c 0
 -213 617 -231 635 -253 635 c 0
-202 493 m 0
 -245 493 -335 509 -335 574 c 24
 -335 621 -300 664 -253 664 c 16
 -220 664 -209 655 -191 635 c 24
 -170 611 -167 593 -167 557 c 1
 -110 563 -73 631 -48 660 c 9
 -3 611 l 17
 -42 557 -66 533 -123 510 c 16
 -152 498 -176 493 -202 493 c 0
EndSplineSet
EndChar

StartChar: uni0E34
Encoding: 3636 3636 2
Width: 0
Flags: W
HStem: 500 55<-390 -170> 607 59<-371.627 -193.556>
AnchorPoint: "AboveMark" -140 700 basemark 0
AnchorPoint: "AboveBase" -100 500 mark 0
LayerCount: 2
Fore
SplineSet
-278 607 m 16
 -320 607 -382 603 -390 555 c 9
 -170 555 l 17
 -184 593 -231 607 -278 607 c 16
-278 666 m 0
 -176 666 -110 628 -110 500 c 9
 -450 500 l 17
 -450 614 -390 666 -278 666 c 0
EndSplineSet
EndChar

StartChar: uni0E35
Encoding: 3637 3637 3
Width: 0
Flags: W
HStem: 500 55<-427 -267> 612 56<-409.447 -294.863>
VStem: -172 57<555 665>
AnchorPoint: "AboveMark" -143 700 basemark 0
AnchorPoint: "AboveBase" -100 500 mark 0
LayerCount: 2
Fore
SplineSet
-357 612 m 24
 -392 612 -417 598 -427 555 c 9
 -267 555 l 17
 -277 585 -316 612 -357 612 c 24
-359 668 m 0
 -269 668 -220 621 -172 555 c 9
 -172 665 l 25
 -115 665 l 25
 -115 500 l 25
 -500 500 l 17
 -500 608 -467 668 -359 668 c 0
EndSplineSet
EndChar

StartChar: uni0E37
Encoding: 3639 3639 4
Width: 0
Flags: W
HStem: 500 165<-422.283 -324 -246 -196 -154 -104> 500 60<-430 -315 -196 -154>
VStem: -489 59<560 606.195> -246 50<560 665> -154 50<560 665>
AnchorPoint: "AboveMark" -175 700 basemark 0
AnchorPoint: "AboveBase" -100 500 mark 0
LayerCount: 2
Fore
SplineSet
-386 614 m 24x78
 -413 611 -430 596 -430 560 c 9
 -315 560 l 17
 -329 590 -351 618 -386 614 c 24x78
-384 668 m 16
 -324 668 -280 620 -246 560 c 9x78
 -246 665 l 25
 -196 665 l 25xb8
 -196 560 l 25
 -154 560 l 25x78
 -154 665 l 29
 -104 665 l 25
 -104 500 l 25xb8
 -489 500 l 17
 -489 606 -461 668 -384 668 c 16
EndSplineSet
EndChar

StartChar: uni0E48
Encoding: 3656 3656 5
Width: 0
Flags: W
HStem: 701 164<-169 -112>
VStem: -169 57<701 865>
AnchorPoint: "AboveMark" -140 895 basemark 0
AnchorPoint: "AboveMark" -140 700 mark 0
LayerCount: 2
Fore
SplineSet
-169 865 m 1
 -112 865 l 1
 -112 701 l 1
 -169 701 l 1
 -169 865 l 1
EndSplineSet
MultipleSubs2: "Thai Tone Nikhahit Attachment" uni0E4D uni0E48
Substitution2: "Thai Tone Low Variant" uni0E48.low
Substitution2: "Thai Sara U Mai Ek Reordering" uni0E38
Substitution2: "Thai Sara UU Mai Ek Reordering" uni0E39
Substitution2: "Thai Phinthu Mai Ek Reordering" uni0E3A
EndChar

StartChar: uni0E49
Encoding: 3657 3657 6
Width: 0
Flags: W
HStem: 700 54<-279 -223 -168 -90.3257> 855 32<-259.059 -203.374>
VStem: -286 22<798.11 846.13> -198 39<792.366 851.699>
AnchorPoint: "AboveMark" -140 895 basemark 0
AnchorPoint: "AboveMark" -140 700 mark 0
LayerCount: 2
Fore
SplineSet
-231 855 m 0
 -249 855 -264 840 -264 822 c 0
 -264 804 -249 789 -231 789 c 0
 -213 789 -198 804 -198 822 c 0
 -198 840 -213 855 -231 855 c 0
-228 887 m 8
 -189 887 -159 856 -159 816 c 0
 -159 796 -168 779 -168 755 c 1
 -162 754 -156 753 -150 753 c 0
 -119 753 -86 768 -60 813 c 9
 0 813 l 17
 -39 723 -76 700 -189 700 c 2
 -279 700 l 9
 -279 754 l 17
 -223 754 l 1
 -223 754 -286 787 -286 823 c 8
 -286 857 -262 887 -228 887 c 8
EndSplineSet
MultipleSubs2: "Thai Tone Nikhahit Attachment" uni0E4D uni0E49
Substitution2: "Thai Tone Low Variant" uni0E49.low
Substitution2: "Thai Sara U Mai Tho Reordering" uni0E38
Substitution2: "Thai Sara UU Mai Tho Reordering" uni0E39
Substitution2: "Thai Phinthu Mai Tho Reordering" uni0E3A
EndChar

StartChar: uni0E4A
Encoding: 3658 3658 7
Width: 0
Flags: W
HStem: 699 18<-337.621 -298.382> 771 22<-338.863 -296.625>
VStem: -398 53<721.995 792.039> -291 15<725.616 762.429>
AnchorPoint: "AboveMark" -237 895 basemark 0
AnchorPoint: "AboveMark" -237 700 mark 0
LayerCount: 2
Fore
SplineSet
-318 771 m 0
 -333 771 -345 759 -345 744 c 0
 -345 729 -333 717 -318 717 c 0
 -303 717 -291 729 -291 744 c 0
 -291 759 -303 771 -318 771 c 0
-398 770 m 0
 -398 794 -378 868 -308 868 c 24
 -275 868 -236 823 -236 823 c 1
 -236 823 -201 867 -170 867 c 16
 -138 867 -128 852 -122 841 c 8
 -106 812 -114 790 -109 758 c 25
 -43 829 l 25
 0 783 l 25
 -24 758 -31 735 -61 719 c 24
 -98 699 -125 708 -166 701 c 25
 -166 823 l 25
 -237 756 l 25
 -314 823 l 17
 -331 811 -339 793 -339 793 c 1
 -310 792 -276 788 -276 747 c 0
 -276 709 -313 699 -330 699 c 0
 -354 699 -398 728 -398 770 c 0
EndSplineSet
MultipleSubs2: "Thai Tone Nikhahit Attachment" uni0E4D uni0E4A
Substitution2: "Thai Tone Low Variant" uni0E4A.low
Substitution2: "Thai Sara U Mai Tri Reordering" uni0E38
Substitution2: "Thai Sara UU Mai Tri Reordering" uni0E39
Substitution2: "Thai Phinthu Mai Tri Reordering" uni0E3A
EndChar

StartChar: uni0E4B
Encoding: 3659 3659 8
Width: 0
Flags: W
HStem: 755 53<-220 -170 -110 -60>
VStem: -170 60<700 755 808 866>
AnchorPoint: "AboveMark" -140 895 basemark 0
AnchorPoint: "AboveMark" -140 700 mark 0
LayerCount: 2
Fore
SplineSet
-170 755 m 1
 -220 755 l 1
 -220 808 l 1
 -170 808 l 1
 -170 866 l 1
 -110 866 l 1
 -110 808 l 1
 -60 808 l 1
 -60 755 l 1
 -110 755 l 1
 -110 700 l 1
 -170 700 l 1
 -170 755 l 1
EndSplineSet
MultipleSubs2: "Thai Tone Nikhahit Attachment" uni0E4D uni0E4B
Substitution2: "Thai Tone Low Variant" uni0E4B.low
Substitution2: "Thai Sara U Mai Chattawa Reordering" uni0E38
Substitution2: "Thai Sara UU Mai Chattawa Reordering" uni0E39
Substitution2: "Thai Phinthu Mai Chattawa Reordering" uni0E3A
EndChar

StartChar: uni0E4C
Encoding: 3660 3660 9
Width: 0
Flags: W
HStem: 696 21<-178.969 -128.5>
VStem: -224 34<722.961 783.249> -118 30<724.076 775.904>
DStem2: -154 820 -92 771 0.899069 0.437807<28.0527 127.91>
AnchorPoint: "AboveMark" -154 895 basemark 0
AnchorPoint: "AboveMark" -154 700 mark 0
LayerCount: 2
Fore
SplineSet
-154 789 m 0
 -174 789 -190 773 -190 753 c 0
 -190 733 -174 717 -154 717 c 0
 -134 717 -118 733 -118 753 c 0
 -118 773 -134 789 -154 789 c 0
-151 696 m 0
 -189 696 -224 722 -224 756 c 0
 -224 797 -189 802 -154 820 c 18
 -39 876 l 25
 -8 815 l 25
 -92 771 l 1
 -92 771 -88 757 -88 744 c 0
 -88 717 -121 696 -151 696 c 0
EndSplineSet
MultipleSubs2: "Thai Tone Nikhahit Attachment" uni0E4D uni0E4C
Substitution2: "Thai Tone Low Variant" uni0E4C.low
Substitution2: "Thai Sara U Thanthakhat Reordering" uni0E38
Substitution2: "Thai Sara UU Thanthakhat Reordering" uni0E39
Substitution2: "Thai Phinthu Thanthakhat Reordering" uni0E3A
EndChar

StartChar: uni0E4D
Encoding: 3661 3661 10
Width: 0
Flags: W
HStem: 500 41<-231.628 -162.546> 621 47<-232.091 -162.083>
VStem: -282 45<545.766 615.725> -157 43<545.993 615.499>
AnchorPoint: "AboveMark" -197 700 basemark 0
AnchorPoint: "AboveBase" -100 500 mark 0
LayerCount: 2
Fore
SplineSet
-197 621 m 0
 -219 621 -237 603 -237 581 c 0
 -237 559 -219 541 -197 541 c 0
 -175 541 -157 559 -157 581 c 0
 -157 603 -175 621 -197 621 c 0
-197 668 m 0
 -151 668 -114 628 -114 582 c 0
 -114 536 -151 500 -197 500 c 0
 -243 500 -282 536 -282 582 c 0
 -282 628 -243 668 -197 668 c 0
EndSplineSet
Substitution2: "Thai Mark High Variant" uni0E4D.high
Substitution2: "Thai Sara U Nikhahit Reordering" uni0E38
Substitution2: "Thai Sara UU Nikhahit Reordering" uni0E39
Substitution2: "Thai Phinthu Nikhahit Reordering" uni0E3A
EndChar

StartChar: exclam
Encoding: 33 33 12
Width: 600
Flags: W
HStem: -15 100<248.859 350.824> 598 20G<288.5 311>
VStem: 240 120<-5.18018 75.1802> 261 77<212.285 614.233>
LayerCount: 2
Fore
SplineSet
338 563 m 1xd0
 338 237 l 2
 338 217 313 209 299 209 c 0
 286 209 261 218 261 237 c 2
 261 563 l 1
 260 570 261 575 261 579 c 0
 261 601 277 618 300 618 c 0
 322 618 338 601 338 579 c 0
 338 577 339 571 338 563 c 1xd0
293 85 m 2
 306 85 l 2
 336 85 360 63 360 35 c 0
 360 7 336 -15 306 -15 c 2
 293 -15 l 2
 263 -15 240 7 240 35 c 0xe0
 240 63 263 85 293 85 c 2
EndSplineSet
EndChar

StartChar: quotedbl
Encoding: 34 34 13
Width: 600
Flags: W
HStem: 315 289<182.861 237.139 362.861 417.139>
VStem: 180 60<315.99 403.088> 360 60<315.99 403.088>
LayerCount: 2
Fore
SplineSet
146 604 m 1
 274 604 l 1
 240 351 l 2
 237 326 228 315 210 315 c 0
 192 315 183 326 180 351 c 2
 146 604 l 1
326 604 m 1
 454 604 l 1
 420 351 l 2
 417 326 408 315 390 315 c 0
 372 315 363 326 360 351 c 2
 326 604 l 1
EndSplineSet
EndChar

StartChar: numbersign
Encoding: 35 35 14
Width: 600
Flags: W
HStem: 189 41<94.0095 208 251 340 383 497.99> 356 41<102.01 216 259 348 391 505.991>
VStem: 209 42<230 356> 341 42<230 356>
DStem2: 196 -34 237 -34 0.0519969 0.998647<-26.9093 223.322 266.503 390.512 433.693 682.948> 328 -34 369 -34 0.0519969 0.998647<-26.9093 223.322 266.503 390.512 433.693 682.948>
LayerCount: 2
Back
SplineSet
390 356 m 1
 381 230 l 1
 461 230 l 2
 479 230 488 223 488 210 c 0
 488 196 479 189 461 189 c 2
 378 189 l 1
 362 -36 l 1
 361 -54 354 -62 341 -62 c 0
 330 -62 320 -51 321 -41 c 1
 337 189 l 1
 246 189 l 1
 231 -36 l 1
 229 -54 223 -62 210 -62 c 0
 199 -62 190 -53 190 -41 c 2
 190 -33 l 1
 206 189 l 1
 119 189 l 2
 101 189 92 196 92 210 c 0
 92 223 101 230 119 230 c 2
 208 230 l 1
 217 356 l 1
 139 356 l 2
 121 356 112 363 112 377 c 0
 112 390 121 397 139 397 c 2
 220 397 l 1
 236 622 l 1
 237 639 244 647 257 647 c 0
 271 647 278 635 276 619 c 1
 261 397 l 1
 352 397 l 1
 368 622 l 1
 369 639 375 647 388 647 c 0
 402 647 409 636 408 619 c 1
 392 397 l 1
 481 397 l 2
 499 397 508 390 508 377 c 0
 508 363 499 356 481 356 c 2
 390 356 l 1
349 356 m 1
 258 356 l 1
 249 230 l 1
 340 230 l 1
 349 356 l 1
EndSplineSet
Fore
SplineSet
479 397 m 2
 498 397 506 389 506 377 c 0
 506 369 503 356 480 356 c 2
 389 356 l 1
 383 230 l 1
 470 230 l 2
 484 230 498 227 498 210 c 0
 498 194 485 189 471 189 c 2
 381 189 l 1
 369 -34 l 2
 368 -50 360 -62 346 -62 c 0
 332 -62 327 -50 328 -34 c 2
 340 189 l 1
 249 189 l 1
 237 -34 l 2
 236 -50 228 -62 214 -62 c 0
 200 -62 195 -50 196 -34 c 2
 208 189 l 1
 121 189 l 2
 107 189 94 193 94 210 c 0
 94 224 102 230 120 230 c 2
 209 230 l 1
 216 356 l 1
 130 356 l 2
 116 356 102 360 102 377 c 0
 102 389 109 397 129 397 c 2
 218 397 l 1
 230 619 l 2
 231 635 238 647 252 647 c 0
 266 647 272 635 271 619 c 2
 259 397 l 1
 350 397 l 1
 362 619 l 2
 363 635 370 647 384 647 c 0
 398 647 404 635 403 619 c 2
 391 397 l 1
 479 397 l 2
348 356 m 1
 257 356 l 1
 251 230 l 1
 341 230 l 1
 348 356 l 1
EndSplineSet
EndChar

StartChar: dollar
Encoding: 36 36 15
Width: 600
Flags: W
HStem: 54 39<210.584 280 321 385.756> 449 21G<439.5 452.5> 543 20G<439.5 453>
VStem: 113 41<65.0066 108 135.391 197.993> 136 41<383.237 489.405> 280 41<-91.9934 54 573.64 654.993> 425 41<449.007 503.904 534 562.993> 446 41<144.879 256.357>
LayerCount: 2
Fore
SplineSet
280 576 m 1xed
 280 628 l 2
 280 646 287 655 301 655 c 0
 314 655 321 646 321 628 c 2
 321 576 l 1
 366 572 389 562 425 534 c 1xee
 426 553 433 563 446 563 c 0xe5
 460 563 466 554 466 536 c 2
 466 476 l 2xe6
 466 458 459 449 446 449 c 0xe5
 433 449 427 455 425 471 c 0
 420 507 363 538 302 538 c 0
 233 538 177 491 177 434 c 0xee
 177 370 237 356 312 342 c 0
 384 328 410 320 438 301 c 0
 469 280 487 244 487 201 c 0
 487 122 423 65 321 54 c 1
 321 -65 l 2
 321 -83 314 -92 301 -92 c 0
 287 -92 280 -83 280 -65 c 2
 280 54 l 1
 234 56 180 79 154 108 c 1
 154 92 l 2
 154 74 147 65 134 65 c 0
 120 65 113 74 113 92 c 2
 113 171 l 2
 113 189 120 198 134 198 c 0
 147 198 152 191 154 173 c 0xf5
 158 130 225 93 299 93 c 0
 384 93 446 138 446 201 c 0
 446 272 386 287 302 303 c 0
 238 315 209 325 183 341 c 1
 154 361 136 397 136 435 c 0
 136 507 196 566 280 576 c 1xed
EndSplineSet
EndChar

StartChar: percent
Encoding: 37 37 16
Width: 600
Flags: W
HStem: -12 38<310.425 413.993> 198 38<310.13 414.358> 363 38<186.425 288.443> 573 38<186.13 290.358>
VStem: 115 38<433.783 540.217> 239 38<58.7831 165.428> 322 38<434.851 540.364> 446 38<58.3152 165.178>
DStem2: 484 380 116 222 0.951898 0.306416<-410.963 11.8569>
LayerCount: 2
Fore
SplineSet
361 236 m 0
 430 236 484 181 484 110 c 0
 484 44 428 -12 362 -12 c 0
 294 -12 239 44 239 112 c 0
 239 180 294 236 361 236 c 0
361 198 m 0
 315 198 277 160 277 112 c 0
 277 65 315 26 362 26 c 0
 408 26 446 65 446 111 c 0
 446 160 409 198 361 198 c 0
237 611 m 0
 306 611 360 556 360 486 c 0
 360 419 304 363 238 363 c 0
 170 363 115 419 115 487 c 0
 115 555 170 611 237 611 c 0
237 573 m 0
 191 573 153 534 153 487 c 0
 153 440 191 401 238 401 c 0
 283 401 322 440 322 486 c 0
 322 535 285 573 237 573 c 0
495 344 m 2
 116 222 l 2
 111 220 106 219 104 219 c 0
 96 219 87 228 87 238 c 0
 87 248 92 254 105 258 c 2
 484 380 l 2
 488 381 492 382 496 382 c 0
 505 382 513 373 513 363 c 0
 513 354 508 348 495 344 c 2
EndSplineSet
EndChar

StartChar: ampersand
Encoding: 38 38 17
Width: 600
Flags: W
HStem: -16 41<193.339 303.574> 0 41<413 477.993> 208 41<433.523 477.993> 251 36<194.348 216> 452 21G<341.5 384> 478 41<236.174 344.794>
VStem: 105 41<74.73 207.279> 166 41<337.772 448.322>
DStem2: 251 298 216 287 0.524925 -0.851149<-107.288 -9.00972 26.5341 208.92 271.054 303.783>
LayerCount: 2
Fore
SplineSet
393 0 m 1x7f
 362 48 l 1
 332 5 296 -16 250 -16 c 0xbf
 172 -16 105 57 105 142 c 0
 105 211 147 266 216 287 c 1
 171 360 166 371 166 400 c 0
 166 465 222 519 289 519 c 0
 312 519 332 513 355 499 c 1
 362 503 373 510 381 510 c 0
 391 510 400 500 400 489 c 0
 400 480 396 475 384 468 c 2
 352 452 l 1
 331 470 312 478 289 478 c 0
 246 478 207 440 207 398 c 0
 207 375 218 350 251 298 c 2
 362 121 l 1
 382 158 398 201 408 249 c 1
 451 249 l 2
 469 249 478 242 478 229 c 0
 478 215 469 208 451 208 c 2
 439 208 l 1
 425 156 406 110 386 82 c 1
 413 41 l 1
 451 41 l 2
 469 41 478 34 478 21 c 0
 478 7 469 0 451 0 c 2
 393 0 l 1x7f
338 86 m 1
 233 251 l 1
 180 239 146 197 146 142 c 0
 146 79 194 25 249 25 c 0
 284 25 316 47 338 86 c 1
EndSplineSet
EndChar

StartChar: quotesingle
Encoding: 39 39 18
Width: 600
Flags: W
HStem: 315 289<272.861 327.139>
VStem: 270 60<315.99 403.088>
LayerCount: 2
Fore
SplineSet
236 604 m 1
 364 604 l 1
 330 351 l 2
 327 326 318 315 300 315 c 0
 282 315 273 326 270 351 c 2
 236 604 l 1
EndSplineSet
EndChar

StartChar: parenleft
Encoding: 40 40 19
Width: 600
Flags: W
HStem: 584 20G<433 443.5>
VStem: 294 61<98.4229 381.238>
LayerCount: 2
Fore
SplineSet
438 604 m 0
 449 604 458 595 458 584 c 0
 458 580 457 578 455 573 c 0
 386 451 355 347 355 240 c 0
 355 133 386 31 455 -93 c 0
 457 -98 458 -100 458 -104 c 0
 458 -115 448 -124 437 -124 c 0
 427 -124 418 -114 395 -77 c 0
 327 36 294 140 294 243 c 0
 294 343 333 460 404 570 c 0
 421 597 428 604 438 604 c 0
EndSplineSet
EndChar

StartChar: parenright
Encoding: 41 41 20
Width: 600
Flags: W
HStem: 584 20G<162.5 173>
VStem: 250 61<98.7623 381.798>
LayerCount: 2
Fore
SplineSet
168 604 m 0
 178 604 187 595 210 557 c 0
 278 445 311 340 311 237 c 0
 311 137 272 20 201 -90 c 0
 184 -117 177 -124 167 -124 c 0
 156 -124 147 -115 147 -104 c 0
 147 -100 148 -98 150 -93 c 0
 219 29 250 133 250 240 c 0
 250 348 220 448 150 573 c 0
 148 578 147 580 147 584 c 0
 147 595 157 604 168 604 c 0
EndSplineSet
EndChar

StartChar: asterisk
Encoding: 42 42 21
Width: 600
Flags: W
HStem: 584 20G<293 306.5>
VStem: 279 41<438 603.993>
DStem2: 146 480 133 442 0.953583 -0.301131<-13.1223 138.52> 185 288 218 264 0.586019 0.810297<-18.2746 138.112> 333 400 299 376 0.590739 -0.806863<0 156.686> 320 438 333 400 0.951506 0.30763<0.679647 154.837>
LayerCount: 2
Fore
SplineSet
279 438 m 1
 279 577 l 2
 279 595 286 604 300 604 c 0
 313 604 320 595 320 577 c 2
 320 438 l 1
 453 481 l 2
 458 483 465 484 468 484 c 0
 478 484 487 474 487 464 c 0
 487 453 481 447 466 442 c 2
 333 400 l 1
 414 288 l 2
 418 281 421 275 421 270 c 0
 421 259 412 250 401 250 c 0
 393 250 389 253 381 264 c 2
 299 376 l 1
 218 264 l 2
 210 254 205 250 197 250 c 0
 186 250 177 259 177 271 c 0
 177 276 178 278 185 288 c 2
 266 400 l 1
 133 442 l 2
 122 445 113 450 113 463 c 0
 113 474 122 483 133 483 c 0
 137 483 139 482 146 480 c 2
 279 438 l 1
EndSplineSet
EndChar

StartChar: plus
Encoding: 43 43 22
Width: 600
Flags: W
HStem: 261 41<72.0066 279 320 527.993>
VStem: 279 41<32.0066 261 302 529.993>
LayerCount: 2
Fore
SplineSet
320 261 m 1
 320 59 l 2
 320 41 313 32 300 32 c 0
 286 32 279 41 279 59 c 2
 279 261 l 1
 99 261 l 2
 81 261 72 268 72 282 c 0
 72 295 81 302 99 302 c 2
 279 302 l 1
 279 503 l 2
 279 521 286 530 300 530 c 0
 313 530 320 521 320 503 c 2
 320 302 l 1
 500 302 l 2
 519 302 528 295 528 282 c 0
 528 268 519 261 500 261 c 2
 320 261 l 1
EndSplineSet
EndChar

StartChar: comma
Encoding: 44 44 23
Width: 600
Flags: W
HStem: -145 290
VStem: 135 205
LayerCount: 2
Fore
SplineSet
207 145 m 1
 340 145 l 1
 195 -120 l 2
 185 -139 177 -145 164 -145 c 0
 148 -145 135 -132 135 -116 c 0
 135 -112 136 -109 137 -105 c 2
 207 145 l 1
EndSplineSet
EndChar

StartChar: hyphen
Encoding: 45 45 24
Width: 600
Flags: W
HStem: 258 41<72.0066 527.993>
LayerCount: 2
Fore
SplineSet
501 258 m 2
 99 258 l 2
 81 258 72 265 72 279 c 0
 72 292 81 299 99 299 c 2
 501 299 l 2
 519 299 528 292 528 279 c 0
 528 265 519 258 501 258 c 2
EndSplineSet
EndChar

StartChar: period
Encoding: 46 46 25
Width: 600
Flags: W
HStem: -15 131<243.612 356.388>
VStem: 226 148<3.02535 98.4512>
LayerCount: 2
Fore
SplineSet
295 116 m 2
 305 116 l 2
 344 116 374 88 374 51 c 0
 374 13 344 -15 305 -15 c 2
 295 -15 l 2
 256 -15 226 14 226 51 c 0
 226 88 256 116 295 116 c 2
EndSplineSet
EndChar

StartChar: slash
Encoding: 47 47 26
Width: 600
Flags: W
DStem2: 118 -46 155 -63 0.425233 0.905084<-16.4368 785.774>
LayerCount: 2
Fore
SplineSet
482 633 m 2
 155 -63 l 2
 148 -77 143 -81 133 -81 c 0
 123 -81 113 -72 113 -62 c 0
 113 -58 114 -53 118 -46 c 2
 445 650 l 2
 452 664 457 668 467 668 c 0
 477 668 487 659 487 649 c 0
 487 645 486 641 482 633 c 2
EndSplineSet
EndChar

StartChar: zero
Encoding: 48 48 27
Width: 600
Flags: W
HStem: -15 41<235.036 364.964> 577 41<235.036 364.964>
VStem: 113 41<138.66 464.34> 446 41<138.66 464.34>
LayerCount: 2
Fore
SplineSet
487 351 m 2
 487 251 l 2
 487 93 411 -15 300 -15 c 0
 189 -15 113 93 113 251 c 2
 113 351 l 2
 113 510 189 618 300 618 c 0
 411 618 487 510 487 351 c 2
154 346 m 2
 154 257 l 2
 154 193 172 125 202 79 c 0
 224 45 258 26 300 26 c 0
 342 26 376 45 398 79 c 0
 428 125 446 193 446 257 c 2
 446 346 l 2
 446 410 428 478 398 524 c 0
 376 558 342 577 300 577 c 0
 258 577 224 558 202 524 c 0
 172 478 154 410 154 346 c 2
EndSplineSet
EndChar

StartChar: one
Encoding: 49 49 28
Width: 600
Flags: W
HStem: 0 41<113.007 280 321 486.993> 592 20G<257.207 321>
VStem: 280 41<41 557>
DStem2: 321 612 148 515 0.954204 0.299156<-208.258 -55.576>
LayerCount: 2
Fore
SplineSet
321 612 m 1
 321 41 l 1
 460 41 l 2
 478 41 487 34 487 21 c 0
 487 7 478 0 460 0 c 2
 141 0 l 2
 123 0 113 7 113 21 c 0
 113 34 122 41 141 41 c 2
 280 41 l 1
 280 557 l 1
 148 515 l 2
 144 514 136 512 134 512 c 0
 125 512 115 522 115 532 c 0
 115 543 120 549 136 554 c 2
 321 612 l 1
EndSplineSet
EndChar

StartChar: two
Encoding: 50 50 29
Width: 600
Flags: W
HStem: 0 104<437.251 477.75> 0 41<123 437> 452 21G<118 128.5> 577 41<213.379 363.498>
VStem: 84 39<41 60> 104 40<452.026 513.418> 437 41<41 103.993 390.876 504.246>
DStem2: 84 60 123 44 0.728381 0.685172<17.4441 486.802>
LayerCount: 2
Fore
SplineSet
123 41 m 1x7a
 437 41 l 1x7a
 437 77 l 2
 437 95 444 104 458 104 c 0xba
 471 104 478 95 478 77 c 2
 478 0 l 1
 84 0 l 1
 84 60 l 1x7a
 320 282 l 1
 414 374 433 402 433 447 c 0
 433 516 366 577 290 577 c 0
 222 577 160 532 144 472 c 0x76
 140 458 134 452 123 452 c 0x7a
 113 452 104 461 104 470 c 0x76
 104 488 117 518 136 542 c 0
 173 590 229 618 290 618 c 0
 388 618 474 537 474 446 c 0
 474 387 454 358 330 237 c 0
 243 151 180 92 123 44 c 1
 123 41 l 1x7a
EndSplineSet
EndChar

StartChar: three
Encoding: 51 51 30
Width: 600
Flags: W
HStem: -15 41<192.477 374.703> 312 41<252.007 367.272> 577 41<210.288 379.037>
VStem: 436 41<403.018 522.145> 458 41<100.936 232.265>
LayerCount: 2
Fore
SplineSet
374 328 m 1xf0
 452 296 499 236 499 168 c 0
 499 67 405 -15 290 -15 c 0
 241 -15 194 -2 142 26 c 0
 109 43 96 56 96 69 c 0
 96 79 105 88 115 88 c 0
 121 88 125 86 132 81 c 0
 179 45 235 26 291 26 c 0
 382 26 458 91 458 168 c 0xe8
 458 246 376 312 279 312 c 0
 261 312 252 319 252 333 c 0
 252 346 262 353 279 353 c 0
 329 353 345 354 366 364 c 0
 408 382 436 421 436 463 c 0
 436 528 377 577 300 577 c 0
 244 577 195 557 166 523 c 0
 156 511 153 509 145 509 c 0
 134 509 125 518 125 528 c 0
 125 538 139 556 160 572 c 0
 199 602 249 618 301 618 c 0
 401 618 477 551 477 464 c 0
 477 407 439 355 379 330 c 0
 378 330 376 329 374 328 c 1xf0
EndSplineSet
EndChar

StartChar: four
Encoding: 52 52 31
Width: 600
Flags: W
HStem: 0 41<273.007 376 417 477.993> 169 41<144 376 417 477.993> 563 41<352 376>
VStem: 376 41<41 169 210 563>
DStem2: 105 216 144 210 0.506632 0.862163<14.5857 424.308>
LayerCount: 2
Fore
SplineSet
376 169 m 1
 105 169 l 1
 105 216 l 1
 333 604 l 1
 417 604 l 1
 417 210 l 1
 451 210 l 2
 469 210 478 203 478 189 c 0
 478 176 469 169 451 169 c 2
 417 169 l 1
 417 41 l 1
 451 41 l 2
 469 41 478 34 478 21 c 0
 478 7 469 0 451 0 c 2
 300 0 l 2
 282 0 273 7 273 21 c 0
 273 34 282 41 300 41 c 2
 376 41 l 1
 376 169 l 1
376 210 m 1
 376 563 l 1
 352 563 l 1
 144 210 l 1
 376 210 l 1
EndSplineSet
EndChar

StartChar: five
Encoding: 53 53 32
Width: 600
Flags: W
HStem: -15 41<202.449 373.553> 354 41<217.568 388.905> 563 41<190 458.993>
VStem: 149 41<365 563> 458 41<112.886 283.357>
LayerCount: 2
Fore
SplineSet
190 563 m 1
 190 365 l 1
 241 386 278 395 322 395 c 0
 424 395 499 313 499 201 c 0
 499 75 414 -15 295 -15 c 0
 242 -15 192 1 142 34 c 0
 110 55 96 70 96 82 c 0
 96 93 105 102 116 102 c 0
 122 102 126 100 133 93 c 0
 181 49 235 26 293 26 c 0
 391 26 458 98 458 203 c 0
 458 292 400 354 316 354 c 0
 276 354 232 343 190 321 c 0
 178 315 173 313 168 313 c 0
 157 313 149 322 149 335 c 2
 149 604 l 1
 431 604 l 2
 450 604 459 597 459 584 c 0
 459 570 450 563 431 563 c 2
 190 563 l 1
EndSplineSet
EndChar

StartChar: six
Encoding: 54 54 33
Width: 600
Flags: W
HStem: -15 41<265.299 404.446> 323 41<277.702 404.44> 577 41<336.68 493.434>
VStem: 136 39<198.973 400.772> 469 41<96.5666 254.955>
LayerCount: 2
Fore
SplineSet
177 242 m 1
 218 324 272 364 343 364 c 0
 434 364 510 280 510 178 c 0
 510 70 434 -15 337 -15 c 0
 219 -15 136 107 136 282 c 0
 136 398 171 484 245 547 c 0
 298 593 363 618 428 618 c 0
 471 618 507 602 507 583 c 0
 507 572 499 563 488 563 c 0
 483 563 479 564 471 569 c 0
 461 574 443 577 424 577 c 0
 348 577 269 530 220 455 c 0
 192 411 175 349 175 285 c 0
 175 276 176 261 177 242 c 1
183 188 m 1
 210 84 256 26 338 26 c 0
 412 26 469 92 469 178 c 0
 469 257 412 323 342 323 c 0
 305 323 265 302 233 266 c 0
 218 250 207 232 183 188 c 1
EndSplineSet
EndChar

StartChar: seven
Encoding: 55 55 34
Width: 600
Flags: W
HStem: -1 21G<289.5 300> 500 104<105.328 145.674> 563 41<146 437>
VStem: 105 41<500.007 563> 437 41<522.556 563>
LayerCount: 2
Fore
SplineSet
437 545 m 1xb8
 437 563 l 1
 146 563 l 1xb8
 146 528 l 2
 146 509 139 500 126 500 c 0xd8
 112 500 105 509 105 528 c 2
 105 604 l 1
 478 604 l 1
 478 539 l 1
 315 20 l 2
 310 4 305 -1 295 -1 c 0
 284 -1 275 8 275 19 c 0
 275 22 276 28 277 32 c 2
 437 545 l 1xb8
EndSplineSet
EndChar

StartChar: eight
Encoding: 56 56 35
Width: 600
Flags: W
HStem: -15 41<223.646 376.132> 293 40<226.72 373.254> 577 41<227.108 372.892>
VStem: 113 41<93.0924 228.162> 123 41<389.272 516.634> 436 41<389.13 516.493> 446 41<92.9407 228.365>
LayerCount: 2
Fore
SplineSet
375 313 m 1xec
 448 280 487 227 487 161 c 0
 487 64 403 -15 300 -15 c 0
 197 -15 113 64 113 161 c 0xf2
 113 227 152 279 225 313 c 1
 155 349 123 392 123 453 c 0
 123 543 204 618 300 618 c 0
 396 618 477 543 477 453 c 0
 477 392 446 349 375 313 c 1xec
300 577 m 0
 224 577 164 521 164 451 c 0
 164 385 224 333 300 333 c 0
 375 333 436 385 436 450 c 0xec
 436 521 376 577 300 577 c 0
300 293 m 0
 218 293 154 235 154 161 c 0
 154 86 219 26 300 26 c 0
 380 26 446 86 446 160 c 0xf2
 446 236 383 293 300 293 c 0
EndSplineSet
EndChar

StartChar: nine
Encoding: 57 57 36
Width: 600
Flags: W
HStem: -15 41<152.566 309.32> 239 41<241.56 368.298> 577 41<241.554 380.701>
VStem: 136 41<348.045 506.433> 471 39<202.228 404.027>
LayerCount: 2
Fore
SplineSet
469 361 m 1
 428 279 374 239 303 239 c 0
 212 239 136 323 136 425 c 0
 136 533 212 618 309 618 c 0
 427 618 510 496 510 321 c 0
 510 205 475 119 401 56 c 0
 348 10 283 -15 218 -15 c 0
 175 -15 139 1 139 20 c 0
 139 31 147 40 158 40 c 0
 163 40 167 39 175 34 c 0
 185 29 203 26 222 26 c 0
 298 26 377 73 426 148 c 0
 454 192 471 254 471 318 c 0
 471 327 470 342 469 361 c 1
463 415 m 1
 436 519 390 577 308 577 c 0
 234 577 177 511 177 425 c 0
 177 346 234 280 304 280 c 0
 341 280 381 301 413 337 c 0
 428 353 439 371 463 415 c 1
EndSplineSet
EndChar

StartChar: colon
Encoding: 58 58 37
Width: 600
Flags: W
HStem: -15 131<243.612 356.388> 285 132<243.612 356.388>
VStem: 226 148<3.02535 98.4512 303.025 398.975>
LayerCount: 2
Fore
SplineSet
295 116 m 2
 305 116 l 2
 344 116 374 88 374 51 c 0
 374 13 344 -15 305 -15 c 2
 295 -15 l 2
 256 -15 226 14 226 51 c 0
 226 88 256 116 295 116 c 2
295 417 m 2
 305 417 l 2
 344 417 374 388 374 351 c 0
 374 314 344 285 305 285 c 2
 295 285 l 2
 256 285 226 314 226 351 c 0
 226 388 256 417 295 417 c 2
EndSplineSet
EndChar

StartChar: semicolon
Encoding: 59 59 38
Width: 600
Flags: W
HStem: 285 132<219.612 332.388>
VStem: 202 148<303.025 398.975>
LayerCount: 2
Fore
SplineSet
211 145 m 1
 344 145 l 1
 199 -120 l 2
 189 -139 181 -145 168 -145 c 0
 152 -145 139 -132 139 -116 c 0
 139 -112 140 -109 141 -105 c 2
 211 145 l 1
271 417 m 2
 281 417 l 2
 320 417 350 388 350 351 c 0
 350 314 320 285 281 285 c 2
 271 285 l 2
 232 285 202 314 202 351 c 0
 202 388 232 417 271 417 c 2
EndSplineSet
EndChar

StartChar: less
Encoding: 60 60 39
Width: 600
Flags: W
DStem2: 72 281 154 281 0.874355 0.485288<71.6971 490.861> 154 281 72 281 0.873861 -0.486177<0 419.202>
LayerCount: 2
Fore
SplineSet
522 67 m 0
 522 56 512 44 502 44 c 0
 499 44 494 46 489 49 c 2
 72 281 l 1
 490 513 l 2
 495 516 499 518 502 518 c 0
 512 518 522 506 522 496 c 0
 522 488 518 483 509 478 c 2
 154 281 l 1
 509 84 l 2
 518 79 522 73 522 67 c 0
EndSplineSet
EndChar

StartChar: equal
Encoding: 61 61 40
Width: 600
Flags: W
HStem: 190 41<51.0066 548.993> 334 41<51.0066 548.993>
LayerCount: 2
Fore
SplineSet
522 334 m 2
 78 334 l 2
 60 334 51 341 51 355 c 0
 51 368 60 375 78 375 c 2
 522 375 l 2
 540 375 549 368 549 355 c 0
 549 341 540 334 522 334 c 2
522 190 m 2
 78 190 l 2
 60 190 51 197 51 211 c 0
 51 224 60 231 78 231 c 2
 522 231 l 2
 540 231 549 224 549 211 c 0
 549 197 540 190 522 190 c 2
EndSplineSet
EndChar

StartChar: greater
Encoding: 62 62 41
Width: 600
Flags: W
DStem2: 111 513 91 478 0.873861 -0.486177<-13.6662 405.536> 91 84 110 49 0.874355 0.485288<-13.1667 405.998>
LayerCount: 2
Fore
SplineSet
78 496 m 0
 78 506 89 518 98 518 c 0
 101 518 106 516 111 513 c 2
 528 281 l 1
 110 49 l 2
 105 46 101 44 98 44 c 0
 87 44 78 56 78 67 c 0
 78 74 82 79 91 84 c 2
 446 281 l 1
 91 478 l 2
 82 483 78 489 78 496 c 0
EndSplineSet
EndChar

StartChar: question
Encoding: 63 63 42
Width: 600
Flags: W
HStem: -15 100<238.354 361.93> 536 41<204.854 386.876>
VStem: 134 41<434.007 510.926> 230 141<-5.07214 75.7681> 281 41<179.007 255.196> 446 41<366.458 482.761>
LayerCount: 2
Fore
SplineSet
322 247 m 1xec
 322 206 l 2
 322 188 315 179 302 179 c 0
 288 179 281 188 281 206 c 2
 281 274 l 1
 397 323 446 366 446 423 c 0
 446 489 387 536 304 536 c 0
 259 536 227 528 175 502 c 1
 175 461 l 2
 175 443 168 434 155 434 c 0
 141 434 134 443 134 461 c 2
 134 529 l 1
 143 532 155 538 163 541 c 0
 226 569 258 577 309 577 c 0
 415 577 487 515 487 423 c 0
 487 349 447 306 322 247 c 1xec
287 85 m 2
 314 85 l 2
 348 85 371 65 371 35 c 0
 371 6 348 -15 314 -15 c 2
 287 -15 l 2
 253 -15 230 5 230 35 c 0xf4
 230 65 253 85 287 85 c 2
EndSplineSet
EndChar

StartChar: at
Encoding: 64 64 43
Width: 600
Flags: W
HStem: -62 41<230.671 394.224> 147 41<315.052 418> 376 40<335.763 418> 583 41<235.149 367.353>
VStem: 105 41<89.7541 472.135> 242 41<219.472 328.332> 418 41<188.762 376 416 530.582>
LayerCount: 2
Fore
SplineSet
418 145 m 1
 418 150 l 1
 398 148 388 147 378 147 c 0
 300 147 242 201 242 272 c 0
 242 356 316 417 418 416 c 1
 418 463 l 2
 418 533 369 583 301 583 c 0
 210 583 146 490 146 358 c 2
 146 198 l 2
 146 138 163 81 193 36 c 0
 220 -3 255 -21 305 -21 c 0
 348 -21 389 -9 410 9 c 0
 421 19 422 20 429 20 c 0
 440 20 449 11 449 1 c 0
 449 -30 373 -62 299 -62 c 0
 239 -62 195 -38 159 13 c 0
 123 65 105 127 105 198 c 2
 105 361 l 2
 105 513 187 624 300 624 c 0
 391 624 459 555 459 463 c 2
 459 186 l 1
 471 184 478 177 478 166 c 0
 478 152 469 145 451 145 c 2
 418 145 l 1
418 192 m 1
 418 376 l 1
 340 376 283 333 283 273 c 0
 283 223 323 188 381 188 c 0
 392 188 406 189 418 192 c 1
EndSplineSet
EndChar

StartChar: A
Encoding: 65 65 44
Width: 600
Flags: W
HStem: 0 41<9.00659 67 108 213.993 381.007 484 527 590.993> 188 41<178 413> 522 41<99.0066 246 286 301>
DStem2: 67 41 108 41 0.348774 0.937207<14.2997 170.903 214.909 513.227> 330 563 301 522 0.353087 -0.935591<28.1197 341.793 385.449 542.754>
LayerCount: 2
Fore
SplineSet
428 188 m 1
 162 188 l 1
 108 41 l 1
 187 41 l 2
 205 41 214 34 214 21 c 0
 214 7 205 0 187 0 c 2
 36 0 l 2
 18 0 9 7 9 21 c 0
 9 34 18 41 36 41 c 2
 67 41 l 1
 246 522 l 1
 126 522 l 2
 108 522 99 529 99 543 c 0
 99 556 108 563 126 563 c 2
 330 563 l 1
 527 41 l 1
 564 41 l 2
 582 41 591 34 591 21 c 0
 591 7 582 0 564 0 c 2
 408 0 l 2
 390 0 381 7 381 21 c 0
 381 34 390 41 408 41 c 2
 484 41 l 1
 428 188 l 1
413 229 m 1
 301 522 l 1
 286 522 l 1
 178 229 l 1
 413 229 l 1
EndSplineSet
EndChar

StartChar: B
Encoding: 66 66 45
Width: 600
Flags: W
HStem: 0 41<43.0066 124 165 443.849> 272 41<165 401.23> 522 41<43.0066 124 165 406.937>
VStem: 124 41<41 272 313 522> 458 41<362.336 475.13> 500 41<93.1128 210.471>
LayerCount: 2
Fore
SplineSet
124 41 m 1
 124 522 l 1
 70 522 l 2
 52 522 43 529 43 543 c 0
 43 556 52 563 70 563 c 2
 328 563 l 2
 425 563 499 500 499 418 c 0
 499 367 473 330 414 298 c 1
 498 268 541 220 541 153 c 0
 541 69 467 0 376 0 c 2
 70 0 l 2
 52 0 43 7 43 21 c 0
 43 34 52 41 70 41 c 2
 124 41 l 1
165 313 m 1
 312 313 l 2
 397 313 458 357 458 419 c 0
 458 477 402 522 329 522 c 2
 165 522 l 1
 165 313 l 1
165 41 m 1
 373 41 l 2
 444 41 500 91 500 153 c 0
 500 189 478 224 441 246 c 0
 409 265 375 272 314 272 c 2
 165 272 l 1
 165 41 l 1
EndSplineSet
EndChar

StartChar: C
Encoding: 67 67 46
Width: 600
Flags: W
HStem: -16 41<234.542 411.924> 535 41<222.222 398.21> 543 20G<492 505.5>
VStem: 63 41<157.585 412.517> 478 41<397.007 469.569 507 562.993>
LayerCount: 2
Fore
SplineSet
478 507 m 1xd8
 478 536 l 2
 478 554 485 563 499 563 c 0xb8
 512 563 519 554 519 536 c 2
 519 424 l 2
 519 406 512 397 498 397 c 0
 486 397 479 405 478 421 c 0
 474 482 394 535 305 535 c 0
 194 535 104 438 104 319 c 2
 104 248 l 2
 104 128 204 25 322 25 c 0
 391 25 442 51 496 115 c 0
 503 123 507 125 514 125 c 0
 526 125 534 117 534 106 c 0
 534 96 522 79 496 55 c 0
 447 9 386 -16 322 -16 c 0
 186 -16 63 107 63 242 c 2
 63 325 l 2
 63 386 91 456 134 502 c 0
 179 550 238 576 305 576 c 0
 371 576 431 552 478 507 c 1xd8
EndSplineSet
EndChar

StartChar: D
Encoding: 68 68 47
Width: 600
Flags: W
HStem: 0 41<43.0066 104 145 368.307> 522 41<43.0066 104 145 374.795>
VStem: 104 41<41 522> 479 41<160.156 403.293>
LayerCount: 2
Fore
SplineSet
104 41 m 1
 104 522 l 1
 70 522 l 2
 52 522 43 529 43 543 c 0
 43 556 52 563 70 563 c 2
 290 563 l 2
 419 563 520 451 520 310 c 2
 520 254 l 2
 520 112 419 0 290 0 c 2
 70 0 l 2
 52 0 43 7 43 21 c 0
 43 34 52 41 70 41 c 2
 104 41 l 1
145 41 m 1
 295 41 l 2
 391 41 479 139 479 245 c 2
 479 318 l 2
 479 371 454 431 414 472 c 0
 379 507 342 522 288 522 c 2
 145 522 l 1
 145 41 l 1
EndSplineSet
EndChar

StartChar: E
Encoding: 69 69 48
Width: 600
Flags: W
HStem: 0 41<43.0066 124 165 479> 272 41<165 310> 522 41<43.0066 124 165 458>
VStem: 124 41<41 272 313 522> 310 41<200.007 272 313 384.993> 458 41<397.007 522> 479 41<41 186.993>
LayerCount: 2
Fore
SplineSet
165 272 m 1xfc
 165 41 l 1
 479 41 l 1
 479 160 l 2
 479 178 486 187 500 187 c 0
 513 187 520 178 520 160 c 2
 520 0 l 1xfa
 70 0 l 2
 52 0 43 7 43 21 c 0
 43 34 52 41 70 41 c 2
 124 41 l 1
 124 522 l 1
 70 522 l 2
 52 522 43 529 43 543 c 0
 43 556 52 563 70 563 c 2
 499 563 l 1
 499 424 l 2
 499 406 492 397 478 397 c 0
 465 397 458 406 458 424 c 2
 458 522 l 1
 165 522 l 1
 165 313 l 1
 310 313 l 1
 310 358 l 2
 310 376 317 385 331 385 c 0
 344 385 351 376 351 358 c 2
 351 227 l 2
 351 209 344 200 331 200 c 0
 317 200 310 209 310 227 c 2
 310 272 l 1
 165 272 l 1xfc
EndSplineSet
EndChar

StartChar: F
Encoding: 70 70 49
Width: 600
Flags: W
HStem: 0 41<43.0066 124 165 330.993> 272 41<165 310> 522 41<43.0066 124 165 479>
VStem: 124 41<41 272 313 522> 310 41<200.007 272 313 384.993> 479 41<397.007 522>
LayerCount: 2
Fore
SplineSet
165 272 m 1
 165 41 l 1
 303 41 l 2
 322 41 331 34 331 21 c 0
 331 7 321 0 303 0 c 2
 70 0 l 2
 52 0 43 7 43 21 c 0
 43 34 52 41 70 41 c 2
 124 41 l 1
 124 522 l 1
 70 522 l 2
 52 522 43 529 43 543 c 0
 43 556 52 563 70 563 c 2
 520 563 l 1
 520 424 l 2
 520 406 513 397 499 397 c 0
 486 397 479 406 479 424 c 2
 479 522 l 1
 165 522 l 1
 165 313 l 1
 310 313 l 1
 310 358 l 2
 310 376 317 385 330 385 c 0
 344 385 351 376 351 358 c 2
 351 227 l 2
 351 209 344 200 330 200 c 0
 317 200 310 209 310 227 c 2
 310 272 l 1
 165 272 l 1
EndSplineSet
EndChar

StartChar: G
Encoding: 71 71 50
Width: 600
Flags: W
HStem: -16 41<228.182 446.261> 209 41<313.007 479 520 561.993> 418 21G<493.5 506.5> 535 41<223.633 415.683> 543 20G<493 507>
VStem: 63 41<142.727 405.75> 479 41<50.0742 209 418.007 484.967 522 562.993>
LayerCount: 2
Fore
SplineSet
520 209 m 1xf6
 520 36 l 1
 461 2 395 -16 333 -16 c 0
 169 -16 63 86 63 244 c 2
 63 318 l 2
 63 389 94 463 144 511 c 0
 189 553 247 576 313 576 c 0xf6
 379 576 434 558 479 522 c 1
 479 536 l 2
 479 554 486 563 500 563 c 0xee
 514 563 520 555 520 536 c 2
 520 445 l 2
 520 427 513 418 500 418 c 0
 487 418 481 426 480 443 c 0
 476 494 404 535 315 535 c 0
 259 535 214 518 176 481 c 1
 132 440 104 376 104 317 c 2
 104 244 l 2
 104 108 192 25 336 25 c 0
 388 25 423 33 479 59 c 1
 479 209 l 1
 340 209 l 2
 322 209 313 216 313 230 c 0
 313 243 322 250 340 250 c 2
 534 250 l 2
 553 250 562 243 562 230 c 0
 562 216 553 209 534 209 c 2
 520 209 l 1xf6
EndSplineSet
EndChar

StartChar: H
Encoding: 72 72 51
Width: 600
Flags: W
HStem: 0 41<53.0073 126 167 247.993 356.007 437 478 550.993> 272 41<167 437> 522 41<74.0066 126 167 247.993 356.007 437 478 529.993>
VStem: 126 41<41 272 313 522> 437 41<41 272 313 522>
LayerCount: 2
Fore
SplineSet
437 272 m 1
 167 272 l 1
 167 41 l 1
 221 41 l 2
 239 41 248 34 248 21 c 0
 248 7 239 0 221 0 c 2
 81 0 l 2
 63 0 53 7 53 21 c 0
 53 34 62 41 81 41 c 2
 126 41 l 1
 126 522 l 1
 101 522 l 2
 83 522 74 529 74 543 c 0
 74 556 83 563 101 563 c 2
 221 563 l 2
 239 563 248 556 248 543 c 0
 248 529 239 522 221 522 c 2
 167 522 l 1
 167 313 l 1
 437 313 l 1
 437 522 l 1
 383 522 l 2
 365 522 356 529 356 543 c 0
 356 556 365 563 383 563 c 2
 503 563 l 2
 521 563 530 556 530 543 c 0
 530 529 521 522 503 522 c 2
 478 522 l 1
 478 41 l 1
 524 41 l 2
 542 41 551 34 551 21 c 0
 551 7 541 0 524 0 c 2
 383 0 l 2
 365 0 356 7 356 21 c 0
 356 34 365 41 383 41 c 2
 437 41 l 1
 437 272 l 1
EndSplineSet
EndChar

StartChar: I
Encoding: 73 73 52
Width: 600
Flags: W
HStem: 0 41<113.007 279 320 486.993> 522 41<113.007 279 320 486.993>
VStem: 279 41<41 522>
LayerCount: 2
Fore
SplineSet
320 522 m 1
 320 41 l 1
 459 41 l 2
 478 41 487 34 487 21 c 0
 487 7 477 0 459 0 c 2
 140 0 l 2
 122 0 113 7 113 21 c 0
 113 34 122 41 140 41 c 2
 279 41 l 1
 279 522 l 1
 140 522 l 2
 122 522 113 529 113 543 c 0
 113 556 122 563 140 563 c 2
 459 563 l 2
 478 563 487 556 487 543 c 0
 487 529 478 522 459 522 c 2
 320 522 l 1
EndSplineSet
EndChar

StartChar: J
Encoding: 74 74 53
Width: 600
Flags: W
HStem: -16 41<192.363 348.941> 522 41<233.007 419 460 582.993>
VStem: 84 41<76.8711 249.993> 419 41<95.0118 522>
LayerCount: 2
Fore
SplineSet
460 522 m 1
 460 165 l 2
 460 66 375 -16 272 -16 c 0
 208 -16 156 9 84 74 c 1
 84 223 l 2
 84 241 91 250 105 250 c 0
 118 250 125 241 125 223 c 2
 125 93 l 1
 176 47 223 25 273 25 c 0
 354 25 419 87 419 165 c 2
 419 522 l 1
 260 522 l 2
 242 522 233 529 233 543 c 0
 233 556 242 563 260 563 c 2
 556 563 l 2
 574 563 583 556 583 543 c 0
 583 529 574 522 556 522 c 2
 460 522 l 1
EndSplineSet
EndChar

StartChar: K
Encoding: 75 75 54
Width: 600
Flags: W
HStem: 0 41<43.0066 124 165 266.993 482.077 571.993> 522 41<43.0066 124 165 266.993 372.007 445 502 545.993>
VStem: 124 41<41 221 273 522>
DStem2: 165 273 165 221 0.74582 0.666148<0 83.1373 119.743 374.7>
LayerCount: 2
Fore
SplineSet
165 221 m 1
 165 41 l 1
 240 41 l 2
 258 41 267 34 267 21 c 0
 267 7 258 0 240 0 c 2
 70 0 l 2
 52 0 43 7 43 21 c 0
 43 34 52 41 70 41 c 2
 124 41 l 1
 124 522 l 1
 70 522 l 2
 52 522 43 529 43 543 c 0
 43 556 52 563 70 563 c 2
 240 563 l 2
 258 563 267 556 267 543 c 0
 267 529 258 522 240 522 c 2
 165 522 l 1
 165 273 l 1
 445 522 l 1
 400 522 l 2
 381 522 372 529 372 543 c 0
 372 556 381 563 400 563 c 2
 518 563 l 2
 537 563 546 556 546 543 c 0
 546 529 537 522 518 522 c 2
 502 522 l 1
 280 324 l 1
 377 284 414 233 489 41 c 1
 545 41 l 2
 563 41 572 34 572 21 c 0
 572 7 563 0 545 0 c 2
 458 0 l 1
 385 203 341 263 246 294 c 1
 165 221 l 1
EndSplineSet
EndChar

StartChar: L
Encoding: 76 76 55
Width: 600
Flags: W
HStem: 0 41<63.0066 186 227 500> 522 41<63.0066 186 227 349.993>
VStem: 186 41<41 522> 500 41<41 227.993>
LayerCount: 2
Fore
SplineSet
227 522 m 1
 227 41 l 1
 500 41 l 1
 500 201 l 2
 500 219 507 228 521 228 c 0
 534 228 541 219 541 201 c 2
 541 0 l 1
 90 0 l 2
 72 0 63 7 63 21 c 0
 63 34 72 41 90 41 c 2
 186 41 l 1
 186 522 l 1
 90 522 l 2
 72 522 63 529 63 543 c 0
 63 556 72 563 90 563 c 2
 323 563 l 2
 341 563 350 556 350 543 c 0
 350 529 341 522 323 522 c 2
 227 522 l 1
EndSplineSet
EndChar

StartChar: M
Encoding: 77 77 56
Width: 600
Flags: W
HStem: 0 41<11.0066 72 113 214.993 390.007 491 532 592.993> 522 41<20.0066 72 113 121 483 491 532 583.993>
VStem: 72 41<41 522> 491 41<41 522>
DStem2: 146 563 121 522 0.410687 -0.911776<27.1157 381.776> 303 215 326 169 0.406379 0.913705<0 353.656>
LayerCount: 2
Fore
SplineSet
326 169 m 1
 280 169 l 1
 121 522 l 1
 113 522 l 1
 113 41 l 1
 187 41 l 2
 206 41 215 34 215 21 c 0
 215 7 205 0 187 0 c 2
 38 0 l 2
 20 0 11 7 11 21 c 0
 11 34 20 41 38 41 c 2
 72 41 l 1
 72 522 l 1
 47 522 l 2
 29 522 20 529 20 543 c 0
 20 556 29 563 47 563 c 2
 146 563 l 1
 303 215 l 1
 457 563 l 1
 557 563 l 2
 575 563 584 556 584 543 c 0
 584 529 575 522 557 522 c 2
 532 522 l 1
 532 41 l 1
 566 41 l 2
 584 41 593 34 593 21 c 0
 593 7 584 0 566 0 c 2
 417 0 l 2
 399 0 390 7 390 21 c 0
 390 34 399 41 417 41 c 2
 491 41 l 1
 491 522 l 1
 483 522 l 1
 326 169 l 1
EndSplineSet
EndChar

StartChar: N
Encoding: 78 78 57
Width: 600
Flags: W
HStem: 0 41<42.0066 103 144 245.993> 522 41<22.0066 103 358.007 460 501 561.993>
VStem: 103 41<41 504> 460 41<59 522>
DStem2: 155 563 144 504 0.517737 -0.85554<44.7817 589.102>
LayerCount: 2
Fore
SplineSet
501 0 m 1
 449 0 l 1
 144 504 l 1
 144 41 l 1
 219 41 l 2
 237 41 246 34 246 21 c 0
 246 7 236 0 219 0 c 2
 69 0 l 2
 51 0 42 7 42 21 c 0
 42 34 51 41 69 41 c 2
 103 41 l 1
 103 522 l 1
 49 522 l 2
 31 522 22 529 22 543 c 0
 22 556 31 563 49 563 c 2
 155 563 l 1
 460 59 l 1
 460 522 l 1
 386 522 l 2
 367 522 358 529 358 543 c 0
 358 556 367 563 386 563 c 2
 535 563 l 2
 553 563 562 556 562 543 c 0
 562 529 553 522 535 522 c 2
 501 522 l 1
 501 0 l 1
EndSplineSet
EndChar

StartChar: O
Encoding: 79 79 58
Width: 600
Flags: W
HStem: -16 41<219.486 379.916> 535 41<219.275 381.323>
VStem: 51 41<173.126 389.677> 508 41<174.968 388.646>
LayerCount: 2
Fore
SplineSet
300 576 m 0
 441 576 549 446 549 276 c 0
 549 115 437 -16 300 -16 c 0
 161 -16 51 115 51 280 c 0
 51 445 161 576 300 576 c 0
300 535 m 0
 185 535 92 420 92 280 c 0
 92 140 186 25 300 25 c 0
 413 25 508 140 508 277 c 0
 508 421 416 535 300 535 c 0
EndSplineSet
EndChar

StartChar: P
Encoding: 80 80 59
Width: 600
Flags: W
HStem: 0 41<43.0066 124 165 330.993> 231 41<165 384.34> 522 41<43.0066 124 165 391.38>
VStem: 124 41<41 231 272 522> 458 41<339.237 459.39>
LayerCount: 2
Fore
SplineSet
165 231 m 1
 165 41 l 1
 303 41 l 2
 322 41 331 34 331 21 c 0
 331 7 321 0 303 0 c 2
 70 0 l 2
 52 0 43 7 43 21 c 0
 43 34 52 41 70 41 c 2
 124 41 l 1
 124 522 l 1
 70 522 l 2
 52 522 43 529 43 543 c 0
 43 556 52 563 70 563 c 2
 310 563 l 2
 416 563 499 491 499 398 c 0
 499 305 410 231 296 231 c 2
 165 231 l 1
165 272 m 1
 299 272 l 2
 386 272 458 329 458 398 c 0
 458 466 393 522 314 522 c 2
 165 522 l 1
 165 272 l 1
EndSplineSet
EndChar

StartChar: Q
Encoding: 81 81 60
Width: 600
Flags: W
HStem: -115 41<369.708 502.369> -89 41<220.442 408.453> -16 41<305 378.762> 535 41<219.275 380.936>
VStem: 51 41<174.096 389.677> 508 41<172.99 389.338>
LayerCount: 2
Fore
SplineSet
305 -16 m 1x7c
 251 -56 l 1
 281 -50 297 -48 318 -48 c 0x7c
 347 -48 370 -52 400 -63 c 0
 424 -72 432 -74 445 -74 c 0
 466 -74 483 -67 514 -47 c 0
 518 -44 522 -43 526 -43 c 0
 537 -43 546 -52 546 -64 c 0
 546 -84 484 -115 442 -115 c 0xbc
 426 -115 415 -112 386 -102 c 0
 359 -92 343 -89 318 -89 c 0
 288 -89 221 -100 178 -112 c 0
 174 -113 171 -114 168 -114 c 0
 157 -114 148 -105 148 -93 c 0
 148 -86 152 -80 159 -75 c 2
 249 -10 l 1
 135 15 51 139 51 280 c 0
 51 445 161 576 300 576 c 0
 439 576 549 445 549 280 c 0
 549 116 443 -12 305 -16 c 1x7c
300 535 m 0
 185 535 92 420 92 280 c 0
 92 140 186 25 300 25 c 0
 413 25 508 140 508 277 c 0
 508 421 416 535 300 535 c 0
EndSplineSet
EndChar

StartChar: R
Encoding: 82 82 61
Width: 600
Flags: W
HStem: 0 41<43.0066 124 165 266.993 519.95 588.993> 251 41<165 331.818> 522 41<43.0066 124 165 391.04>
VStem: 124 41<41 251 292 522> 457 41<355.694 463.371>
LayerCount: 2
Fore
SplineSet
165 251 m 1
 165 41 l 1
 240 41 l 2
 258 41 267 34 267 21 c 0
 267 7 258 0 240 0 c 2
 70 0 l 2
 52 0 43 7 43 21 c 0
 43 34 52 41 70 41 c 2
 124 41 l 1
 124 522 l 1
 70 522 l 2
 52 522 43 529 43 543 c 0
 43 556 52 563 70 563 c 2
 318 563 l 2
 415 563 498 491 498 407 c 0
 498 342 452 294 359 262 c 1
 422 219 450 182 531 41 c 1
 562 41 l 2
 580 41 589 34 589 21 c 0
 589 7 580 0 562 0 c 2
 505 0 l 1
 417 162 373 216 297 251 c 1
 165 251 l 1
165 292 m 1
 279 292 l 2
 377 292 457 344 457 408 c 0
 457 468 390 522 318 522 c 2
 165 522 l 1
 165 292 l 1
EndSplineSet
EndChar

StartChar: S
Encoding: 83 83 62
Width: 600
Flags: W
HStem: -16 41<207.822 389.813> 0 21G<105.5 119> 535 41<221.272 385.499> 543 20G<459 472.5>
VStem: 92 41<0.0065918 56 88.1268 165.993> 115 44<359.689 482.714> 445 41<406.007 480.94 517 562.993> 464 44<87.8087 216.078>
LayerCount: 2
Fore
SplineSet
445 517 m 1xa6
 445 536 l 2
 445 554 452 563 466 563 c 0
 479 563 486 554 486 536 c 2
 486 433 l 2
 486 415 479 406 466 406 c 0
 453 406 446 414 445 430 c 0x16
 441 490 380 535 302 535 c 0
 220 535 159 486 159 420 c 0
 159 344 225 323 311 309 c 0
 388 296 416 288 446 269 c 0
 485 245 508 202 508 151 c 0
 508 54 422 -16 302 -16 c 0xa5
 233 -16 174 9 133 56 c 1
 133 27 l 2
 133 9 126 0 112 0 c 0x49
 99 0 92 9 92 27 c 2
 92 139 l 2
 92 157 99 166 113 166 c 0
 126 166 132 158 133 142 c 0
 136 76 210 25 301 25 c 0
 394 25 464 79 464 153 c 0x89
 464 188 447 220 419 237 c 1
 395 253 374 259 303 271 c 0
 233 283 197 295 167 317 c 0
 134 340 115 379 115 421 c 0
 115 509 194 576 299 576 c 0
 358 576 403 558 445 517 c 1xa6
EndSplineSet
EndChar

StartChar: T
Encoding: 84 84 63
Width: 600
Flags: W
HStem: 0 41<148.007 280 321 452.993> 422 141<72.2499 112.749 487.315 527.84> 522 41<113 280 321 487>
VStem: 72 41<422.007 522> 280 41<41 522> 487 41<422.024 522>
LayerCount: 2
Fore
SplineSet
321 41 m 1xbc
 426 41 l 2
 444 41 453 34 453 21 c 0
 453 7 444 0 426 0 c 2
 175 0 l 2
 157 0 148 7 148 21 c 0
 148 34 157 41 175 41 c 2
 280 41 l 1
 280 522 l 1
 113 522 l 1xbc
 113 449 l 2
 113 431 106 422 92 422 c 0xdc
 79 422 72 431 72 449 c 2
 72 563 l 1
 528 563 l 1xbc
 528 449 l 2
 528 430 522 422 508 422 c 0xdc
 496 422 487 433 487 449 c 2
 487 522 l 1
 321 522 l 1
 321 41 l 1xbc
EndSplineSet
EndChar

StartChar: U
Encoding: 85 85 64
Width: 600
Flags: W
HStem: -16 41<222.576 376.992> 522 41<40.0066 101 142 242.993 357.007 458 499 559.993>
VStem: 101 41<108.01 522> 458 41<108.01 522>
LayerCount: 2
Fore
SplineSet
499 522 m 1
 499 185 l 2
 499 71 412 -16 300 -16 c 0
 187 -16 101 71 101 185 c 2
 101 522 l 1
 67 522 l 2
 49 522 40 529 40 543 c 0
 40 557 49 563 67 563 c 2
 216 563 l 2
 234 563 243 556 243 543 c 0
 243 529 234 522 216 522 c 2
 142 522 l 1
 142 185 l 2
 142 95 211 25 300 25 c 0
 388 25 458 95 458 185 c 2
 458 522 l 1
 384 522 l 2
 366 522 357 529 357 543 c 0
 357 557 365 563 384 563 c 2
 533 563 l 2
 552 563 560 557 560 543 c 0
 560 529 551 522 533 522 c 2
 499 522 l 1
EndSplineSet
EndChar

StartChar: V
Encoding: 86 86 65
Width: 600
Flags: W
HStem: 0 21G<259.337 332.008> 522 41<9.00659 67 110 213.993 387.007 492 533 590.993>
DStem2: 110 522 67 522 0.35778 -0.933806<0 515.708> 299 41 324 0 0.371697 0.928354<0 518.276>
LayerCount: 2
Fore
SplineSet
267 0 m 1
 67 522 l 1
 36 522 l 2
 18 522 9 529 9 543 c 0
 9 557 18 563 36 563 c 2
 187 563 l 2
 205 563 214 557 214 543 c 0
 214 529 205 522 187 522 c 2
 110 522 l 1
 296 41 l 1
 299 41 l 1
 492 522 l 1
 414 522 l 2
 396 522 387 529 387 543 c 0
 387 556 395 563 414 563 c 2
 564 563 l 2
 582 563 591 557 591 543 c 0
 591 529 582 522 564 522 c 2
 533 522 l 1
 324 0 l 1
 267 0 l 1
EndSplineSet
EndChar

StartChar: W
Encoding: 87 87 66
Width: 600
Flags: W
HStem: 0 21G<119.701 190.75 406.4 478.375> 522 41<20.0066 62 103 223.993 376.007 499 538 579.993>
DStem2: 103 522 62 522 0.114191 -0.993459<0 479.281> 159 46 185 0 0.276307 0.961069<0 379.178> 333 438 300 400 0.26963 -0.962964<27.6948 406.872> 442 46 476 0 0.117945 0.99302<0 479.4>
LayerCount: 2
Fore
SplineSet
122 0 m 1
 62 522 l 1
 47 522 l 2
 29 522 20 529 20 543 c 0
 20 556 29 563 47 563 c 2
 196 563 l 2
 215 563 224 556 224 543 c 0
 224 529 215 522 196 522 c 2
 103 522 l 1
 159 46 l 1
 271 438 l 1
 333 438 l 1
 442 46 l 1
 499 522 l 1
 403 522 l 2
 385 522 376 529 376 543 c 0
 376 556 385 563 403 563 c 2
 553 563 l 2
 571 563 580 556 580 543 c 0
 580 529 571 522 553 522 c 2
 538 522 l 1
 476 0 l 1
 412 0 l 1
 300 400 l 1
 185 0 l 1
 122 0 l 1
EndSplineSet
EndChar

StartChar: X
Encoding: 88 88 67
Width: 600
Flags: W
HStem: 0 41<40.0066 84 134 224.993 374.007 463 516 559.993> 522 41<51.0066 93 145 214.993 381.007 453 504 545.993>
DStem2: 84 41 134 41 0.609711 0.792624<30.4855 300.1 353.632 606.235> 145 522 93 522 0.610744 -0.791828<0 253.823 304.862 575.086>
LayerCount: 2
Fore
SplineSet
325 288 m 1
 516 41 l 1
 533 41 l 2
 551 41 560 34 560 21 c 0
 560 7 551 0 533 0 c 2
 401 0 l 2
 383 0 374 7 374 21 c 0
 374 34 383 41 401 41 c 2
 463 41 l 1
 298 255 l 1
 134 41 l 1
 198 41 l 2
 216 41 225 34 225 21 c 0
 225 7 216 0 198 0 c 2
 67 0 l 2
 49 0 40 7 40 21 c 0
 40 34 49 41 67 41 c 2
 84 41 l 1
 272 288 l 1
 93 522 l 1
 78 522 l 2
 60 522 51 529 51 543 c 0
 51 556 60 563 78 563 c 2
 188 563 l 2
 206 563 215 556 215 543 c 0
 215 529 206 522 188 522 c 2
 145 522 l 1
 300 321 l 1
 453 522 l 1
 408 522 l 2
 390 522 381 529 381 543 c 0
 381 556 390 563 408 563 c 2
 519 563 l 2
 537 563 546 557 546 543 c 0
 546 529 537 522 519 522 c 2
 504 522 l 1
 325 288 l 1
EndSplineSet
EndChar

StartChar: Y
Encoding: 89 89 68
Width: 600
Flags: W
HStem: 0 41<149.007 281 322 453.993> 522 41<51.0066 102 151 215.993 384.007 452 498 548.992>
VStem: 281 41<41 254>
DStem2: 151 522 102 522 0.555416 -0.831573<0 273.19> 303 295 322 254 0.548929 0.835869<0 271.533>
LayerCount: 2
Fore
SplineSet
322 254 m 1
 322 41 l 1
 427 41 l 2
 445 41 454 34 454 21 c 0
 454 7 445 0 427 0 c 2
 176 0 l 2
 158 0 149 7 149 21 c 0
 149 34 158 41 176 41 c 2
 281 41 l 1
 281 254 l 1
 102 522 l 1
 78 522 l 2
 60 522 51 529 51 543 c 0
 51 556 60 563 78 563 c 2
 189 563 l 2
 207 563 216 556 216 543 c 0
 216 529 207 522 189 522 c 2
 151 522 l 1
 303 295 l 1
 452 522 l 1
 412 522 l 2
 393 522 384 529 384 543 c 0
 384 556 393 563 412 563 c 2
 522 563 l 2
 539 563 549 555 549 543 c 0
 549 530 538 522 522 522 c 2
 498 522 l 1
 322 254 l 1
EndSplineSet
EndChar

StartChar: Z
Encoding: 90 90 69
Width: 600
Flags: W
HStem: 0 41<142 456> 522 41<162 431>
VStem: 121 41<376.007 522> 456 41<41 208.993>
DStem2: 103 59 142 45 0.580568 0.814212<11.2432 564.964>
LayerCount: 2
Fore
SplineSet
497 0 m 1
 103 0 l 1
 103 59 l 1
 431 519 l 1
 431 522 l 1
 162 522 l 1
 162 404 l 2
 162 385 155 376 142 376 c 0
 128 376 121 385 121 404 c 2
 121 563 l 1
 470 563 l 1
 470 505 l 1
 142 45 l 1
 142 41 l 1
 456 41 l 1
 456 182 l 2
 456 200 462 209 476 209 c 0
 490 209 497 200 497 182 c 2
 497 0 l 1
EndSplineSet
EndChar

StartChar: bracketleft
Encoding: 91 91 70
Width: 600
Flags: W
HStem: -124 41<321 444.993> 563 41<321 444.993>
VStem: 280 41<-83 563>
LayerCount: 2
Fore
SplineSet
321 563 m 1
 321 -83 l 1
 418 -83 l 2
 436 -83 445 -90 445 -103 c 0
 445 -117 436 -124 418 -124 c 2
 280 -124 l 1
 280 604 l 1
 418 604 l 2
 436 604 445 597 445 584 c 0
 445 570 436 563 418 563 c 2
 321 563 l 1
EndSplineSet
EndChar

StartChar: backslash
Encoding: 92 92 71
Width: 600
Flags: W
DStem2: 482 -46 445 -63 0.425233 -0.905084<-785.774 16.4368>
LayerCount: 2
Fore
SplineSet
155 650 m 2
 482 -46 l 2
 486 -53 487 -58 487 -62 c 0
 487 -72 477 -81 467 -81 c 0
 457 -81 452 -77 445 -63 c 2
 118 633 l 2
 114 641 113 645 113 649 c 0
 113 659 123 668 134 668 c 0
 143 668 148 664 155 650 c 2
EndSplineSet
EndChar

StartChar: bracketright
Encoding: 93 93 72
Width: 600
Flags: W
HStem: -124 41<155.007 279> 563 41<155.007 279>
VStem: 279 41<-83 563>
LayerCount: 2
Fore
SplineSet
279 -83 m 1
 279 563 l 1
 182 563 l 2
 164 563 155 570 155 583 c 0
 155 597 164 604 182 604 c 2
 320 604 l 1
 320 -124 l 1
 182 -124 l 2
 164 -124 155 -117 155 -104 c 0
 155 -90 164 -83 182 -83 c 2
 279 -83 l 1
EndSplineSet
EndChar

StartChar: asciicircum
Encoding: 94 94 73
Width: 600
Flags: W
HStem: 354 261
DStem2: 122 392 153 367 0.62384 0.781552<-19.4629 236.092> 300 615 300 552 0.62384 -0.781552<49.2378 304.827>
LayerCount: 2
Fore
SplineSet
300 615 m 1
 478 392 l 2
 484 385 487 379 487 374 c 0
 487 363 478 354 467 354 c 0
 459 354 454 357 447 367 c 2
 300 552 l 1
 153 367 l 2
 146 357 141 354 133 354 c 0
 122 354 113 363 113 374 c 0
 113 380 115 384 122 392 c 2
 300 615 l 1
EndSplineSet
EndChar

StartChar: underscore
Encoding: 95 95 74
Width: 600
Flags: W
HStem: -125 50<-12 612>
LayerCount: 2
Fore
SplineSet
612 -75 m 1
 612 -125 l 1
 -12 -125 l 1
 -12 -75 l 1
 612 -75 l 1
EndSplineSet
EndChar

StartChar: grave
Encoding: 96 96 75
Width: 600
Flags: W
HStem: 490 149
VStem: 155 165
DStem2: 308 530 281 499 0.751759 -0.659438<-171.65 10.5378>
LayerCount: 2
Fore
SplineSet
194 630 m 2
 308 530 l 1
 315 522 l 2
 320 517 320 517 320 511 c 0
 320 499 311 490 299 490 c 0
 294 490 288 493 281 499 c 2
 167 599 l 2
 158 607 155 611 155 619 c 0
 155 630 164 639 175 639 c 0
 181 639 186 636 194 630 c 2
EndSplineSet
EndChar

StartChar: a
Encoding: 97 97 76
Width: 600
Flags: W
HStem: -16 41<150.274 324.215> 0 41<460 540.993> 217 41<182.204 415.923> 390 41<187.177 380.833>
VStem: 72 41<59.5967 162.396> 419 41<41 67 95.2972 206.36 237 354.366>
LayerCount: 2
Fore
SplineSet
419 0 m 1x7c
 419 67 l 1
 358 10 298 -16 228 -16 c 0xbc
 135 -16 72 36 72 112 c 0
 72 199 158 258 283 258 c 0
 329 258 360 253 419 237 c 1
 419 308 l 2
 419 357 369 390 296 390 c 0
 260 390 232 384 154 360 c 0
 150 359 146 358 144 358 c 0
 134 358 125 367 125 378 c 0
 125 388 131 395 142 399 c 0
 197 418 262 431 299 431 c 0
 392 431 460 379 460 308 c 2
 460 41 l 1
 514 41 l 2
 532 41 541 34 541 21 c 0
 541 7 532 0 514 0 c 2
 419 0 l 1x7c
419 112 m 1
 419 202 l 1
 383 211 335 217 291 217 c 0
 185 217 113 174 113 111 c 0
 113 59 158 25 227 25 c 0
 298 25 352 49 419 112 c 1
EndSplineSet
EndChar

StartChar: b
Encoding: 98 98 77
Width: 600
Flags: W
HStem: -16 41<241.064 400.567> 0 41<22.0066 103> 390 41<241.29 404.118> 563 41<22.0066 103>
VStem: 22 122<0.251221 40.7501 563.251 603.75> 103 41<41 88 124.719 291.069 328 563> 500 41<125.366 290.931>
LayerCount: 2
Fore
SplineSet
144 604 m 1x76
 144 328 l 1
 194 399 250 431 324 431 c 0
 446 431 541 334 541 210 c 0
 541 85 444 -16 324 -16 c 0xb6
 251 -16 191 18 144 88 c 1
 144 0 l 1x76
 49 0 l 2
 31 0 22 7 22 21 c 0x7a
 22 34 31 41 49 41 c 2
 103 41 l 1
 103 563 l 1x76
 49 563 l 2
 31 563 22 570 22 584 c 0x7a
 22 597 31 604 49 604 c 2
 144 604 l 1x76
322 390 m 0
 223 390 144 309 144 208 c 0
 144 107 223 25 322 25 c 0
 419 25 500 107 500 205 c 0
 500 309 422 390 322 390 c 0
EndSplineSet
EndChar

StartChar: c
Encoding: 99 99 78
Width: 600
Flags: W
HStem: -16 41<223.641 417.943> 390 41<222.326 406.567> 397 20G<484 497.5>
VStem: 84 41<120.624 293.912> 470 41<271.007 338.484 376 416.993>
LayerCount: 2
Fore
SplineSet
470 376 m 1xd8
 470 389 l 2
 470 408 477 417 491 417 c 0xb8
 504 417 511 408 511 389 c 2
 511 298 l 2
 511 280 504 271 491 271 c 0
 478 271 472 278 470 295 c 0
 466 348 395 390 311 390 c 0
 201 390 125 315 125 205 c 0
 125 100 202 25 311 25 c 0
 384 25 446 49 498 97 c 0
 506 105 509 107 516 107 c 0
 526 107 535 98 535 88 c 0
 535 76 520 58 492 39 c 0
 441 4 375 -16 309 -16 c 0
 178 -16 84 76 84 204 c 0
 84 336 180 431 314 431 c 0
 375 431 429 412 470 376 c 1xd8
EndSplineSet
EndChar

StartChar: d
Encoding: 100 100 79
Width: 600
Flags: W
HStem: -16 41<200.463 363.507> 0 41<502 582.993> 390 41<200.29 364.939> 563 41<380.007 461>
VStem: 63 41<125.218 290.386> 461 41<41 89 123.583 290.814 327 563>
LayerCount: 2
Fore
SplineSet
502 604 m 1xbc
 502 41 l 1
 556 41 l 2
 574 41 583 34 583 21 c 0
 583 7 574 0 556 0 c 2
 461 0 l 1x7c
 461 89 l 1
 414 19 354 -16 279 -16 c 0
 160 -16 63 85 63 208 c 0
 63 331 160 431 279 431 c 0
 354 431 412 398 461 327 c 1
 461 563 l 1
 407 563 l 2
 389 563 380 570 380 584 c 0
 380 597 389 604 407 604 c 2
 502 604 l 1xbc
282 390 m 0
 183 390 104 309 104 208 c 0
 104 106 183 25 283 25 c 0xbc
 381 25 461 106 461 206 c 0
 461 310 383 390 282 390 c 0
EndSplineSet
EndChar

StartChar: e
Encoding: 101 101 80
Width: 600
Flags: W
HStem: -16 41<214.911 416.047> 199 41<104 478> 390 41<201.192 380.4>
LayerCount: 2
Fore
SplineSet
520 199 m 1
 104 199 l 1
 118 94 198 25 306 25 c 0
 368 25 441 47 481 79 c 0
 488 84 492 86 497 86 c 0
 507 86 516 77 516 66 c 0
 516 31 396 -16 305 -16 c 0
 170 -16 63 87 63 217 c 0
 63 338 163 431 291 431 c 0
 387 431 467 380 503 297 c 0
 517 264 520 245 520 199 c 1
104 240 m 1
 478 240 l 1
 462 331 388 390 291 390 c 0
 194 390 122 332 104 240 c 1
EndSplineSet
EndChar

StartChar: f
Encoding: 102 102 81
Width: 600
Flags: W
HStem: 0 41<105.007 230 271 475.993> 376 41<115.007 230 271 486.993> 563 41<307.926 520.546>
VStem: 230 41<41 376 417 528.484>
LayerCount: 2
Fore
SplineSet
520 551 m 0
 513 551 432 563 382 563 c 0
 316 563 271 528 271 478 c 2
 271 417 l 1
 460 417 l 2
 478 417 487 410 487 397 c 0
 487 383 478 376 460 376 c 2
 271 376 l 1
 271 41 l 1
 449 41 l 2
 467 41 476 34 476 21 c 0
 476 7 466 0 449 0 c 2
 132 0 l 2
 114 0 105 7 105 21 c 0
 105 34 114 41 132 41 c 2
 230 41 l 1
 230 376 l 1
 142 376 l 2
 124 376 115 383 115 397 c 0
 115 410 124 417 142 417 c 2
 230 417 l 1
 230 478 l 2
 230 551 294 604 384 604 c 0
 422 604 491 597 523 591 c 0
 535 588 541 581 541 571 c 0
 541 559 532 551 520 551 c 0
EndSplineSet
EndChar

StartChar: g
Encoding: 103 103 82
Width: 600
Flags: W
HStem: -186 41<175.007 384.032> -16 41<196.951 348.509> 376 41<481 561.993> 390 41<196.731 349.165>
VStem: 63 41<120.955 294.629> 440 41<-88.125 87 120.152 294.317 328 376>
LayerCount: 2
Back
SplineSet
440 334 m 1xdc
 440 417 l 1
 535 417 l 2
 553 417 562 410 562 397 c 0
 562 383 553 376 535 376 c 2
 481 376 l 1xec
 481 -28 l 2
 481 -69 468 -100 438 -132 c 0
 403 -169 366 -186 316 -186 c 2
 202 -186 l 2
 184 -186 175 -179 175 -165 c 0
 175 -152 184 -145 202 -145 c 2
 318 -145 l 2
 386 -145 440 -90 440 -22 c 2
 440 107 l 1
 395 41 341 10 269 10 c 0
 156 10 63 105 63 221 c 0
 63 337 156 431 269 431 c 0
 342 431 395 401 440 334 c 1xdc
272 390 m 0xdc
 178 390 104 315 104 221 c 0
 104 126 179 51 272 51 c 0
 365 51 440 126 440 219 c 0
 440 316 367 390 272 390 c 0xdc
EndSplineSet
Fore
SplineSet
440 328 m 1xdc
 440 417 l 1
 535 417 l 2
 553 417 562 410 562 397 c 0
 562 383 553 376 535 376 c 2
 481 376 l 1xec
 481 -28 l 2
 481 -112 409 -186 316 -186 c 2
 202 -186 l 2
 184 -186 175 -179 175 -165 c 0
 175 -152 184 -145 202 -145 c 2
 318 -145 l 2
 386 -145 440 -90 440 -22 c 2
 440 87 l 1
 395 17 341 -16 269 -16 c 0
 156 -16 63 85 63 208 c 0
 63 331 156 431 269 431 c 0
 342 431 395 399 440 328 c 1xdc
272 390 m 0xdc
 178 390 104 308 104 208 c 0
 104 107 179 25 272 25 c 0
 365 25 440 107 440 206 c 0
 440 309 367 390 272 390 c 0xdc
EndSplineSet
EndChar

StartChar: h
Encoding: 104 104 83
Width: 600
Flags: W
HStem: 0 41<51.0073 124 165 237.993 365.007 437 478 550.993> 390 41<238.333 390.829> 563 41<43.0066 124>
VStem: 124 41<41 296 347 563> 437 41<41 343.851>
LayerCount: 2
Fore
SplineSet
165 604 m 1
 165 347 l 1
 216 408 258 431 319 431 c 0
 412 431 478 372 478 291 c 2
 478 41 l 1
 523 41 l 2
 542 41 551 34 551 21 c 0
 551 7 542 0 523 0 c 2
 392 0 l 2
 374 0 365 7 365 21 c 0
 365 34 374 41 392 41 c 2
 437 41 l 1
 437 288 l 2
 437 318 424 344 399 364 c 0
 376 383 354 390 314 390 c 0
 258 390 230 373 176 309 c 2
 165 296 l 1
 165 41 l 1
 210 41 l 2
 229 41 238 34 238 21 c 0
 238 7 228 0 210 0 c 2
 78 0 l 2
 61 0 51 7 51 21 c 0
 51 34 60 41 78 41 c 2
 124 41 l 1
 124 563 l 1
 70 563 l 2
 52 563 43 570 43 584 c 0
 43 597 52 604 70 604 c 2
 165 604 l 1
EndSplineSet
EndChar

StartChar: i
Encoding: 105 105 84
Width: 600
Flags: W
HStem: 0 41<92.0066 279 320 507.993> 376 41<134.007 279> 520 104<259 318>
VStem: 259 59<520 624> 279 41<41 376>
LayerCount: 2
Fore
SplineSet
320 417 m 1xe8
 320 41 l 1
 480 41 l 2
 499 41 508 34 508 21 c 0
 508 7 498 0 480 0 c 2
 119 0 l 2
 101 0 92 7 92 21 c 0
 92 34 101 41 119 41 c 2
 279 41 l 1
 279 376 l 1
 161 376 l 2
 143 376 134 383 134 397 c 0
 134 410 143 417 161 417 c 2
 320 417 l 1xe8
318 624 m 1xf0
 318 520 l 1
 259 520 l 1
 259 624 l 1
 318 624 l 1xf0
EndSplineSet
EndChar

StartChar: j
Encoding: 106 106 85
Width: 600
Flags: W
HStem: -186 41<147.007 367.391> 376 41<149.007 417> 520 104<355 414>
VStem: 355 59<520 624> 417 41<-94.9023 376>
LayerCount: 2
Fore
SplineSet
417 376 m 1
 176 376 l 2
 158 376 149 383 149 397 c 0
 149 410 158 417 176 417 c 2
 458 417 l 1
 458 -28 l 2
 458 -121 394 -186 303 -186 c 2
 174 -186 l 2
 156 -186 147 -179 147 -165 c 0
 147 -152 156 -145 174 -145 c 2
 302 -145 l 2
 368 -145 417 -96 417 -28 c 2
 417 376 l 1
414 624 m 1
 414 520 l 1
 355 520 l 1
 355 624 l 1
 414 624 l 1
EndSplineSet
EndChar

StartChar: k
Encoding: 107 107 86
Width: 600
Flags: W
HStem: 0 41<63.0066 144 356.007 411 469 540.993> 376 41<309.007 358 419 492.993> 563 41<63.0066 144>
VStem: 63 122<0.251221 40.7501 563.251 603.75> 144 41<41 180 229 563>
DStem2: 185 229 231 219 0.766608 0.642116<0 28.8428 69.3026 227.014> 262 245 231 219 0.712249 -0.701927<0 249.318>
LayerCount: 2
Fore
SplineSet
185 180 m 1xe8
 185 0 l 1xe8
 90 0 l 2
 72 0 63 7 63 21 c 0xf0
 63 34 72 41 90 41 c 2
 144 41 l 1
 144 563 l 1xe8
 90 563 l 2
 72 563 63 570 63 584 c 0xf0
 63 597 72 604 90 604 c 2
 185 604 l 1
 185 229 l 1
 358 376 l 1
 336 376 l 2
 318 376 309 383 309 397 c 0
 309 410 318 417 336 417 c 2
 466 417 l 2
 484 417 493 410 493 397 c 0
 493 383 484 376 466 376 c 2
 419 376 l 1
 262 245 l 1
 469 41 l 1
 514 41 l 2
 532 41 541 34 541 21 c 0
 541 7 532 0 514 0 c 2
 383 0 l 2
 365 0 356 7 356 21 c 0
 356 34 365 41 383 41 c 2
 411 41 l 1
 231 219 l 1
 185 180 l 1xe8
EndSplineSet
EndChar

StartChar: l
Encoding: 108 108 87
Width: 600
Flags: W
HStem: 0 41<92.0066 279 320 507.993> 563 41<135.007 279>
VStem: 279 41<41 563>
LayerCount: 2
Fore
SplineSet
320 604 m 1
 320 41 l 1
 480 41 l 2
 499 41 508 34 508 21 c 0
 508 7 498 0 480 0 c 2
 119 0 l 2
 101 0 92 7 92 21 c 0
 92 34 101 41 119 41 c 2
 279 41 l 1
 279 563 l 1
 162 563 l 2
 144 563 135 570 135 584 c 0
 135 597 144 604 162 604 c 2
 320 604 l 1
EndSplineSet
EndChar

StartChar: m
Encoding: 109 109 88
Width: 600
Flags: W
HStem: 0 41<11.0066 72 112 172.993 322 382.993 532 592.993> 376 41<11.0066 72> 390 41<165.139 259.547 374.82 470.596>
VStem: 11 101<376.251 416.75> 72 40<41 334.59 365 376> 282 101<0.251221 40.7501> 282 40<41 334.944> 492 101<0.251221 40.7501> 492 40<41 367.168>
LayerCount: 2
Fore
SplineSet
112 417 m 1xc8
 112 365 l 1
 146 413 175 431 217 431 c 0
 260 431 292 408 314 360 c 1
 353 410 386 431 427 431 c 0
 485 431 532 382 532 323 c 2
 532 41 l 1xa880
 566 41 l 2
 584 41 593 34 593 21 c 0xa1
 593 7 584 0 566 0 c 2
 492 0 l 1
 492 319 l 2
 492 357 461 390 426 390 c 0
 390 390 360 366 322 308 c 1
 322 41 l 1xa280
 356 41 l 2
 374 41 383 34 383 21 c 0xa4
 383 7 374 0 356 0 c 2
 282 0 l 1
 282 316 l 2
 282 355 251 390 217 390 c 0
 182 390 150 365 112 308 c 1
 112 41 l 1xaa
 146 41 l 2
 164 41 173 34 173 21 c 0
 173 7 163 0 146 0 c 2
 37 0 l 2
 20 0 11 7 11 21 c 0xb0
 11 34 20 41 38 41 c 2
 72 41 l 1
 72 376 l 1xc8
 38 376 l 2
 20 376 11 383 11 397 c 0xd0
 11 410 20 417 38 417 c 2
 112 417 l 1xc8
EndSplineSet
EndChar

StartChar: n
Encoding: 110 110 89
Width: 600
Flags: W
HStem: 0 41<53.0066 126 167 238.993 378.007 439 480 540.993> 376 41<65.0066 126> 390 41<243.051 392.668>
VStem: 65 102<376.251 416.75> 126 41<41 319.594 348 376> 439 41<41 345.31>
LayerCount: 2
Fore
SplineSet
167 417 m 1xcc
 167 348 l 1
 225 412 261 431 323 431 c 0
 412 431 480 372 480 295 c 2
 480 41 l 1
 514 41 l 2
 532 41 541 34 541 21 c 0
 541 7 532 0 514 0 c 2
 405 0 l 2
 387 0 378 7 378 21 c 0
 378 34 387 41 405 41 c 2
 439 41 l 1
 439 288 l 2
 439 318 426 343 401 364 c 0
 377 384 358 390 319 390 c 0xac
 281 390 252 380 224 357 c 1
 209 346 199 335 167 294 c 1
 167 41 l 1
 212 41 l 2
 230 41 239 34 239 21 c 0
 239 7 230 0 212 0 c 2
 81 0 l 2
 62 0 53 7 53 21 c 0
 53 34 62 41 81 41 c 2
 126 41 l 1
 126 376 l 1xcc
 92 376 l 2
 74 376 65 383 65 397 c 0xd4
 65 410 74 417 92 417 c 2
 167 417 l 1xcc
EndSplineSet
EndChar

StartChar: o
Encoding: 111 111 90
Width: 600
Flags: W
HStem: -16 41<215.252 384.322> 390 41<215.252 385.175>
VStem: 72 41<124.806 290.386> 487 41<125.565 289.617>
LayerCount: 2
Fore
SplineSet
300 431 m 0
 428 431 528 332 528 205 c 0
 528 83 426 -16 300 -16 c 0
 173 -16 72 83 72 208 c 0
 72 331 173 431 300 431 c 0
300 390 m 0
 196 390 113 309 113 208 c 0
 113 106 196 25 300 25 c 0
 403 25 487 106 487 205 c 0
 487 310 405 390 300 390 c 0
EndSplineSet
EndChar

StartChar: p
Encoding: 112 112 91
Width: 600
Flags: W
HStem: -186 41<22.0066 103 144 268.993> -16 41<241.064 400.567> 376 41<22.0066 103> 390 41<241.29 404.118>
VStem: 103 41<-145 88 124.719 291.069 328 376> 500 41<125.366 290.931>
LayerCount: 2
Back
SplineSet
144 417 m 1xec
 144 335 l 1
 197 404 247 431 323 431 c 0xdc
 447 431 541 340 541 221 c 0
 541 102 446 10 323 10 c 0
 246 10 190 40 144 106 c 1
 144 -145 l 1
 242 -145 l 2
 260 -145 269 -152 269 -165 c 0
 269 -179 260 -186 242 -186 c 2
 49 -186 l 2
 31 -186 22 -179 22 -165 c 0
 22 -152 31 -145 49 -145 c 2
 103 -145 l 1
 103 376 l 1
 49 376 l 2
 31 376 22 383 22 397 c 0
 22 410 31 417 49 417 c 2
 144 417 l 1xec
322 390 m 0
 223 390 144 315 144 221 c 0
 144 126 223 51 322 51 c 0
 420 51 500 126 500 219 c 0
 500 316 423 390 322 390 c 0
EndSplineSet
Fore
SplineSet
322 390 m 0xdc
 223 390 144 309 144 208 c 0
 144 107 223 25 322 25 c 0
 419 25 500 107 500 205 c 0
 500 309 422 390 322 390 c 0xdc
144 88 m 1
 144 -145 l 1
 242 -145 l 2
 260 -145 269 -152 269 -165 c 0
 269 -179 260 -186 242 -186 c 2
 49 -186 l 2
 31 -186 22 -179 22 -165 c 0
 22 -152 31 -145 49 -145 c 2
 103 -145 l 1
 103 376 l 1
 49 376 l 2
 31 376 22 383 22 397 c 0
 22 410 31 417 49 417 c 2
 144 417 l 1xec
 144 328 l 1
 194 400 250 431 324 431 c 0
 446 431 541 334 541 210 c 0
 541 85 444 -16 324 -16 c 0
 251 -16 191 19 144 88 c 1
EndSplineSet
EndChar

StartChar: q
Encoding: 113 113 92
Width: 600
Flags: W
HStem: -186 41<336.007 461 502 582.993> -16 41<200.463 363.507> 376 41<502 582.993> 390 41<200.29 364.939>
VStem: 63 41<125.218 290.386> 461 41<-145 89 123.583 290.814 327 376>
LayerCount: 2
Back
SplineSet
461 335 m 1xdc
 461 417 l 1
 556 417 l 2
 574 417 583 410 583 397 c 0
 583 383 574 376 556 376 c 2
 502 376 l 1xec
 502 -145 l 1
 556 -145 l 2
 574 -145 583 -152 583 -165 c 0
 583 -179 574 -186 556 -186 c 2
 363 -186 l 2
 345 -186 336 -179 336 -165 c 0
 336 -152 345 -145 363 -145 c 2
 461 -145 l 1
 461 106 l 1
 415 40 359 10 281 10 c 0
 158 10 63 102 63 221 c 0
 63 340 158 431 282 431 c 0
 359 431 414 401 461 335 c 1xdc
282 390 m 0xdc
 182 390 104 316 104 221 c 0
 104 126 182 51 282 51 c 0
 381 51 461 126 461 219 c 0
 461 316 383 390 282 390 c 0xdc
EndSplineSet
Fore
SplineSet
282 390 m 0xdc
 183 390 104 309 104 208 c 0
 104 106 183 25 283 25 c 0
 381 25 461 106 461 206 c 0
 461 310 383 390 282 390 c 0xdc
461 89 m 1
 414 20 354 -16 279 -16 c 0
 160 -16 63 85 63 208 c 0
 63 331 160 431 279 431 c 0xdc
 354 431 412 399 461 327 c 1
 461 417 l 1
 556 417 l 2
 574 417 583 410 583 397 c 0
 583 383 574 376 556 376 c 2
 502 376 l 1xec
 502 -145 l 1
 556 -145 l 2
 574 -145 583 -152 583 -165 c 0
 583 -179 574 -186 556 -186 c 2
 363 -186 l 2
 345 -186 336 -179 336 -165 c 0
 336 -152 345 -145 363 -145 c 2
 461 -145 l 1
 461 89 l 1
EndSplineSet
EndChar

StartChar: r
Encoding: 114 114 93
Width: 600
Flags: W
HStem: 0 41<84.0073 207 248 453.993> 376 41<105.007 207> 386 41<374.573 487.631>
VStem: 207 41<41 280.037 315 376>
LayerCount: 2
Fore
SplineSet
248 417 m 1xd0
 248 315 l 1
 341 399 390 427 441 427 c 0
 470 427 492 418 518 396 c 0
 535 382 541 374 541 365 c 0
 541 353 532 344 520 344 c 0
 513 344 511 345 504 352 c 0
 480 375 460 386 438 386 c 0xb0
 393 386 358 363 248 262 c 1
 248 41 l 1
 427 41 l 2
 444 41 454 33 454 20 c 0
 454 8 444 0 427 0 c 2
 111 0 l 2
 94 0 84 8 84 21 c 0
 84 33 94 41 111 41 c 2
 207 41 l 1
 207 376 l 1
 132 376 l 2
 115 376 105 384 105 397 c 0
 105 409 115 417 132 417 c 2
 248 417 l 1xd0
EndSplineSet
EndChar

StartChar: s
Encoding: 115 115 94
Width: 600
Flags: W
HStem: -16 41<197.269 396.857> 0 21G<117 130.5> 390 41<208.379 392.203> 397 20G<446.5 459.5>
VStem: 103 41<0.0065918 38 66.6149 136.993> 124 45<277.368 357.759> 432 41<293.007 354.67 385 416.992> 452 45<68.8475 163.349>
LayerCount: 2
Fore
SplineSet
432 385 m 1xa6
 432 389 l 2
 432 406 440 417 453 417 c 0x16
 466 417 473 408 473 389 c 2
 473 320 l 2
 473 302 466 293 453 293 c 0
 441 293 434 300 432 316 c 0
 427 361 375 390 299 390 c 0
 225 390 169 358 169 315 c 0x26
 169 299 180 282 201 270 c 1
 223 256 229 254 317 245 c 0
 378 238 415 227 447 206 c 0
 478 185 497 151 497 116 c 0
 497 40 414 -16 301 -16 c 0
 236 -16 186 1 144 38 c 1
 144 27 l 2xa9
 144 9 137 0 124 0 c 0x44
 110 0 103 9 103 27 c 2
 103 110 l 2x48
 103 128 110 137 124 137 c 0x44
 136 137 144 128 144 115 c 2
 144 108 l 2
 144 62 213 25 298 25 c 0
 386 25 452 64 452 117 c 0x89
 452 140 435 165 408 180 c 0
 382 194 355 201 300 207 c 0
 226 215 198 222 170 239 c 0
 142 257 124 287 124 318 c 0
 124 383 197 431 295 431 c 0
 352 431 397 416 432 385 c 1xa6
EndSplineSet
EndChar

StartChar: t
Encoding: 116 116 95
Width: 600
Flags: W
HStem: -16 41<221.128 416.587> 376 41<43.0066 145 186 432.993> 543 20G<159 173>
VStem: 145 41<58.9855 376 417 562.993>
LayerCount: 2
Fore
SplineSet
186 417 m 1
 406 417 l 2
 424 417 433 410 433 397 c 0
 433 383 424 376 406 376 c 2
 186 376 l 1
 186 109 l 2
 186 58 229 25 298 25 c 0
 354 25 425 42 464 65 c 0
 472 70 475 71 480 71 c 0
 490 71 499 61 499 51 c 0
 499 22 385 -16 300 -16 c 0
 206 -16 145 32 145 107 c 2
 145 376 l 1
 71 376 l 2
 52 376 43 383 43 397 c 0
 43 410 52 417 71 417 c 2
 145 417 l 1
 145 536 l 2
 145 554 152 563 166 563 c 0
 180 563 186 555 186 536 c 2
 186 417 l 1
EndSplineSet
EndChar

StartChar: u
Encoding: 117 117 96
Width: 600
Flags: W
HStem: -16 41<198.63 346.339> 0 41<480 540.993> 376 41<43.0066 124 337.007 439>
VStem: 124 41<59.3106 376> 439 102<0.251221 40.7501> 439 41<41 66 96.3892 376>
LayerCount: 2
Fore
SplineSet
439 0 m 1x74
 439 66 l 1
 384 12 323 -16 257 -16 c 0
 177 -16 124 36 124 115 c 2
 124 376 l 1
 70 376 l 2
 52 376 43 383 43 397 c 0
 43 410 52 417 70 417 c 2
 165 417 l 1
 165 115 l 2
 165 65 205 25 256 25 c 0xb4
 323 25 384 55 439 115 c 1
 439 376 l 1
 365 376 l 2
 346 376 337 383 337 397 c 0
 337 410 346 417 365 417 c 2
 480 417 l 1
 480 41 l 1x74
 514 41 l 2
 532 41 541 34 541 21 c 0x78
 541 7 532 0 514 0 c 2
 439 0 l 1x74
EndSplineSet
EndChar

StartChar: v
Encoding: 118 118 97
Width: 600
Flags: W
HStem: 0 41<293 312> 376 41<30.0066 98 143 235.993 364.007 459 502 569.993>
DStem2: 143 376 98 376 0.40794 -0.913009<0 367.049> 312 41 336 0 0.40388 0.914812<0 365.832>
LayerCount: 2
Fore
SplineSet
336 0 m 1
 266 0 l 1
 98 376 l 1
 57 376 l 2
 39 376 30 383 30 397 c 0
 30 410 39 417 57 417 c 2
 208 417 l 2
 227 417 236 410 236 397 c 0
 236 383 227 376 208 376 c 2
 143 376 l 1
 293 41 l 1
 312 41 l 1
 459 376 l 1
 391 376 l 2
 373 376 364 383 364 397 c 0
 364 410 373 417 391 417 c 2
 543 417 l 2
 561 417 570 410 570 397 c 0
 570 383 561 376 543 376 c 2
 502 376 l 1
 336 0 l 1
EndSplineSet
EndChar

StartChar: w
Encoding: 119 119 98
Width: 600
Flags: W
HStem: 0 21G<155.532 217.873 383.973 445.415> 376 41<30.0066 76 115 194.993 405.007 482 524 569.993>
DStem2: 115 376 76 376 0.21803 -0.975942<0 328> 187 56 211 0 0.324978 0.945722<0 228.704> 324 311 300 259 0.331486 -0.94346<41.1043 270.085> 413 56 441 0 0.215555 0.976492<0 327.351>
LayerCount: 2
Fore
SplineSet
441 0 m 1
 391 0 l 1
 300 259 l 1
 211 0 l 1
 160 0 l 1
 76 376 l 1
 57 376 l 2
 39 376 30 383 30 397 c 0
 30 410 39 417 57 417 c 2
 168 417 l 2
 186 417 195 410 195 397 c 0
 195 383 186 376 168 376 c 2
 115 376 l 1
 187 56 l 1
 273 311 l 1
 324 311 l 1
 413 56 l 1
 482 376 l 1
 432 376 l 2
 414 376 405 383 405 397 c 0
 405 410 414 417 432 417 c 2
 543 417 l 2
 561 417 570 410 570 397 c 0
 570 383 561 376 543 376 c 2
 524 376 l 1
 441 0 l 1
EndSplineSet
EndChar

StartChar: x
Encoding: 120 120 99
Width: 600
Flags: W
HStem: 0 41<51.0066 87 143 237.993 363.007 455 513 548.993> 376 41<74.0066 108 166 238.993 362.007 437 492 525.993>
DStem2: 87 41 143 41 0.722418 0.691457<40.4554 256.004 297.904 484.484> 166 376 108 376 0.719437 -0.694557<0 184.586 226.314 440.594>
LayerCount: 2
Fore
SplineSet
329 219 m 1
 513 41 l 1
 522 41 l 2
 540 41 549 34 549 21 c 0
 549 7 540 0 522 0 c 2
 390 0 l 2
 372 0 363 7 363 21 c 0
 363 34 372 41 390 41 c 2
 455 41 l 1
 300 190 l 1
 143 41 l 1
 211 41 l 2
 229 41 238 34 238 21 c 0
 238 7 229 0 211 0 c 2
 78 0 l 2
 60 0 51 7 51 21 c 0
 51 34 60 41 78 41 c 2
 87 41 l 1
 271 219 l 1
 108 376 l 1
 101 376 l 2
 83 376 74 383 74 397 c 0
 74 410 83 417 101 417 c 2
 212 417 l 2
 230 417 239 411 239 397 c 0
 239 383 230 376 212 376 c 2
 166 376 l 1
 300 246 l 1
 437 376 l 1
 389 376 l 2
 371 376 362 383 362 397 c 0
 362 410 371 417 389 417 c 2
 499 417 l 2
 517 417 526 410 526 397 c 0
 526 383 517 376 499 376 c 2
 492 376 l 1
 329 219 l 1
EndSplineSet
EndChar

StartChar: y
Encoding: 121 121 100
Width: 600
Flags: W
HStem: -186 41<57.0066 211 252 343.993> 376 41<51.0066 94 141 219.993 385.007 466 508 548.993>
DStem2: 141 376 94 376 0.447214 -0.894427<0 369.398> 211 -145 252 -145 0.441001 0.897506<18.0811 161.45 211.98 580.056>
LayerCount: 2
Fore
SplineSet
282 0 m 1
 94 376 l 1
 78 376 l 2
 60 376 51 383 51 397 c 0
 51 410 60 417 78 417 c 2
 193 417 l 2
 211 417 220 410 220 397 c 0
 220 383 211 376 193 376 c 2
 141 376 l 1
 305 45 l 1
 466 376 l 1
 412 376 l 2
 394 376 385 383 385 397 c 0
 385 410 394 417 412 417 c 2
 522 417 l 2
 540 417 549 410 549 397 c 0
 549 383 540 376 522 376 c 2
 508 376 l 1
 252 -145 l 1
 317 -145 l 2
 335 -145 344 -152 344 -165 c 0
 344 -179 335 -186 317 -186 c 2
 84 -186 l 2
 66 -186 57 -179 57 -165 c 0
 57 -152 66 -145 84 -145 c 2
 211 -145 l 1
 282 0 l 1
EndSplineSet
EndChar

StartChar: z
Encoding: 122 122 101
Width: 600
Flags: W
HStem: 0 41<171 448> 376 41<165 416>
VStem: 124 41<294.007 376> 448 41<41 123.993>
DStem2: 115 36 171 41 0.665317 0.746561<40.9906 454.091>
LayerCount: 2
Fore
SplineSet
474 417 m 1
 474 381 l 1
 171 41 l 1
 448 41 l 1
 448 97 l 2
 448 115 455 124 469 124 c 0
 482 124 489 115 489 97 c 2
 489 0 l 1
 115 0 l 1
 115 36 l 1
 416 376 l 1
 165 376 l 1
 165 321 l 2
 165 303 158 294 145 294 c 0
 131 294 124 303 124 321 c 2
 124 417 l 1
 474 417 l 1
EndSplineSet
EndChar

StartChar: braceleft
Encoding: 123 123 102
Width: 600
Flags: W
HStem: -124 41<338.293 402.993> 219 42<197.006 264.5> 563 41<338.293 402.993>
VStem: 281 41<-67.2462 201.964 277.885 547.246>
CounterMasks: 1 e0
LayerCount: 2
Fore
SplineSet
322 499 m 2
 322 326 l 2
 322 285 311 264 278 240 c 1
 311 216 322 195 322 154 c 2
 322 -19 l 2
 322 -53 345 -80 377 -83 c 0
 396 -85 403 -90 403 -104 c 0
 403 -116 394 -124 379 -124 c 0
 324 -124 281 -78 281 -19 c 2
 281 154 l 2
 281 190 257 216 221 219 c 0
 205 220 197 226 197 240 c 0
 197 253 205 260 221 261 c 0
 257 264 281 289 281 326 c 2
 281 499 l 2
 281 558 324 604 379 604 c 0
 394 604 403 596 403 584 c 0
 403 570 396 565 377 563 c 0
 345 560 322 533 322 499 c 2
EndSplineSet
EndChar

StartChar: bar
Encoding: 124 124 103
Width: 600
Flags: W
HStem: 584 20G<293.5 306.5>
VStem: 280 40<-123.993 603.993>
LayerCount: 2
Fore
SplineSet
320 577 m 2
 320 -97 l 2
 320 -115 313 -124 300 -124 c 0
 287 -124 280 -115 280 -97 c 2
 280 577 l 2
 280 595 287 604 300 604 c 0
 313 604 320 595 320 577 c 2
EndSplineSet
EndChar

StartChar: braceright
Encoding: 125 125 104
Width: 600
Flags: W
HStem: -124 41<197.007 261.707> 219 42<335.5 402.994> 563 41<197.007 261.707>
VStem: 278 41<-67.2462 202.115 278.036 547.246>
CounterMasks: 1 e0
LayerCount: 2
Fore
SplineSet
278 -19 m 2
 278 154 l 2
 278 195 289 216 322 240 c 1
 289 264 278 285 278 326 c 2
 278 499 l 2
 278 533 255 560 223 563 c 0
 204 565 197 570 197 584 c 0
 197 596 206 604 221 604 c 0
 276 604 319 558 319 499 c 2
 319 326 l 2
 319 290 343 264 379 261 c 0
 395 260 403 254 403 240 c 0
 403 227 395 220 379 219 c 0
 343 216 319 191 319 154 c 2
 319 -19 l 2
 319 -78 276 -124 221 -124 c 0
 206 -124 197 -116 197 -104 c 0
 197 -90 204 -85 223 -83 c 0
 255 -80 278 -53 278 -19 c 2
EndSplineSet
EndChar

StartChar: asciitilde
Encoding: 126 126 105
Width: 600
Flags: W
HStem: 212 41<343.075 430.902> 307 41<169.113 259.687>
LayerCount: 2
Fore
SplineSet
488 330 m 0
 499 330 508 321 508 311 c 0
 508 303 500 291 483 271 c 0
 449 230 420 212 389 212 c 0
 357 212 336 224 273 277 c 0
 248 297 229 307 212 307 c 0
 186 307 175 298 131 242 c 0
 124 233 119 230 111 230 c 0
 101 230 92 239 92 249 c 0
 92 257 100 271 120 294 c 0
 154 333 179 348 212 348 c 0
 244 348 259 340 313 297 c 0
 357 261 370 253 386 253 c 0
 410 253 434 270 459 305 c 0
 474 327 478 330 488 330 c 0
EndSplineSet
EndChar

StartChar: exclamdown
Encoding: 161 161 107
Width: 600
Flags: W
HStem: 317 100<249.176 351.141>
VStem: 240 120<326.82 407.18> 261 79<-211.819 68.2188>
LayerCount: 2
Fore
SplineSet
262 -161 m 2xa0
 280 165 l 2
 281 185 287 193 301 193 c 0
 314 193 320 184 321 165 c 2
 339 -161 l 2
 340 -168 340 -173 340 -177 c 0
 340 -199 323 -216 300 -216 c 0
 278 -216 261 -199 261 -177 c 0
 261 -175 261 -169 262 -161 c 2xa0
307 317 m 2
 294 317 l 2
 264 317 240 339 240 367 c 0
 240 395 264 417 294 417 c 2
 307 417 l 2
 337 417 360 395 360 367 c 0xc0
 360 339 337 317 307 317 c 2
EndSplineSet
EndChar

StartChar: cent
Encoding: 162 162 108
Width: 600
Flags: W
HStem: -13 21G<294 307.5> 127 38<229.288 280 321 393.888> 458 39<321 389.511>
VStem: 113 41<236.411 385.687> 280 41<-12.9934 127 497 629.993> 426 40<364.007 425.498>
LayerCount: 2
Fore
SplineSet
280 496 m 1
 280 603 l 2
 280 621 287 630 301 630 c 0
 314 630 321 621 321 603 c 2
 321 497 l 1
 359 497 400 483 425 461 c 1
 428 472 435 478 445 478 c 0
 458 478 466 469 466 453 c 2
 466 392 l 2
 466 373 459 364 446 364 c 0
 434 364 428 371 426 387 c 0
 420 430 375 458 311 458 c 0
 220 458 154 397 154 311 c 0
 154 227 219 165 307 165 c 0
 353 165 399 180 432 207 c 0
 441 214 444 215 450 215 c 0
 461 215 469 207 469 195 c 0
 469 168 388 130 321 127 c 1
 321 14 l 2
 321 -4 314 -13 301 -13 c 0
 287 -13 280 -4 280 14 c 2
 280 127 l 1
 183 138 113 216 113 311 c 0
 113 373 143 429 194 463 c 0
 217 478 238 487 280 496 c 1
EndSplineSet
EndChar

StartChar: sterling
Encoding: 163 163 109
Width: 600
Flags: W
HStem: 0 41<86.0066 145.839 182 468.531> 273 41<63.0066 184 234 350.993> 537 41<240.613 358.763>
VStem: 157 41<337.218 493.663> 184 37<314 376.433> 198 41<112.325 273> 479 41<48.8313 114.993>
LayerCount: 2
Fore
SplineSet
182 41 m 1xe6
 434 41 l 2
 459 41 477 60 479 92 c 0
 481 108 487 115 500 115 c 0
 512 115 520 106 520 93 c 0
 520 42 482 0 436 0 c 2
 113 0 l 2
 95 0 86 7 86 21 c 0
 86 32 94 40 108 40 c 0
 155 42 198 128 198 220 c 0xe6
 198 237 196 260 194 273 c 1
 90 273 l 2
 72 273 63 280 63 294 c 0
 63 307 72 314 90 314 c 2
 184 314 l 1xea
 163 380 157 409 157 435 c 0
 157 514 220 578 298 578 c 0
 334 578 367 565 396 539 c 0
 415 522 427 505 427 495 c 0
 427 486 416 476 407 476 c 0
 401 476 396 479 389 488 c 0
 361 522 334 537 299 537 c 0
 245 537 198 490 198 435 c 0xf2
 198 412 201 397 221 328 c 0xea
 222 327 223 321 225 314 c 1
 324 314 l 2
 342 314 351 307 351 293 c 0
 351 280 342 273 324 273 c 2
 234 273 l 1
 237 252 239 234 239 216 c 0
 239 148 219 87 182 41 c 1xe6
EndSplineSet
EndChar

StartChar: currency
Encoding: 164 164 110
Width: 600
Flags: W
HStem: 127 41<233.113 366.223> 417 41<233.32 367.121>
VStem: 135 41<225.039 360.182> 424 42<224.908 359.83>
DStem2: 142 478 114 450 0.706077 -0.708135<-20.9319 81.5253 404.474 506.802> 114 135 142 106 0.708132 0.70608<-20.9627 82.5465 404.362 506.11>
LayerCount: 2
Fore
SplineSet
199 162 m 1
 142 106 l 2
 134 97 130 95 124 95 c 0
 112 95 103 104 103 115 c 0
 103 122 106 127 114 135 c 2
 170 191 l 1
 146 223 135 256 135 292 c 0
 135 329 147 366 169 394 c 1
 114 450 l 2
 105 458 103 462 103 469 c 0
 103 480 112 489 123 489 c 0
 130 489 134 486 142 478 c 2
 198 423 l 1
 227 446 263 458 300 458 c 0
 337 458 374 445 402 423 c 1
 457 478 l 2
 466 487 470 489 477 489 c 0
 488 489 497 480 497 468 c 0
 497 461 496 459 487 450 c 2
 432 394 l 1
 455 362 466 329 466 293 c 0
 466 256 454 220 431 191 c 1
 486 135 l 2
 492 129 496 121 496 115 c 0
 496 104 487 95 476 95 c 0
 470 95 464 98 457 106 c 2
 401 162 l 1
 369 138 337 127 300 127 c 0
 263 127 229 139 199 162 c 1
300 417 m 0
 232 417 176 361 176 293 c 0
 176 224 232 168 300 168 c 0
 367 168 424 224 424 291 c 0
 424 361 369 417 300 417 c 0
EndSplineSet
EndChar

StartChar: yen
Encoding: 165 165 111
Width: 600
Flags: W
HStem: 0 41<167.007 280 321 433.993> 141 37<128.004 280 321 472.996> 238 37<128.004 266 334 472.996> 522 41<51.0066 102 149 214.993 385.007 451 498 548.993>
VStem: 280 41<41 141 178 238>
DStem2: 149 522 102 522 0.553143 -0.833087<0 270.49> 300 295 334 275 0.553143 0.833087<2.14511 272.635>
LayerCount: 2
Fore
SplineSet
321 238 m 1
 321 178 l 1
 452 178 l 2
 467 178 473 173 473 160 c 0
 473 146 467 141 452 141 c 2
 321 141 l 1
 321 41 l 1
 407 41 l 2
 425 41 434 34 434 21 c 0
 434 7 425 0 407 0 c 2
 194 0 l 2
 176 0 167 7 167 21 c 0
 167 34 176 41 194 41 c 2
 280 41 l 1
 280 141 l 1
 150 141 l 2
 134 141 128 146 128 160 c 0
 128 173 134 178 150 178 c 2
 280 178 l 1
 280 238 l 1
 150 238 l 2
 134 238 128 243 128 257 c 0
 128 270 133 275 150 275 c 2
 266 275 l 1
 102 522 l 1
 78 522 l 2
 60 522 51 529 51 543 c 0
 51 556 60 563 78 563 c 2
 188 563 l 2
 206 563 215 556 215 543 c 0
 215 529 206 522 188 522 c 2
 149 522 l 1
 300 295 l 1
 451 522 l 1
 412 522 l 2
 394 522 385 529 385 543 c 0
 385 556 394 563 412 563 c 2
 522 563 l 2
 540 563 549 556 549 543 c 0
 549 529 540 522 522 522 c 2
 498 522 l 1
 334 275 l 1
 452 275 l 2
 468 275 473 270 473 257 c 0
 473 243 468 238 452 238 c 2
 321 238 l 1
EndSplineSet
EndChar

StartChar: brokenbar
Encoding: 166 166 112
Width: 600
Flags: W
HStem: 584 20G<293.5 306.5>
VStem: 280 40<-123.993 196.993 283.007 603.993>
LayerCount: 2
Fore
SplineSet
320 577 m 2
 320 310 l 2
 320 292 313 283 300 283 c 0
 287 283 280 292 280 310 c 2
 280 577 l 2
 280 595 287 604 300 604 c 0
 313 604 320 595 320 577 c 2
320 170 m 2
 320 -97 l 2
 320 -115 313 -124 300 -124 c 0
 287 -124 280 -115 280 -97 c 2
 280 170 l 2
 280 188 287 197 300 197 c 0
 313 197 320 188 320 170 c 2
EndSplineSet
EndChar

StartChar: section
Encoding: 167 167 113
Width: 600
Flags: W
HStem: -62 40<146 373.67> 563 40<227.959 455>
VStem: 66 43<316.998 389.25> 105 41<-22 72.9934> 156 40<443.515 532.606> 404 41<6.60841 96.8453> 455 41<470.007 563> 491 43<153.793 225.591>
DStem2: 234 243 208 211 0.874791 -0.4845<-138.745 194.447> 345 358 320 326 0.871576 -0.490261<-145.915 187.439>
LayerCount: 2
Fore
SplineSet
534 185 m 0xcd
 534 132 489 108 432 101 c 1
 441 86 445 71 445 52 c 0
 445 -13 388 -62 312 -62 c 2
 105 -62 l 1
 105 49 l 2
 105 64 112 73 126 73 c 0
 139 73 146 64 146 49 c 2
 146 -22 l 1xdd
 311 -22 l 2
 364 -22 404 11 404 53 c 0
 404 88 369 121 273 175 c 2
 208 211 l 2
 110 266 66 312 66 358 c 0
 66 403 107 436 169 441 c 1
 160 456 156 469 156 487 c 0
 156 550 215 603 284 603 c 2
 496 603 l 1
 496 494 l 2
 496 479 489 470 476 470 c 0
 463 470 455 479 455 494 c 2
 455 563 l 1xee
 287 563 l 2
 238 563 196 528 196 487 c 0
 196 450 226 424 345 358 c 2
 401 327 l 2
 495 276 534 234 534 185 c 0xcd
384 290 m 1
 320 326 l 2
 256 361 228 379 201 403 c 1
 195 402 195 402 183 402 c 0
 141 402 109 383 109 357 c 0xed
 109 328 151 290 234 243 c 2
 296 208 l 2
 351 177 382 157 400 139 c 1
 404 141 404 141 418 142 c 0
 463 143 491 159 491 184 c 0
 491 213 449 255 384 290 c 1
EndSplineSet
EndChar

StartChar: dieresis
Encoding: 168 168 114
Width: 600
Flags: W
HStem: 511 100<149.396 230.604 370.396 451.604>
VStem: 140 100<520.396 601.544> 361 100<520.396 601.544>
LayerCount: 2
Fore
SplineSet
190 611 m 0
 218 611 240 588 240 560 c 0
 240 534 217 511 190 511 c 0
 163 511 140 534 140 561 c 0
 140 588 163 611 190 611 c 0
411 611 m 0
 439 611 461 588 461 560 c 0
 461 534 438 511 411 511 c 0
 384 511 361 534 361 561 c 0
 361 588 384 611 411 611 c 0
EndSplineSet
EndChar

StartChar: copyright
Encoding: 169 169 115
Width: 600
Flags: W
HStem: -15 41<200.779 395.378> 111 36<242.841 360.591> 414 36<237.457 354.138> 423 20G<393.5 404.5> 537 41<202.635 396.829>
VStem: 3 41<185.233 379.04> 153 36<203.391 364.638> 381 36<338.006 388.658 421 442.994> 555 41<183.826 378.829>
LayerCount: 2
Fore
SplineSet
153 260 m 2xef80
 153 305 l 2
 153 385 216 450 292 450 c 0xef80
 324 450 346 443 381 421 c 1
 381 435 388 443 399 443 c 0
 410 443 417 435 417 423 c 2xdf80
 417 358 l 2
 417 346 410 338 399 338 c 0
 389 338 383 345 381 357 c 0
 378 388 338 414 293 414 c 0
 235 414 189 364 189 302 c 2
 189 263 l 2
 189 200 240 147 302 147 c 0
 338 147 363 160 392 194 c 0
 397 200 401 202 408 202 c 0
 417 202 425 194 425 185 c 0
 425 177 418 166 402 152 c 0
 373 125 338 111 302 111 c 0
 223 111 153 181 153 260 c 2xef80
300 578 m 0
 463 578 596 445 596 282 c 0
 596 116 464 -15 296 -15 c 0
 136 -15 3 120 3 282 c 0
 3 445 136 578 300 578 c 0
300 537 m 0
 159 537 44 423 44 282 c 0
 44 142 159 26 296 26 c 0
 441 26 555 139 555 282 c 0
 555 422 440 537 300 537 c 0
EndSplineSet
EndChar

StartChar: ordfeminine
Encoding: 170 170 116
Width: 600
Flags: W
HStem: 279 37<200.539 332.848 398 446.79> 420 35<222.154 359.92> 537 37<221.906 349.003>
VStem: 155 37<326.998 393.247> 361 37<339.199 413.975 446 523.797>
LayerCount: 2
Fore
SplineSet
361 282 m 1
 361 308 l 1
 320 286 293 279 254 279 c 0
 195 279 155 311 155 358 c 0
 155 415 211 455 288 455 c 0
 311 455 331 452 361 446 c 1
 361 490 l 2
 361 518 335 537 296 537 c 0
 278 537 250 530 220 518 c 0
 212 514 210 514 206 514 c 0
 197 514 189 523 189 533 c 0
 189 542 193 547 203 552 c 0
 233 564 274 574 298 574 c 0
 356 574 398 539 398 490 c 2
 398 319 l 1
 424 319 l 2
 439 319 447 312 447 300 c 0
 447 289 438 282 424 282 c 2
 361 282 l 1
361 350 m 1
 361 409 l 1
 345 415 313 420 290 420 c 0
 233 420 192 393 192 356 c 0
 192 332 217 316 254 316 c 0
 292 316 326 327 361 350 c 1
EndSplineSet
EndChar

StartChar: guillemotleft
Encoding: 171 171 117
Width: 600
Flags: W
HStem: 0 21G<289 297.5 518 526.5> 397 20G<288.5 297.5 517.5 526.5>
LayerCount: 2
Fore
SplineSet
63 209 m 1
 271 406 l 2
 279 414 285 417 292 417 c 0
 303 417 312 408 312 397 c 0
 312 390 311 388 301 377 c 2
 158 209 l 1
 301 40 l 2
 311 29 312 27 312 20 c 0
 312 9 303 0 292 0 c 0
 286 0 279 4 271 11 c 2
 63 209 l 1
292 209 m 1
 500 406 l 2
 508 414 514 417 521 417 c 0
 532 417 541 408 541 397 c 0
 541 390 540 388 530 377 c 2
 387 209 l 1
 530 40 l 2
 540 29 541 27 541 20 c 0
 541 9 532 0 521 0 c 0
 515 0 508 4 500 11 c 2
 292 209 l 1
EndSplineSet
EndChar

StartChar: logicalnot
Encoding: 172 172 118
Width: 600
Flags: W
HStem: 397 41<72.0066 487>
VStem: 487 41<168.007 397>
LayerCount: 2
Fore
SplineSet
487 397 m 1
 99 397 l 2
 81 397 72 404 72 418 c 0
 72 431 81 438 99 438 c 2
 528 438 l 1
 528 195 l 2
 528 177 521 168 507 168 c 0
 494 168 487 177 487 195 c 2
 487 397 l 1
EndSplineSet
EndChar

StartChar: registered
Encoding: 174 174 120
Width: 600
Flags: W
HStem: -15 41<200.779 395.378> 120 36<152.006 197 233 288.994 421.915 465.994> 258 36<233 324.625> 407 36<152.006 197 233 362.383> 537 41<202.635 396.829>
VStem: 3 41<185.233 379.04> 197 36<156 258 294 407> 380 36<314.896 389.516> 407 59<120 154.342> 555 41<183.826 378.829>
LayerCount: 2
Fore
SplineSet
233 258 m 1xfec0
 233 156 l 1
 269 156 l 2
 281 156 289 149 289 138 c 0
 289 127 281 120 269 120 c 2
 173 120 l 2
 160 120 152 127 152 138 c 0
 152 149 160 156 173 156 c 2
 197 156 l 1
 197 407 l 1
 173 407 l 2
 160 407 152 414 152 425 c 0
 152 436 160 443 173 443 c 2
 311 443 l 2
 372 443 416 404 416 350 c 0xff40
 416 312 389 281 346 269 c 1
 379 243 390 228 431 156 c 1
 446 156 l 2
 458 156 466 149 466 138 c 0
 466 127 458 120 446 120 c 2
 407 120 l 1
 370 198 331 246 296 258 c 1
 233 258 l 1xfec0
233 294 m 1
 289 294 l 2
 345 294 380 316 380 352 c 0
 380 384 351 407 310 407 c 2
 233 407 l 1
 233 294 l 1
300 578 m 0
 463 578 596 445 596 282 c 0
 596 116 464 -15 296 -15 c 0
 136 -15 3 120 3 282 c 0
 3 445 136 578 300 578 c 0
300 537 m 0
 159 537 44 423 44 282 c 0
 44 142 159 26 296 26 c 0
 441 26 555 139 555 282 c 0
 555 422 440 537 300 537 c 0
EndSplineSet
EndChar

StartChar: macron
Encoding: 175 175 121
Width: 600
Flags: W
HStem: 536 40<155.007 444.993>
VStem: 155 290<536.25 575.75>
LayerCount: 2
Fore
SplineSet
418 536 m 2
 182 536 l 2
 164 536 155 543 155 556 c 0
 155 569 164 576 182 576 c 2
 418 576 l 2
 436 576 445 569 445 556 c 0
 445 543 436 536 418 536 c 2
EndSplineSet
EndChar

StartChar: degree
Encoding: 176 176 122
Width: 600
Flags: W
HStem: 346 41<239.742 359.826> 595 41<240.389 359.826>
VStem: 155 41<430.663 551.335> 404 41<431.174 550.826>
LayerCount: 2
Fore
SplineSet
300 636 m 0
 380 636 445 571 445 491 c 0
 445 411 380 346 300 346 c 0
 219 346 155 411 155 493 c 0
 155 571 221 636 300 636 c 0
300 595 m 0
 243 595 196 548 196 492 c 0
 196 434 242 387 300 387 c 0
 357 387 404 434 404 491 c 0
 404 548 357 595 300 595 c 0
EndSplineSet
EndChar

StartChar: plusminus
Encoding: 177 177 123
Width: 600
Flags: W
HStem: 0 40<72.0066 527.993> 301 40<72.0066 279 320 527.993>
VStem: 279 41<112.007 301 341 528.993>
LayerCount: 2
Fore
SplineSet
320 301 m 1
 320 139 l 2
 320 121 313 112 300 112 c 0
 286 112 279 121 279 139 c 2
 279 301 l 1
 99 301 l 2
 81 301 72 308 72 321 c 0
 72 334 81 341 99 341 c 2
 279 341 l 1
 279 502 l 2
 279 520 286 529 300 529 c 0
 313 529 320 520 320 502 c 2
 320 341 l 1
 500 341 l 2
 519 341 528 335 528 321 c 0
 528 308 519 301 500 301 c 2
 320 301 l 1
99 40 m 2
 501 40 l 2
 519 40 528 33 528 20 c 0
 528 7 519 0 501 0 c 2
 99 0 l 2
 81 0 72 7 72 20 c 0
 72 33 81 40 99 40 c 2
EndSplineSet
EndChar

StartChar: twosuperior
Encoding: 178 178 124
Width: 600
Flags: W
HStem: 259 59<369.005 405> 259 36<219 369> 576 36<244.49 343.076>
VStem: 186 35<508.015 552.591> 369 36<295 317.994 472.514 550.156>
LayerCount: 2
Fore
SplineSet
219 295 m 1x78
 369 295 l 1x78
 369 298 l 2
 369 310 376 318 387 318 c 0
 398 318 405 310 405 298 c 2
 405 259 l 1xb8
 175 259 l 1
 175 302 l 1
 307 425 l 1
 357 475 367 489 367 511 c 0
 367 546 333 576 295 576 c 0
 261 576 230 555 221 524 c 0
 218 513 212 508 203 508 c 0
 194 508 186 516 186 525 c 0
 186 536 194 554 205 568 c 0
 227 596 260 612 295 612 c 0
 353 612 403 565 403 511 c 0
 403 468 386 448 219 295 c 1x78
EndSplineSet
EndChar

StartChar: threesuperior
Encoding: 179 179 125
Width: 600
Flags: W
HStem: 251 36<229.37 349.982> 431 36<276.139 347.43> 576 36<241.171 350.553>
VStem: 368 36<483.277 558.226> 380 36<316.216 401.119>
LayerCount: 2
Fore
SplineSet
358 446 m 1xf0
 397 422 416 394 416 358 c 0
 416 299 361 251 295 251 c 0
 245 251 181 281 181 304 c 0
 181 313 189 321 198 321 c 0
 203 321 206 320 211 316 c 0
 241 295 265 287 295 287 c 0
 341 287 380 320 380 358 c 0xe8
 380 398 341 430 288 431 c 0
 275 432 267 438 267 449 c 0
 267 455 270 461 276 465 c 0
 279 467 279 467 304 467 c 0
 341 467 368 490 368 520 c 0
 368 552 339 576 300 576 c 0
 271 576 246 566 231 549 c 0
 225 541 221 539 215 539 c 0
 205 539 197 547 197 556 c 0
 197 581 254 612 300 612 c 0
 359 612 404 572 404 520 c 0
 404 490 391 468 358 446 c 1xf0
EndSplineSet
EndChar

StartChar: acute
Encoding: 180 180 126
Width: 600
Flags: W
HStem: 490 149
VStem: 280 165
DStem2: 292 530 319 499 0.751759 0.659438<-20.1521 171.651>
LayerCount: 2
Fore
SplineSet
433 599 m 2
 319 499 l 2
 310 492 306 490 300 490 c 0
 289 490 280 499 280 511 c 0
 280 518 282 521 292 530 c 2
 406 630 l 2
 415 637 419 639 425 639 c 0
 436 639 445 630 445 618 c 0
 445 611 442 607 433 599 c 2
EndSplineSet
EndChar

StartChar: paragraph
Encoding: 182 182 127
Width: 600
Flags: W
HStem: -62 41<161.007 284 437 524.993> 260 47<210.524 284> 563 41<224.408 284 325 397 437 522.993>
VStem: 79 70<361.228 503.986> 284 41<-21 261.562 307 558> 397 40<-21 563>
LayerCount: 2
Fore
SplineSet
437 563 m 1
 437 -21 l 1
 499 -21 l 2
 516 -21 525 -28 525 -41 c 0
 525 -55 516 -62 499 -62 c 2
 401 -62 l 2
 386 -62 376 -54 376 -41 c 0
 376 -30 384 -22 397 -21 c 1
 397 563 l 1
 325 563 l 1
 325 -21 l 1
 338 -22 346 -30 346 -41 c 0
 346 -55 337 -62 321 -62 c 2
 187 -62 l 2
 171 -62 161 -54 161 -41 c 0
 161 -28 170 -21 187 -21 c 2
 284 -21 l 1
 284 260 l 1
 237 263 203 271 173 284 c 0
 115 310 79 357 79 406 c 2
 79 453 l 2
 79 543 168 604 298 604 c 2
 498 604 l 2
 514 604 523 596 523 584 c 0
 523 571 514 563 498 563 c 2
 437 563 l 1
284 307 m 1
 284 558 l 1
 207 550 149 504 149 451 c 2
 149 414 l 2
 149 361 207 315 284 307 c 1
EndSplineSet
EndChar

StartChar: periodcentered
Encoding: 183 183 128
Width: 600
Flags: W
HStem: 217 131<243.612 356.388>
VStem: 226 148<235.025 330.451>
LayerCount: 2
Fore
SplineSet
295 348 m 2
 305 348 l 2
 344 348 374 320 374 283 c 0
 374 245 344 217 305 217 c 2
 295 217 l 2
 256 217 226 246 226 283 c 0
 226 320 256 348 295 348 c 2
EndSplineSet
EndChar

StartChar: cedilla
Encoding: 184 184 129
Width: 600
Flags: W
HStem: -173 38<239.264 337.335> -81 81<274 310.919> -81 34<312 337.936>
VStem: 274 38<-47 0> 340 37<-129.986 -84.9197>
LayerCount: 2
Fore
SplineSet
298 -173 m 0xb8
 274 -173 210 -160 210 -133 c 0
 210 -122 219 -114 230 -114 c 0
 234 -114 237 -115 245 -119 c 0
 267 -131 281 -135 296 -135 c 0
 322 -135 340 -123 340 -106 c 0
 340 -89 325 -81 294 -81 c 2
 274 -81 l 1
 274 0 l 1
 312 0 l 1xd8
 312 -47 l 1
 353 -48 377 -70 377 -108 c 0
 377 -147 345 -173 298 -173 c 0xb8
EndSplineSet
EndChar

StartChar: onesuperior
Encoding: 185 185 130
Width: 600
Flags: W
HStem: 259 36<191.007 283 319 409.994> 592 20G<255.5 319>
VStem: 283 36<295 563>
LayerCount: 2
Fore
SplineSet
319 612 m 1
 319 295 l 1
 390 295 l 2
 402 295 410 288 410 277 c 0
 410 266 402 259 390 259 c 2
 212 259 l 2
 199 259 191 266 191 277 c 0
 191 290 201 296 222 296 c 0
 230 296 261 296 283 295 c 1
 283 563 l 1
 218 542 l 2
 214 541 211 540 209 540 c 0
 201 540 192 549 192 558 c 0
 192 573 192 573 319 612 c 1
EndSplineSet
EndChar

StartChar: ordmasculine
Encoding: 186 186 131
Width: 600
Flags: W
HStem: 284 37<241.314 360.471> 540 37<241.093 361.344>
VStem: 154 37<371.093 490.237> 411 37<370.434 490.908>
LayerCount: 2
Fore
SplineSet
301 577 m 0
 383 577 448 512 448 429 c 0
 448 350 381 284 301 284 c 0
 220 284 154 350 154 431 c 0
 154 511 220 577 301 577 c 0
301 540 m 0
 240 540 191 491 191 431 c 0
 191 370 241 321 301 321 c 0
 361 321 411 370 411 429 c 0
 411 491 363 540 301 540 c 0
EndSplineSet
EndChar

StartChar: guillemotright
Encoding: 187 187 132
Width: 600
Flags: W
HStem: 0 21G<77.5 86.5 307.5 316.5> 397 20G<77.5 86 307.5 316>
LayerCount: 2
Fore
SplineSet
311 208 m 1
 104 11 l 2
 96 3 90 0 83 0 c 0
 72 0 63 9 63 20 c 0
 63 27 64 29 74 40 c 2
 216 208 l 1
 74 377 l 2
 64 388 63 390 63 397 c 0
 63 408 72 417 83 417 c 0
 89 417 96 413 104 406 c 2
 311 208 l 1
541 208 m 1
 334 11 l 2
 326 3 320 0 313 0 c 0
 302 0 293 9 293 20 c 0
 293 27 294 29 304 40 c 2
 446 208 l 1
 304 377 l 2
 294 388 293 390 293 397 c 0
 293 408 302 417 313 417 c 0
 319 417 326 413 334 406 c 2
 541 208 l 1
EndSplineSet
EndChar

StartChar: onequarter
Encoding: 188 188 133
Width: 600
Flags: W
HStem: 0 36<453.006 510 546 579.994> 93 36<401 510 546 579.993> 259 36<16.0073 108 144 235.993> 592 20G<80.5 144>
VStem: 108 36<295 563> 510 36<36 93 129 309>
DStem2: 112 88 141 63 0.646685 0.762757<-18.6415 560.447> 361 127 401 129 0.506328 0.862341<21.9778 231.376>
LayerCount: 2
Fore
SplineSet
144 612 m 1
 144 295 l 1
 215 295 l 2
 228 295 236 288 236 277 c 0
 236 266 227 259 215 259 c 2
 37 259 l 2
 24 259 16 266 16 277 c 0
 16 290 26 296 47 296 c 0
 55 296 86 296 108 295 c 1
 108 563 l 1
 43 542 l 2
 39 541 36 540 34 540 c 0
 26 540 17 549 17 558 c 0
 17 573 17 573 144 612 c 1
492 477 m 2
 141 63 l 2
 133 53 129 51 123 51 c 0
 112 51 103 60 103 71 c 0
 103 75 106 81 112 88 c 2
 462 502 l 2
 471 512 474 514 480 514 c 0
 491 514 500 505 500 494 c 0
 500 490 496 483 492 477 c 2
510 93 m 1
 361 93 l 1
 361 127 l 1
 489 345 l 1
 546 345 l 1
 546 129 l 1
 559 129 l 2
 572 129 580 122 580 111 c 0
 580 99 571 93 555 93 c 2
 546 93 l 1
 546 36 l 1
 559 36 l 2
 572 36 580 29 580 18 c 0
 580 7 572 0 559 0 c 2
 474 0 l 2
 461 0 453 7 453 18 c 0
 453 25 458 32 464 35 c 1
 469 36 469 36 510 36 c 1
 510 93 l 1
510 129 m 1
 510 309 l 1
 508 309 l 1
 401 129 l 1
 510 129 l 1
EndSplineSet
EndChar

StartChar: onehalf
Encoding: 189 189 134
Width: 600
Flags: W
HStem: 0 59<537.005 573> 0 36<387 537> 259 36<23.0073 115 151 241.994> 317 36<412.49 511.076> 592 20G<87.5 151>
VStem: 115 36<295 563> 354 35<249.015 293.591> 537 36<36 58.9942 213.514 291.156>
DStem2: 105 88 134 63 0.646685 0.762757<-18.6415 560.447>
LayerCount: 2
Fore
SplineSet
485 477 m 2x3f
 134 63 l 2
 126 53 122 51 116 51 c 0
 105 51 96 60 96 71 c 0
 96 75 99 81 105 88 c 2
 455 502 l 2
 464 512 467 514 473 514 c 0
 484 514 493 505 493 494 c 0
 493 490 489 483 485 477 c 2x3f
151 612 m 1
 151 295 l 1
 222 295 l 2
 234 295 242 288 242 277 c 0
 242 266 234 259 222 259 c 2
 44 259 l 2
 31 259 23 266 23 277 c 0
 23 290 33 296 54 296 c 0
 62 296 93 296 115 295 c 1
 115 563 l 1
 50 542 l 2
 46 541 43 540 41 540 c 0
 33 540 24 549 24 558 c 0
 24 573 24 573 151 612 c 1
387 36 m 1x7f
 537 36 l 1x7f
 537 39 l 2
 537 51 544 59 555 59 c 0
 566 59 573 51 573 39 c 2
 573 0 l 1xbf
 343 0 l 1
 343 43 l 1
 475 166 l 1
 525 216 535 230 535 252 c 0
 535 287 501 317 463 317 c 0
 429 317 398 296 389 265 c 0
 386 254 380 249 371 249 c 0
 362 249 354 257 354 266 c 0
 354 277 362 295 373 309 c 0
 395 337 428 353 463 353 c 0
 521 353 571 306 571 252 c 0
 571 209 554 189 387 36 c 1x7f
EndSplineSet
EndChar

StartChar: threequarters
Encoding: 190 190 135
Width: 600
Flags: W
HStem: 0 36<453.006 510 546 579.994> 93 36<401 510 546 579.993> 251 36<54.3697 174.982> 431 36<101.139 172.43> 576 36<66.1709 175.553>
VStem: 193 36<483.277 558.226> 205 36<316.216 401.119> 510 36<36 93 129 309>
DStem2: 111 88 140 63 0.646685 0.762757<-18.6079 560.447> 361 127 401 129 0.506328 0.862341<21.9778 231.376>
LayerCount: 2
Fore
SplineSet
183 446 m 1xfd
 222 422 241 394 241 358 c 0
 241 299 186 251 120 251 c 0
 70 251 6 281 6 304 c 0
 6 313 14 321 23 321 c 0
 28 321 31 320 36 316 c 0
 66 295 90 287 120 287 c 0
 166 287 205 320 205 358 c 0xfb
 205 398 166 430 113 431 c 0
 100 432 92 438 92 449 c 0
 92 455 95 461 101 465 c 0
 104 467 104 467 129 467 c 0
 166 467 193 490 193 520 c 0
 193 552 164 576 125 576 c 0
 96 576 71 566 56 549 c 0
 50 541 46 539 40 539 c 0
 30 539 22 547 22 556 c 0
 22 581 79 612 125 612 c 0
 184 612 229 572 229 520 c 0
 229 490 216 468 183 446 c 1xfd
491 477 m 2
 140 63 l 2
 132 53 128 51 122 51 c 0
 111 51 102 60 102 71 c 0
 102 76 104 80 111 88 c 2
 461 502 l 2
 470 512 473 514 479 514 c 0
 490 514 499 505 499 494 c 0
 499 490 495 483 491 477 c 2
510 93 m 1
 361 93 l 1
 361 127 l 1
 489 345 l 1
 546 345 l 1
 546 129 l 1
 559 129 l 2
 572 129 580 122 580 111 c 0
 580 99 571 93 555 93 c 2
 546 93 l 1
 546 36 l 1
 559 36 l 2
 572 36 580 29 580 18 c 0
 580 7 572 0 559 0 c 2
 474 0 l 2
 461 0 453 7 453 18 c 0
 453 25 458 32 464 35 c 1
 469 36 469 36 510 36 c 1
 510 93 l 1
510 129 m 1
 510 309 l 1
 508 309 l 1
 401 129 l 1
 510 129 l 1
EndSplineSet
EndChar

StartChar: questiondown
Encoding: 191 191 136
Width: 600
Flags: W
HStem: -175 41<213.124 394.953> 317 100<238.07 361.646>
VStem: 113 41<-80.7607 35.666> 229 141<326.928 407.072> 278 41<146.804 222.993> 425 41<-108.926 -32.0066>
LayerCount: 2
Fore
SplineSet
278 155 m 1xec
 278 196 l 2
 278 214 285 223 298 223 c 0
 312 223 319 214 319 196 c 2
 319 128 l 1
 203 80 154 36 154 -21 c 0
 154 -87 213 -134 296 -134 c 0
 341 -134 372 -126 425 -100 c 1
 425 -59 l 2
 425 -41 432 -32 445 -32 c 0
 459 -32 466 -41 466 -59 c 2
 466 -126 l 1
 456 -131 448 -134 437 -139 c 0
 374 -167 342 -175 291 -175 c 0
 185 -175 113 -113 113 -21 c 0
 113 53 153 96 278 155 c 1xec
313 317 m 2
 286 317 l 2
 252 317 229 338 229 367 c 0
 229 396 252 417 286 417 c 2
 313 417 l 2
 347 417 370 397 370 367 c 0xf4
 370 337 347 317 313 317 c 2
EndSplineSet
EndChar

StartChar: Agrave
Encoding: 192 192 137
Width: 600
Flags: W
HStem: 0 41<9.00659 67 108 213.993 381.007 484 527 590.993> 188 41<178 413> 522 41<99.0066 246 286 301>
DStem2: 67 41 108 41 0.348774 0.937207<14.2997 170.903 214.909 513.227> 318 680 291 649 0.751759 -0.659438<-171.65 10.5378> 330 563 301 522 0.353087 -0.935591<28.1197 341.793 385.449 542.754>
LayerCount: 2
Fore
SplineSet
428 188 m 1
 162 188 l 1
 108 41 l 1
 187 41 l 2
 205 41 214 34 214 21 c 0
 214 7 205 0 187 0 c 2
 36 0 l 2
 18 0 9 7 9 21 c 0
 9 34 18 41 36 41 c 2
 67 41 l 1
 246 522 l 1
 126 522 l 2
 108 522 99 529 99 543 c 0
 99 556 108 563 126 563 c 2
 330 563 l 1
 527 41 l 1
 564 41 l 2
 582 41 591 34 591 21 c 0
 591 7 582 0 564 0 c 2
 408 0 l 2
 390 0 381 7 381 21 c 0
 381 34 390 41 408 41 c 2
 484 41 l 1
 428 188 l 1
413 229 m 1
 301 522 l 1
 286 522 l 1
 178 229 l 1
 413 229 l 1
204 780 m 2
 318 680 l 1
 325 672 l 2
 330 667 330 667 330 661 c 0
 330 649 321 640 309 640 c 0
 304 640 298 643 291 649 c 2
 177 749 l 2
 168 757 165 761 165 769 c 0
 165 780 174 789 185 789 c 0
 191 789 196 786 204 780 c 2
EndSplineSet
EndChar

StartChar: Aacute
Encoding: 193 193 138
Width: 600
Flags: W
HStem: 0 41<9.00659 67 108 213.993 381.007 484 527 590.993> 188 41<178 413> 522 41<99.0066 246 286 301>
DStem2: 67 41 108 41 0.348774 0.937207<14.2997 170.903 214.909 513.227> 230 680 257 649 0.751759 0.659438<-20.1521 171.651> 330 563 301 522 0.353087 -0.935591<28.1197 341.793 385.449 542.754>
LayerCount: 2
Fore
SplineSet
428 188 m 1
 162 188 l 1
 108 41 l 1
 187 41 l 2
 205 41 214 34 214 21 c 0
 214 7 205 0 187 0 c 2
 36 0 l 2
 18 0 9 7 9 21 c 0
 9 34 18 41 36 41 c 2
 67 41 l 1
 246 522 l 1
 126 522 l 2
 108 522 99 529 99 543 c 0
 99 556 108 563 126 563 c 2
 330 563 l 1
 527 41 l 1
 564 41 l 2
 582 41 591 34 591 21 c 0
 591 7 582 0 564 0 c 2
 408 0 l 2
 390 0 381 7 381 21 c 0
 381 34 390 41 408 41 c 2
 484 41 l 1
 428 188 l 1
413 229 m 1
 301 522 l 1
 286 522 l 1
 178 229 l 1
 413 229 l 1
371 749 m 2
 257 649 l 2
 248 642 244 640 238 640 c 0
 227 640 218 649 218 661 c 0
 218 668 220 671 230 680 c 2
 344 780 l 2
 353 787 357 789 363 789 c 0
 374 789 383 780 383 768 c 0
 383 761 380 757 371 749 c 2
EndSplineSet
EndChar

StartChar: Acircumflex
Encoding: 194 194 139
Width: 600
Flags: W
HStem: 0 41<9.00659 67 108 213.993 381.007 484 527 590.993> 188 41<178 413> 522 41<99.0066 246 286 301>
DStem2: 67 41 108 41 0.348774 0.937207<14.2997 170.903 214.909 513.227> 141 680 166 648 0.771086 0.63673<-19.8889 137.44> 273 789 273 736 0.773957 -0.633238<33.5616 190.914> 330 563 301 522 0.353087 -0.935591<28.1197 341.793 385.449 542.754>
LayerCount: 2
Fore
SplineSet
428 188 m 1
 162 188 l 1
 108 41 l 1
 187 41 l 2
 205 41 214 34 214 21 c 0
 214 7 205 0 187 0 c 2
 36 0 l 2
 18 0 9 7 9 21 c 0
 9 34 18 41 36 41 c 2
 67 41 l 1
 246 522 l 1
 126 522 l 2
 108 522 99 529 99 543 c 0
 99 556 108 563 126 563 c 2
 330 563 l 1
 527 41 l 1
 564 41 l 2
 582 41 591 34 591 21 c 0
 591 7 582 0 564 0 c 2
 408 0 l 2
 390 0 381 7 381 21 c 0
 381 34 390 41 408 41 c 2
 484 41 l 1
 428 188 l 1
413 229 m 1
 301 522 l 1
 286 522 l 1
 178 229 l 1
 413 229 l 1
273 789 m 1
 405 681 l 2
 416 672 418 668 418 660 c 0
 418 649 409 640 398 640 c 0
 393 640 387 643 380 648 c 2
 273 736 l 1
 166 648 l 2
 159 643 153 640 148 640 c 0
 137 640 128 649 128 660 c 0
 128 668 131 673 141 680 c 2
 273 789 l 1
EndSplineSet
EndChar

StartChar: Atilde
Encoding: 195 195 140
Width: 600
Flags: W
HStem: 0 41<9.00659 67 108 213.993 381.007 484 527 590.993> 188 41<178 413> 522 41<99.0066 246 286 301> 666 41<284.837 373.685> 714 41<171.479 261.31>
DStem2: 67 41 108 41 0.348774 0.937207<14.2997 170.903 214.909 513.227> 330 563 301 522 0.353087 -0.935591<28.1197 341.793 385.449 542.754>
LayerCount: 2
Fore
SplineSet
428 188 m 1
 162 188 l 1
 108 41 l 1
 187 41 l 2
 205 41 214 34 214 21 c 0
 214 7 205 0 187 0 c 2
 36 0 l 2
 18 0 9 7 9 21 c 0
 9 34 18 41 36 41 c 2
 67 41 l 1
 246 522 l 1
 126 522 l 2
 108 522 99 529 99 543 c 0
 99 556 108 563 126 563 c 2
 330 563 l 1
 527 41 l 1
 564 41 l 2
 582 41 591 34 591 21 c 0
 591 7 582 0 564 0 c 2
 408 0 l 2
 390 0 381 7 381 21 c 0
 381 34 390 41 408 41 c 2
 484 41 l 1
 428 188 l 1
413 229 m 1
 301 522 l 1
 286 522 l 1
 178 229 l 1
 413 229 l 1
408 753 m 0
 418 753 428 744 428 733 c 0
 428 725 424 719 406 702 c 0
 380 676 360 666 337 666 c 0
 315 666 296 673 256 697 c 0
 236 710 225 714 213 714 c 0
 193 714 184 708 155 677 c 0
 151 672 144 669 138 669 c 0
 127 669 118 677 118 688 c 0
 118 696 124 705 137 718 c 0
 166 745 187 755 212 755 c 0
 232 755 244 751 276 732 c 1
 314 711 322 707 335 707 c 0
 352 707 362 714 392 745 c 0
 398 751 402 753 408 753 c 0
EndSplineSet
EndChar

StartChar: Adieresis
Encoding: 196 196 141
Width: 600
Flags: W
HStem: 0 41<9.00659 67 108 213.993 381.007 484 527 590.993> 188 41<178 413> 522 41<99.0066 246 286 301> 661 100<121.396 202.604 342.396 423.604>
VStem: 112 100<670.396 751.544> 333 100<670.396 751.544>
DStem2: 67 41 108 41 0.348774 0.937207<14.2997 170.903 214.909 513.227> 330 563 301 522 0.353087 -0.935591<28.1197 341.793 385.449 542.754>
LayerCount: 2
Fore
SplineSet
428 188 m 1
 162 188 l 1
 108 41 l 1
 187 41 l 2
 205 41 214 34 214 21 c 0
 214 7 205 0 187 0 c 2
 36 0 l 2
 18 0 9 7 9 21 c 0
 9 34 18 41 36 41 c 2
 67 41 l 1
 246 522 l 1
 126 522 l 2
 108 522 99 529 99 543 c 0
 99 556 108 563 126 563 c 2
 330 563 l 1
 527 41 l 1
 564 41 l 2
 582 41 591 34 591 21 c 0
 591 7 582 0 564 0 c 2
 408 0 l 2
 390 0 381 7 381 21 c 0
 381 34 390 41 408 41 c 2
 484 41 l 1
 428 188 l 1
413 229 m 1
 301 522 l 1
 286 522 l 1
 178 229 l 1
 413 229 l 1
162 761 m 0
 190 761 212 738 212 710 c 0
 212 684 189 661 162 661 c 0
 135 661 112 684 112 711 c 0
 112 738 135 761 162 761 c 0
383 761 m 0
 411 761 433 738 433 710 c 0
 433 684 410 661 383 661 c 0
 356 661 333 684 333 711 c 0
 333 738 356 761 383 761 c 0
EndSplineSet
EndChar

StartChar: Aring
Encoding: 197 197 142
Width: 600
Flags: W
HStem: 0 41<9.00659 67 108 213.993 381.007 484 527 590.993> 188 41<178 413> 522 41<99.0066 246 286 301> 630 33<236.248 317.752> 778 33<236.248 317.97>
VStem: 184 33<681.838 759.423> 337 33<682.367 759.195>
DStem2: 67 41 108 41 0.348774 0.937207<14.2997 170.903 214.909 513.227> 330 563 301 522 0.353087 -0.935591<28.1197 341.793 385.449 542.754>
LayerCount: 2
Fore
SplineSet
428 188 m 1
 162 188 l 1
 108 41 l 1
 187 41 l 2
 205 41 214 34 214 21 c 0
 214 7 205 0 187 0 c 2
 36 0 l 2
 18 0 9 7 9 21 c 0
 9 34 18 41 36 41 c 2
 67 41 l 1
 246 522 l 1
 126 522 l 2
 108 522 99 529 99 543 c 0
 99 556 108 563 126 563 c 2
 330 563 l 1
 527 41 l 1
 564 41 l 2
 582 41 591 34 591 21 c 0
 591 7 582 0 564 0 c 2
 408 0 l 2
 390 0 381 7 381 21 c 0
 381 34 390 41 408 41 c 2
 484 41 l 1
 428 188 l 1
413 229 m 1
 301 522 l 1
 286 522 l 1
 178 229 l 1
 413 229 l 1
277 811 m 0
 329 811 370 771 370 719 c 0
 370 671 328 630 277 630 c 0
 226 630 184 671 184 721 c 0
 184 770 226 811 277 811 c 0
277 778 m 0
 244 778 217 752 217 721 c 0
 217 689 244 663 277 663 c 0
 310 663 337 689 337 720 c 0
 337 752 310 778 277 778 c 0
EndSplineSet
EndChar

StartChar: AE
Encoding: 198 198 143
Width: 600
Flags: W
HStem: 0 41<10.0066 74 115 167.993 218.007 297 338 549> 189 41<167 297> 273 41<338 416> 522 41<117.007 207 247 297 338 529>
VStem: 297 41<41 189 230 273 314 522> 416 40<219.007 273 314 368.993> 529 41<384.007 522> 549 41<41 159.979>
DStem2: 74 41 115 41 0.266507 0.963833<10.9268 164.501 206.95 499.049>
LayerCount: 2
Fore
SplineSet
297 189 m 1xfd
 156 189 l 1
 115 41 l 1
 141 41 l 2
 159 41 168 34 168 21 c 0
 168 7 159 0 141 0 c 2
 37 0 l 2
 19 0 10 7 10 21 c 0
 10 34 19 41 37 41 c 2
 74 41 l 1
 207 522 l 1
 144 522 l 2
 126 522 117 529 117 543 c 0
 117 556 126 563 144 563 c 2
 570 563 l 1
 570 411 l 2xfe
 570 393 563 384 549 384 c 0xfd
 536 384 529 393 529 411 c 2
 529 522 l 1xfe
 338 522 l 1
 338 314 l 1
 416 314 l 1
 416 342 l 2
 416 360 423 369 436 369 c 0
 450 369 456 360 456 342 c 2
 456 246 l 2
 456 228 449 219 436 219 c 0
 423 219 416 229 416 246 c 2
 416 273 l 1
 338 273 l 1
 338 41 l 1
 549 41 l 1
 549 134 l 2
 549 153 555 160 569 160 c 0
 582 160 590 149 590 134 c 2
 590 0 l 1
 245 0 l 2
 227 0 218 7 218 21 c 0
 218 34 227 41 245 41 c 2
 297 41 l 1
 297 189 l 1xfd
297 230 m 1
 297 522 l 1
 247 522 l 1
 167 230 l 1
 297 230 l 1
EndSplineSet
EndChar

StartChar: Ccedilla
Encoding: 199 199 144
Width: 600
Flags: W
HStem: -173 38<244.163 342.335> -81 34<317 342.936> -16 41<317 410.949> 535 41<222.222 398.21> 543 20G<492 505.5>
VStem: 63 41<159.181 412.517> 279 38<-47 -16> 345 37<-129.986 -84.9197> 478 41<397.007 469.569 507 562.993>
LayerCount: 2
Fore
SplineSet
303 -173 m 0xf780
 279 -173 215 -160 215 -133 c 0
 215 -122 224 -114 235 -114 c 0
 238 -114 242 -115 250 -119 c 0
 273 -131 286 -135 301 -135 c 0
 327 -135 345 -123 345 -106 c 0
 345 -89 330 -81 299 -81 c 2
 279 -81 l 1
 279 -12 l 1
 235 -1 211 8 183 28 c 0
 110 78 63 161 63 242 c 2
 63 325 l 2
 63 386 91 456 134 502 c 0
 179 550 238 576 305 576 c 0xf780
 371 576 431 552 478 507 c 1
 478 536 l 2
 478 554 485 563 499 563 c 0xef80
 512 563 519 554 519 536 c 2
 519 424 l 2
 519 406 512 397 498 397 c 0
 486 397 479 405 478 421 c 0
 474 482 394 535 305 535 c 0
 194 535 104 438 104 319 c 2
 104 248 l 2
 104 128 204 25 322 25 c 0
 391 25 442 51 496 115 c 0
 503 123 507 125 514 125 c 0
 526 125 534 117 534 106 c 0
 534 96 522 79 496 55 c 0
 450 12 385 -16 330 -16 c 2
 317 -16 l 1
 317 -47 l 1
 358 -48 382 -70 382 -108 c 0
 382 -147 350 -173 303 -173 c 0xf780
EndSplineSet
EndChar

StartChar: Egrave
Encoding: 200 200 145
Width: 600
Flags: W
HStem: 0 41<43.0066 124 165 479> 272 41<165 310> 522 41<43.0066 124 165 458>
VStem: 124 41<41 272 313 522> 310 41<200.007 272 313 384.993> 458 41<397.007 522> 479 41<41 186.993>
DStem2: 329 680 302 649 0.751759 -0.659438<-171.65 10.5378>
LayerCount: 2
Fore
SplineSet
165 272 m 1xfc
 165 41 l 1
 479 41 l 1
 479 160 l 2
 479 178 486 187 500 187 c 0
 513 187 520 178 520 160 c 2
 520 0 l 1xfa
 70 0 l 2
 52 0 43 7 43 21 c 0
 43 34 52 41 70 41 c 2
 124 41 l 1
 124 522 l 1
 70 522 l 2
 52 522 43 529 43 543 c 0
 43 556 52 563 70 563 c 2
 499 563 l 1
 499 424 l 2
 499 406 492 397 478 397 c 0
 465 397 458 406 458 424 c 2
 458 522 l 1
 165 522 l 1
 165 313 l 1
 310 313 l 1
 310 358 l 2
 310 376 317 385 331 385 c 0
 344 385 351 376 351 358 c 2
 351 227 l 2
 351 209 344 200 331 200 c 0
 317 200 310 209 310 227 c 2
 310 272 l 1
 165 272 l 1xfc
215 780 m 2
 329 680 l 1
 336 672 l 2
 341 667 341 667 341 661 c 0
 341 649 332 640 320 640 c 0
 315 640 309 643 302 649 c 2
 188 749 l 2
 179 757 176 761 176 769 c 0
 176 780 185 789 196 789 c 0
 202 789 207 786 215 780 c 2
EndSplineSet
EndChar

StartChar: Eacute
Encoding: 201 201 146
Width: 600
Flags: W
HStem: 0 41<43.0066 124 165 479> 272 41<165 310> 522 41<43.0066 124 165 458>
VStem: 124 41<41 272 313 522> 310 41<200.007 272 313 384.993> 458 41<397.007 522> 479 41<41 186.993>
DStem2: 248 680 275 649 0.751759 0.659438<-20.1521 171.651>
LayerCount: 2
Fore
SplineSet
165 272 m 1xfc
 165 41 l 1
 479 41 l 1
 479 160 l 2
 479 178 486 187 500 187 c 0
 513 187 520 178 520 160 c 2
 520 0 l 1xfa
 70 0 l 2
 52 0 43 7 43 21 c 0
 43 34 52 41 70 41 c 2
 124 41 l 1
 124 522 l 1
 70 522 l 2
 52 522 43 529 43 543 c 0
 43 556 52 563 70 563 c 2
 499 563 l 1
 499 424 l 2
 499 406 492 397 478 397 c 0
 465 397 458 406 458 424 c 2
 458 522 l 1
 165 522 l 1
 165 313 l 1
 310 313 l 1
 310 358 l 2
 310 376 317 385 331 385 c 0
 344 385 351 376 351 358 c 2
 351 227 l 2
 351 209 344 200 331 200 c 0
 317 200 310 209 310 227 c 2
 310 272 l 1
 165 272 l 1xfc
389 749 m 2
 275 649 l 2
 266 642 262 640 256 640 c 0
 245 640 236 649 236 661 c 0
 236 668 238 671 248 680 c 2
 362 780 l 2
 371 787 375 789 381 789 c 0
 392 789 401 780 401 768 c 0
 401 761 398 757 389 749 c 2
EndSplineSet
EndChar

StartChar: Ecircumflex
Encoding: 202 202 147
Width: 600
Flags: W
HStem: 0 41<43.0066 124 165 479> 272 41<165 310> 522 41<43.0066 124 165 458>
VStem: 124 41<41 272 313 522> 310 41<200.007 272 313 384.993> 458 41<397.007 522> 479 41<41 186.993>
DStem2: 159 680 184 648 0.771086 0.63673<-19.8889 137.44> 291 789 291 736 0.773957 -0.633238<33.5616 190.914>
LayerCount: 2
Fore
SplineSet
165 272 m 1xfc
 165 41 l 1
 479 41 l 1
 479 160 l 2
 479 178 486 187 500 187 c 0
 513 187 520 178 520 160 c 2
 520 0 l 1xfa
 70 0 l 2
 52 0 43 7 43 21 c 0
 43 34 52 41 70 41 c 2
 124 41 l 1
 124 522 l 1
 70 522 l 2
 52 522 43 529 43 543 c 0
 43 556 52 563 70 563 c 2
 499 563 l 1
 499 424 l 2
 499 406 492 397 478 397 c 0
 465 397 458 406 458 424 c 2
 458 522 l 1
 165 522 l 1
 165 313 l 1
 310 313 l 1
 310 358 l 2
 310 376 317 385 331 385 c 0
 344 385 351 376 351 358 c 2
 351 227 l 2
 351 209 344 200 331 200 c 0
 317 200 310 209 310 227 c 2
 310 272 l 1
 165 272 l 1xfc
291 789 m 1
 423 681 l 2
 434 672 436 668 436 660 c 0
 436 649 427 640 416 640 c 0
 411 640 405 643 398 648 c 2
 291 736 l 1
 184 648 l 2
 177 643 171 640 166 640 c 0
 155 640 146 649 146 660 c 0
 146 668 149 673 159 680 c 2
 291 789 l 1
EndSplineSet
EndChar

StartChar: Edieresis
Encoding: 203 203 148
Width: 600
Flags: W
HStem: 0 41<43.0066 124 165 479> 272 41<165 310> 522 41<43.0066 124 165 458> 661 100<140.396 221.604 361.396 442.604>
VStem: 124 41<41 272 313 522> 131 100<670.396 751.544> 310 41<200.007 272 313 384.993> 352 100<670.396 751.544> 458 41<397.007 522> 479 41<41 186.993>
LayerCount: 2
Fore
SplineSet
165 272 m 1xfb80
 165 41 l 1
 479 41 l 1
 479 160 l 2
 479 178 486 187 500 187 c 0
 513 187 520 178 520 160 c 2
 520 0 l 1xfb40
 70 0 l 2
 52 0 43 7 43 21 c 0
 43 34 52 41 70 41 c 2
 124 41 l 1
 124 522 l 1
 70 522 l 2
 52 522 43 529 43 543 c 0
 43 556 52 563 70 563 c 2
 499 563 l 1
 499 424 l 2
 499 406 492 397 478 397 c 0
 465 397 458 406 458 424 c 2
 458 522 l 1
 165 522 l 1
 165 313 l 1
 310 313 l 1
 310 358 l 2
 310 376 317 385 331 385 c 0
 344 385 351 376 351 358 c 2
 351 227 l 2
 351 209 344 200 331 200 c 0
 317 200 310 209 310 227 c 2
 310 272 l 1
 165 272 l 1xfb80
181 761 m 0
 209 761 231 738 231 710 c 0
 231 684 208 661 181 661 c 0
 154 661 131 684 131 711 c 0xf7
 131 738 154 761 181 761 c 0
402 761 m 0
 430 761 452 738 452 710 c 0
 452 684 429 661 402 661 c 0
 375 661 352 684 352 711 c 0
 352 738 375 761 402 761 c 0
EndSplineSet
EndChar

StartChar: Igrave
Encoding: 204 204 149
Width: 600
Flags: W
HStem: 0 41<113.007 279 320 486.993> 522 41<113.007 279 320 486.993>
VStem: 279 41<41 522>
DStem2: 344 680 317 649 0.751759 -0.659438<-171.65 10.5378>
LayerCount: 2
Fore
SplineSet
320 522 m 1
 320 41 l 1
 459 41 l 2
 478 41 487 34 487 21 c 0
 487 7 477 0 459 0 c 2
 140 0 l 2
 122 0 113 7 113 21 c 0
 113 34 122 41 140 41 c 2
 279 41 l 1
 279 522 l 1
 140 522 l 2
 122 522 113 529 113 543 c 0
 113 556 122 563 140 563 c 2
 459 563 l 2
 478 563 487 556 487 543 c 0
 487 529 478 522 459 522 c 2
 320 522 l 1
230 780 m 2
 344 680 l 1
 351 672 l 2
 356 667 356 667 356 661 c 0
 356 649 347 640 335 640 c 0
 330 640 324 643 317 649 c 2
 203 749 l 2
 194 757 191 761 191 769 c 0
 191 780 200 789 211 789 c 0
 217 789 222 786 230 780 c 2
EndSplineSet
EndChar

StartChar: Iacute
Encoding: 205 205 150
Width: 600
Flags: W
HStem: 0 41<113.007 279 320 486.993> 522 41<113.007 279 320 486.993>
VStem: 279 41<41 522>
DStem2: 292 680 319 649 0.751759 0.659438<-20.1521 171.651>
LayerCount: 2
Fore
SplineSet
320 522 m 1
 320 41 l 1
 459 41 l 2
 478 41 487 34 487 21 c 0
 487 7 477 0 459 0 c 2
 140 0 l 2
 122 0 113 7 113 21 c 0
 113 34 122 41 140 41 c 2
 279 41 l 1
 279 522 l 1
 140 522 l 2
 122 522 113 529 113 543 c 0
 113 556 122 563 140 563 c 2
 459 563 l 2
 478 563 487 556 487 543 c 0
 487 529 478 522 459 522 c 2
 320 522 l 1
433 749 m 2
 319 649 l 2
 310 642 306 640 300 640 c 0
 289 640 280 649 280 661 c 0
 280 668 282 671 292 680 c 2
 406 780 l 2
 415 787 419 789 425 789 c 0
 436 789 445 780 445 768 c 0
 445 761 442 757 433 749 c 2
EndSplineSet
EndChar

StartChar: Icircumflex
Encoding: 206 206 151
Width: 600
Flags: W
HStem: 0 41<113.007 279 320 486.993> 522 41<113.007 279 320 486.993>
VStem: 279 41<41 522>
DStem2: 168 680 193 648 0.771086 0.63673<-19.8889 137.44> 300 789 300 736 0.773957 -0.633238<33.5616 190.914>
LayerCount: 2
Fore
SplineSet
320 522 m 1
 320 41 l 1
 459 41 l 2
 478 41 487 34 487 21 c 0
 487 7 477 0 459 0 c 2
 140 0 l 2
 122 0 113 7 113 21 c 0
 113 34 122 41 140 41 c 2
 279 41 l 1
 279 522 l 1
 140 522 l 2
 122 522 113 529 113 543 c 0
 113 556 122 563 140 563 c 2
 459 563 l 2
 478 563 487 556 487 543 c 0
 487 529 478 522 459 522 c 2
 320 522 l 1
300 789 m 1
 432 681 l 2
 443 672 445 668 445 660 c 0
 445 649 436 640 425 640 c 0
 420 640 414 643 407 648 c 2
 300 736 l 1
 193 648 l 2
 186 643 180 640 175 640 c 0
 164 640 155 649 155 660 c 0
 155 668 158 673 168 680 c 2
 300 789 l 1
EndSplineSet
EndChar

StartChar: Idieresis
Encoding: 207 207 152
Width: 600
Flags: W
HStem: 0 41<113.007 279 320 486.993> 522 41<113.007 279 320 486.993> 661 100<148.396 229.604 370.396 451.604>
VStem: 139 100<670.396 751.544> 279 41<41 522> 361 100<670.396 751.544>
LayerCount: 2
Fore
SplineSet
320 522 m 1
 320 41 l 1
 459 41 l 2
 478 41 487 34 487 21 c 0
 487 7 477 0 459 0 c 2
 140 0 l 2
 122 0 113 7 113 21 c 0
 113 34 122 41 140 41 c 2
 279 41 l 1
 279 522 l 1
 140 522 l 2
 122 522 113 529 113 543 c 0
 113 556 122 563 140 563 c 2
 459 563 l 2
 478 563 487 556 487 543 c 0
 487 529 478 522 459 522 c 2
 320 522 l 1
189 761 m 0
 217 761 239 738 239 710 c 0
 239 684 216 661 189 661 c 0
 162 661 139 684 139 711 c 0
 139 738 162 761 189 761 c 0
411 761 m 0
 439 761 461 738 461 710 c 0
 461 684 438 661 411 661 c 0
 384 661 361 684 361 711 c 0
 361 738 384 761 411 761 c 0
EndSplineSet
EndChar

StartChar: Eth
Encoding: 208 208 153
Width: 600
Flags: W
HStem: 0 41<43.0066 104 145 367.448> 272 41<0.0065918 104 145 333.993> 522 41<43.0066 104 145 373.913>
VStem: 104 41<41 272 313 522> 479 41<161.392 402.057>
LayerCount: 2
Fore
SplineSet
104 272 m 1
 27 272 l 2
 9 272 0 279 0 293 c 0
 0 306 9 313 27 313 c 2
 104 313 l 1
 104 522 l 1
 70 522 l 2
 52 522 43 529 43 543 c 0
 43 556 52 563 70 563 c 2
 290 563 l 2
 416 563 520 448 520 310 c 2
 520 254 l 2
 520 115 416 0 290 0 c 2
 70 0 l 2
 52 0 43 7 43 21 c 0
 43 34 52 41 70 41 c 2
 104 41 l 1
 104 272 l 1
145 522 m 1
 145 313 l 1
 307 313 l 2
 325 313 334 306 334 293 c 0
 334 279 325 272 307 272 c 2
 145 272 l 1
 145 41 l 1
 295 41 l 2
 389 41 479 140 479 245 c 2
 479 319 l 2
 479 371 454 431 414 472 c 0
 379 507 342 522 288 522 c 2
 145 522 l 1
EndSplineSet
EndChar

StartChar: Ntilde
Encoding: 209 209 154
Width: 600
Flags: W
HStem: 0 41<42.0066 103 144 245.993> 522 41<22.0066 103 358.007 460 501 561.993> 666 41<309.837 398.685> 714 41<196.479 286.31>
VStem: 103 41<41 504> 460 41<59 522>
DStem2: 155 563 144 504 0.517737 -0.85554<44.7817 589.102>
LayerCount: 2
Fore
SplineSet
501 0 m 1
 449 0 l 1
 144 504 l 1
 144 41 l 1
 219 41 l 2
 237 41 246 34 246 21 c 0
 246 7 236 0 219 0 c 2
 69 0 l 2
 51 0 42 7 42 21 c 0
 42 34 51 41 69 41 c 2
 103 41 l 1
 103 522 l 1
 49 522 l 2
 31 522 22 529 22 543 c 0
 22 556 31 563 49 563 c 2
 155 563 l 1
 460 59 l 1
 460 522 l 1
 386 522 l 2
 367 522 358 529 358 543 c 0
 358 556 367 563 386 563 c 2
 535 563 l 2
 553 563 562 556 562 543 c 0
 562 529 553 522 535 522 c 2
 501 522 l 1
 501 0 l 1
433 753 m 0
 443 753 453 744 453 733 c 0
 453 725 449 719 431 702 c 0
 405 676 385 666 362 666 c 0
 340 666 321 673 281 697 c 0
 261 710 250 714 238 714 c 0
 218 714 209 708 180 677 c 0
 176 672 169 669 163 669 c 0
 152 669 143 677 143 688 c 0
 143 696 149 705 162 718 c 0
 191 745 212 755 237 755 c 0
 257 755 269 751 301 732 c 1
 339 711 347 707 360 707 c 0
 377 707 387 714 417 745 c 0
 423 751 427 753 433 753 c 0
EndSplineSet
EndChar

StartChar: Ograve
Encoding: 210 210 155
Width: 600
Flags: W
HStem: -16 41<219.486 379.916> 535 41<219.275 381.323>
VStem: 51 41<173.126 389.677> 508 41<174.968 388.646>
DStem2: 338 680 311 649 0.751759 -0.659438<-171.65 10.5378>
LayerCount: 2
Fore
SplineSet
300 576 m 0
 441 576 549 446 549 276 c 0
 549 115 437 -16 300 -16 c 0
 161 -16 51 115 51 280 c 0
 51 445 161 576 300 576 c 0
300 535 m 0
 185 535 92 420 92 280 c 0
 92 140 186 25 300 25 c 0
 413 25 508 140 508 277 c 0
 508 421 416 535 300 535 c 0
224 780 m 2
 338 680 l 1
 345 672 l 2
 350 667 350 667 350 661 c 0
 350 649 341 640 329 640 c 0
 324 640 318 643 311 649 c 2
 197 749 l 2
 188 757 185 761 185 769 c 0
 185 780 194 789 205 789 c 0
 211 789 216 786 224 780 c 2
EndSplineSet
EndChar

StartChar: Oacute
Encoding: 211 211 156
Width: 600
Flags: W
HStem: -16 41<219.486 379.916> 535 41<219.275 381.323>
VStem: 51 41<173.126 389.677> 508 41<174.968 388.646>
DStem2: 263 680 290 649 0.751759 0.659438<-20.1521 171.651>
LayerCount: 2
Fore
SplineSet
300 576 m 0
 441 576 549 446 549 276 c 0
 549 115 437 -16 300 -16 c 0
 161 -16 51 115 51 280 c 0
 51 445 161 576 300 576 c 0
300 535 m 0
 185 535 92 420 92 280 c 0
 92 140 186 25 300 25 c 0
 413 25 508 140 508 277 c 0
 508 421 416 535 300 535 c 0
404 749 m 2
 290 649 l 2
 281 642 277 640 271 640 c 0
 260 640 251 649 251 661 c 0
 251 668 253 671 263 680 c 2
 377 780 l 2
 386 787 390 789 396 789 c 0
 407 789 416 780 416 768 c 0
 416 761 413 757 404 749 c 2
EndSplineSet
EndChar

StartChar: Ocircumflex
Encoding: 212 212 157
Width: 600
Flags: W
HStem: -16 41<219.486 379.916> 535 41<219.275 381.323>
VStem: 51 41<173.126 389.677> 508 41<174.968 388.646>
DStem2: 168 680 193 648 0.771086 0.63673<-19.8889 137.44> 300 789 300 736 0.773957 -0.633238<33.5616 190.914>
LayerCount: 2
Fore
SplineSet
300 576 m 0
 441 576 549 446 549 276 c 0
 549 115 437 -16 300 -16 c 0
 161 -16 51 115 51 280 c 0
 51 445 161 576 300 576 c 0
300 535 m 0
 185 535 92 420 92 280 c 0
 92 140 186 25 300 25 c 0
 413 25 508 140 508 277 c 0
 508 421 416 535 300 535 c 0
300 789 m 1
 432 681 l 2
 443 672 445 668 445 660 c 0
 445 649 436 640 425 640 c 0
 420 640 414 643 407 648 c 2
 300 736 l 1
 193 648 l 2
 186 643 180 640 175 640 c 0
 164 640 155 649 155 660 c 0
 155 668 158 673 168 680 c 2
 300 789 l 1
EndSplineSet
EndChar

StartChar: Otilde
Encoding: 213 213 158
Width: 600
Flags: W
HStem: -16 41<219.486 379.916> 535 41<219.275 381.323> 666 41<317.837 406.685> 714 41<204.479 294.31>
VStem: 51 41<173.126 389.677> 508 41<174.968 388.646>
LayerCount: 2
Fore
SplineSet
300 576 m 0
 441 576 549 446 549 276 c 0
 549 115 437 -16 300 -16 c 0
 161 -16 51 115 51 280 c 0
 51 445 161 576 300 576 c 0
300 535 m 0
 185 535 92 420 92 280 c 0
 92 140 186 25 300 25 c 0
 413 25 508 140 508 277 c 0
 508 421 416 535 300 535 c 0
441 753 m 0
 451 753 461 744 461 733 c 0
 461 725 457 719 439 702 c 0
 413 676 393 666 370 666 c 0
 348 666 329 673 289 697 c 0
 269 710 258 714 246 714 c 0
 226 714 217 708 188 677 c 0
 184 672 177 669 171 669 c 0
 160 669 151 677 151 688 c 0
 151 696 157 705 170 718 c 0
 199 745 220 755 245 755 c 0
 265 755 277 751 309 732 c 1
 347 711 355 707 368 707 c 0
 385 707 395 714 425 745 c 0
 431 751 435 753 441 753 c 0
EndSplineSet
EndChar

StartChar: Odieresis
Encoding: 214 214 159
Width: 600
Flags: W
HStem: -16 41<219.486 379.916> 535 41<219.275 381.323> 661 100<148.396 229.604 369.396 450.604>
VStem: 51 41<173.126 389.677> 139 100<670.396 751.544> 360 100<670.396 751.544> 508 41<174.968 388.646>
LayerCount: 2
Fore
SplineSet
300 576 m 0
 441 576 549 446 549 276 c 0
 549 115 437 -16 300 -16 c 0
 161 -16 51 115 51 280 c 0
 51 445 161 576 300 576 c 0
300 535 m 0
 185 535 92 420 92 280 c 0
 92 140 186 25 300 25 c 0
 413 25 508 140 508 277 c 0
 508 421 416 535 300 535 c 0
189 761 m 0
 217 761 239 738 239 710 c 0
 239 684 216 661 189 661 c 0
 162 661 139 684 139 711 c 0
 139 738 162 761 189 761 c 0
410 761 m 0
 438 761 460 738 460 710 c 0
 460 684 437 661 410 661 c 0
 383 661 360 684 360 711 c 0
 360 738 383 761 410 761 c 0
EndSplineSet
EndChar

StartChar: multiply
Encoding: 215 215 160
Width: 600
Flags: W
DStem2: 157 453 128 424 0.707107 -0.707107<-20.3062 201.525 242.538 464.37> 128 139 158 110 0.707107 0.707107<-19.5991 202.233 243.245 465.076>
LayerCount: 2
Fore
SplineSet
300 311 m 1
 442 453 l 2
 451 462 455 464 461 464 c 0
 472 464 482 455 482 443 c 0
 482 437 479 432 471 424 c 2
 329 282 l 1
 471 139 l 2
 480 131 482 127 482 120 c 0
 482 109 473 100 461 100 c 0
 455 100 450 102 442 110 c 2
 300 253 l 1
 158 110 l 2
 150 103 145 100 139 100 c 0
 127 100 118 109 118 120 c 0
 118 127 121 132 128 139 c 2
 271 282 l 1
 128 424 l 2
 121 432 118 437 118 443 c 0
 118 455 127 464 139 464 c 0
 145 464 149 461 157 453 c 2
 300 311 l 1
EndSplineSet
EndChar

StartChar: Oslash
Encoding: 216 216 161
Width: 600
Flags: W
HStem: -16 41<219.651 380.514> 535 41<219.275 380.122> 585 20G<538.5 547>
VStem: 51 41<172.33 389.883> 508 41<173.126 389.08>
DStem2: 48 -9 76 -31 0.620236 0.784416<-17.3655 104.747 154.457 612.318 661.408 784.889>
LayerCount: 2
Fore
SplineSet
141 51 m 1
 76 -31 l 2
 69 -40 64 -43 58 -43 c 0
 48 -43 40 -35 40 -25 c 0
 40 -21 41 -18 48 -9 c 2
 117 78 l 1
 72 138 51 204 51 280 c 0
 51 446 161 576 300 576 c 0
 360 576 409 555 458 510 c 1
 524 593 l 2
 531 602 535 605 542 605 c 0
 552 605 560 597 560 587 c 0
 560 582 558 579 552 571 c 2
 482 483 l 1
 525 430 549 356 549 280 c 0
 549 115 439 -16 300 -16 c 0
 240 -16 186 7 141 51 c 1
144 112 m 1
 432 476 l 1
 392 516 349 535 300 535 c 0
 185 535 92 420 92 280 c 0
 92 218 109 164 144 112 c 1
456 449 m 1
 167 84 l 1
 206 45 251 25 300 25 c 0
 414 25 508 140 508 280 c 0
 508 343 490 400 456 449 c 1
EndSplineSet
EndChar

StartChar: Ugrave
Encoding: 217 217 162
Width: 600
Flags: W
HStem: -16 41<222.576 376.992> 522 41<40.0066 101 142 242.993 357.007 458 499 559.993>
VStem: 101 41<108.01 522> 458 41<108.01 522>
DStem2: 341 680 314 649 0.751759 -0.659438<-171.65 10.5378>
LayerCount: 2
Fore
SplineSet
499 522 m 1
 499 185 l 2
 499 71 412 -16 300 -16 c 0
 187 -16 101 71 101 185 c 2
 101 522 l 1
 67 522 l 2
 49 522 40 529 40 543 c 0
 40 557 49 563 67 563 c 2
 216 563 l 2
 234 563 243 556 243 543 c 0
 243 529 234 522 216 522 c 2
 142 522 l 1
 142 185 l 2
 142 95 211 25 300 25 c 0
 388 25 458 95 458 185 c 2
 458 522 l 1
 384 522 l 2
 366 522 357 529 357 543 c 0
 357 557 365 563 384 563 c 2
 533 563 l 2
 552 563 560 557 560 543 c 0
 560 529 551 522 533 522 c 2
 499 522 l 1
227 780 m 2
 341 680 l 1
 348 672 l 2
 353 667 353 667 353 661 c 0
 353 649 344 640 332 640 c 0
 327 640 321 643 314 649 c 2
 200 749 l 2
 191 757 188 761 188 769 c 0
 188 780 197 789 208 789 c 0
 214 789 219 786 227 780 c 2
EndSplineSet
EndChar

StartChar: Uacute
Encoding: 218 218 163
Width: 600
Flags: W
HStem: -16 41<222.576 376.992> 522 41<40.0066 101 142 242.993 357.007 458 499 559.993>
VStem: 101 41<108.01 522> 458 41<108.01 522>
DStem2: 260 680 287 649 0.751759 0.659438<-20.1521 171.651>
LayerCount: 2
Fore
SplineSet
499 522 m 1
 499 185 l 2
 499 71 412 -16 300 -16 c 0
 187 -16 101 71 101 185 c 2
 101 522 l 1
 67 522 l 2
 49 522 40 529 40 543 c 0
 40 557 49 563 67 563 c 2
 216 563 l 2
 234 563 243 556 243 543 c 0
 243 529 234 522 216 522 c 2
 142 522 l 1
 142 185 l 2
 142 95 211 25 300 25 c 0
 388 25 458 95 458 185 c 2
 458 522 l 1
 384 522 l 2
 366 522 357 529 357 543 c 0
 357 557 365 563 384 563 c 2
 533 563 l 2
 552 563 560 557 560 543 c 0
 560 529 551 522 533 522 c 2
 499 522 l 1
401 749 m 2
 287 649 l 2
 278 642 274 640 268 640 c 0
 257 640 248 649 248 661 c 0
 248 668 250 671 260 680 c 2
 374 780 l 2
 383 787 387 789 393 789 c 0
 404 789 413 780 413 768 c 0
 413 761 410 757 401 749 c 2
EndSplineSet
EndChar

StartChar: Ucircumflex
Encoding: 219 219 164
Width: 600
Flags: W
HStem: -16 41<222.576 376.992> 522 41<40.0066 101 142 242.993 357.007 458 499 559.993>
VStem: 101 41<108.01 522> 458 41<108.01 522>
DStem2: 168 680 193 648 0.771086 0.63673<-19.8889 137.44> 300 789 300 736 0.773957 -0.633238<33.5616 190.914>
LayerCount: 2
Fore
SplineSet
499 522 m 1
 499 185 l 2
 499 71 412 -16 300 -16 c 0
 187 -16 101 71 101 185 c 2
 101 522 l 1
 67 522 l 2
 49 522 40 529 40 543 c 0
 40 557 49 563 67 563 c 2
 216 563 l 2
 234 563 243 556 243 543 c 0
 243 529 234 522 216 522 c 2
 142 522 l 1
 142 185 l 2
 142 95 211 25 300 25 c 0
 388 25 458 95 458 185 c 2
 458 522 l 1
 384 522 l 2
 366 522 357 529 357 543 c 0
 357 557 365 563 384 563 c 2
 533 563 l 2
 552 563 560 557 560 543 c 0
 560 529 551 522 533 522 c 2
 499 522 l 1
300 789 m 1
 432 681 l 2
 443 672 445 668 445 660 c 0
 445 649 436 640 425 640 c 0
 420 640 414 643 407 648 c 2
 300 736 l 1
 193 648 l 2
 186 643 180 640 175 640 c 0
 164 640 155 649 155 660 c 0
 155 668 158 673 168 680 c 2
 300 789 l 1
EndSplineSet
EndChar

StartChar: Udieresis
Encoding: 220 220 165
Width: 600
Flags: W
HStem: -16 41<222.576 376.992> 522 41<40.0066 101 142 242.993 357.007 458 499 559.993> 661 100<148.396 229.604 369.396 450.604>
VStem: 101 41<108.01 522> 139 100<670.396 751.544> 360 100<670.396 751.544> 458 41<108.01 522>
LayerCount: 2
Fore
SplineSet
499 522 m 1xf2
 499 185 l 2
 499 71 412 -16 300 -16 c 0
 187 -16 101 71 101 185 c 2
 101 522 l 1
 67 522 l 2
 49 522 40 529 40 543 c 0
 40 557 49 563 67 563 c 2
 216 563 l 2
 234 563 243 556 243 543 c 0
 243 529 234 522 216 522 c 2
 142 522 l 1
 142 185 l 2
 142 95 211 25 300 25 c 0
 388 25 458 95 458 185 c 2
 458 522 l 1
 384 522 l 2
 366 522 357 529 357 543 c 0
 357 557 365 563 384 563 c 2
 533 563 l 2
 552 563 560 557 560 543 c 0
 560 529 551 522 533 522 c 2
 499 522 l 1xf2
189 761 m 0
 217 761 239 738 239 710 c 0
 239 684 216 661 189 661 c 0
 162 661 139 684 139 711 c 0xe8
 139 738 162 761 189 761 c 0
410 761 m 0
 438 761 460 738 460 710 c 0
 460 684 437 661 410 661 c 0
 383 661 360 684 360 711 c 0xe4
 360 738 383 761 410 761 c 0
EndSplineSet
EndChar

StartChar: Yacute
Encoding: 221 221 166
Width: 600
Flags: W
HStem: 0 41<149.007 281 322 453.993> 522 41<51.0066 102 151 215.993 384.007 452 498 548.992>
VStem: 281 41<41 254>
DStem2: 151 522 102 522 0.555416 -0.831573<0 273.19> 260 680 287 649 0.751759 0.659438<-20.1521 171.651> 303 295 322 254 0.548929 0.835869<0 271.533>
LayerCount: 2
Fore
SplineSet
322 254 m 1
 322 41 l 1
 427 41 l 2
 445 41 454 34 454 21 c 0
 454 7 445 0 427 0 c 2
 176 0 l 2
 158 0 149 7 149 21 c 0
 149 34 158 41 176 41 c 2
 281 41 l 1
 281 254 l 1
 102 522 l 1
 78 522 l 2
 60 522 51 529 51 543 c 0
 51 556 60 563 78 563 c 2
 189 563 l 2
 207 563 216 556 216 543 c 0
 216 529 207 522 189 522 c 2
 151 522 l 1
 303 295 l 1
 452 522 l 1
 412 522 l 2
 393 522 384 529 384 543 c 0
 384 556 393 563 412 563 c 2
 522 563 l 2
 539 563 549 555 549 543 c 0
 549 530 538 522 522 522 c 2
 498 522 l 1
 322 254 l 1
401 749 m 2
 287 649 l 2
 278 642 274 640 268 640 c 0
 257 640 248 649 248 661 c 0
 248 668 250 671 260 680 c 2
 374 780 l 2
 383 787 387 789 393 789 c 0
 404 789 413 780 413 768 c 0
 413 761 410 757 401 749 c 2
EndSplineSet
EndChar

StartChar: Thorn
Encoding: 222 222 167
Width: 600
Flags: W
HStem: 0 41<43.0066 124 165 330.993> 131 41<165 384.34> 422 41<165 391.38> 522 41<43.0066 124 165 330.993>
VStem: 124 41<41 131 172 422 463 522> 458 41<239.237 359.39>
LayerCount: 2
Fore
SplineSet
165 131 m 1
 165 41 l 1
 303 41 l 2
 322 41 331 34 331 21 c 0
 331 7 321 0 303 0 c 2
 70 0 l 2
 52 0 43 7 43 21 c 0
 43 34 52 41 70 41 c 2
 124 41 l 1
 124 522 l 1
 70 522 l 2
 52 522 43 529 43 543 c 0
 43 556 52 563 70 563 c 2
 303 563 l 2
 322 563 331 556 331 543 c 0
 331 529 322 522 303 522 c 2
 165 522 l 1
 165 463 l 1
 310 463 l 2
 416 463 499 391 499 298 c 0
 499 205 410 131 296 131 c 2
 165 131 l 1
165 172 m 1
 299 172 l 2
 386 172 458 229 458 298 c 0
 458 366 393 422 314 422 c 2
 165 422 l 1
 165 172 l 1
EndSplineSet
EndChar

StartChar: germandbls
Encoding: 223 223 168
Width: 600
Flags: W
HStem: -16 41<320.063 412.69> 0 41<43.0066 124 165 206.993> 334 41<247.007 334.397> 563 41<201.602 326.515>
VStem: 124 41<41 528.462> 259 41<44.6182 123.993> 371 41<409.598 518.628> 458 41<77.9219 240.316>
LayerCount: 2
Fore
SplineSet
124 41 m 1x7f
 124 476 l 2
 124 547 188 604 266 604 c 0
 347 604 412 539 412 458 c 0
 412 417 394 386 354 359 c 1
 450 320 499 253 499 161 c 0
 499 60 441 -16 365 -16 c 0
 305 -16 259 35 259 101 c 0
 259 115 267 124 279 124 c 0
 292 124 299 116 300 100 c 0
 303 54 327 25 365 25 c 0xbf
 417 25 458 85 458 162 c 0
 458 212 436 258 397 290 c 0
 365 316 317 334 279 334 c 2
 274 334 l 2
 256 334 247 341 247 355 c 0
 247 367 256 375 270 375 c 2
 275 375 l 2
 326 375 371 415 371 459 c 0
 371 516 324 563 266 563 c 0
 210 563 165 525 165 476 c 2
 165 41 l 1
 180 41 l 2
 198 41 207 34 207 21 c 0
 207 7 198 0 180 0 c 2
 70 0 l 2
 52 0 43 7 43 21 c 0
 43 34 52 41 70 41 c 2
 124 41 l 1x7f
EndSplineSet
EndChar

StartChar: agrave
Encoding: 224 224 169
Width: 600
Flags: W
HStem: -16 41<150.274 324.215> 0 41<460 540.993> 217 41<182.204 415.923> 390 41<187.177 380.833>
VStem: 72 41<59.5967 162.396> 419 41<41 67 95.2972 206.36 237 354.366>
DStem2: 327 530 300 499 0.751759 -0.659438<-171.65 10.5378>
LayerCount: 2
Fore
SplineSet
419 0 m 1x7c
 419 67 l 1
 358 10 298 -16 228 -16 c 0xbc
 135 -16 72 36 72 112 c 0
 72 199 158 258 283 258 c 0
 329 258 360 253 419 237 c 1
 419 308 l 2
 419 357 369 390 296 390 c 0
 260 390 232 384 154 360 c 0
 150 359 146 358 144 358 c 0
 134 358 125 367 125 378 c 0
 125 388 131 395 142 399 c 0
 197 418 262 431 299 431 c 0
 392 431 460 379 460 308 c 2
 460 41 l 1
 514 41 l 2
 532 41 541 34 541 21 c 0
 541 7 532 0 514 0 c 2
 419 0 l 1x7c
419 112 m 1
 419 202 l 1
 383 211 335 217 291 217 c 0
 185 217 113 174 113 111 c 0
 113 59 158 25 227 25 c 0
 298 25 352 49 419 112 c 1
213 630 m 2
 327 530 l 1
 334 522 l 2
 339 517 339 517 339 511 c 0
 339 499 330 490 318 490 c 0
 313 490 307 493 300 499 c 2
 186 599 l 2
 177 607 174 611 174 619 c 0
 174 630 183 639 194 639 c 0
 200 639 205 636 213 630 c 2
EndSplineSet
EndChar

StartChar: aacute
Encoding: 225 225 170
Width: 600
Flags: W
HStem: -16 41<150.274 324.215> 0 41<460 540.993> 217 41<182.204 415.923> 390 41<187.177 380.833>
VStem: 72 41<59.5967 162.396> 419 41<41 67 95.2972 206.36 237 354.366>
DStem2: 246 530 273 499 0.751759 0.659438<-20.1521 171.651>
LayerCount: 2
Fore
SplineSet
419 0 m 1x7c
 419 67 l 1
 358 10 298 -16 228 -16 c 0xbc
 135 -16 72 36 72 112 c 0
 72 199 158 258 283 258 c 0
 329 258 360 253 419 237 c 1
 419 308 l 2
 419 357 369 390 296 390 c 0
 260 390 232 384 154 360 c 0
 150 359 146 358 144 358 c 0
 134 358 125 367 125 378 c 0
 125 388 131 395 142 399 c 0
 197 418 262 431 299 431 c 0
 392 431 460 379 460 308 c 2
 460 41 l 1
 514 41 l 2
 532 41 541 34 541 21 c 0
 541 7 532 0 514 0 c 2
 419 0 l 1x7c
419 112 m 1
 419 202 l 1
 383 211 335 217 291 217 c 0
 185 217 113 174 113 111 c 0
 113 59 158 25 227 25 c 0
 298 25 352 49 419 112 c 1
387 599 m 2
 273 499 l 2
 264 492 260 490 254 490 c 0
 243 490 234 499 234 511 c 0
 234 518 236 521 246 530 c 2
 360 630 l 2
 369 637 373 639 379 639 c 0
 390 639 399 630 399 618 c 0
 399 611 396 607 387 599 c 2
EndSplineSet
EndChar

StartChar: acircumflex
Encoding: 226 226 171
Width: 600
Flags: W
HStem: -16 41<150.274 324.215> 0 41<460 540.993> 217 41<182.204 415.923> 390 41<187.177 380.833>
VStem: 72 41<59.5967 162.396> 419 41<41 67 95.2972 206.36 237 354.366>
DStem2: 158 530 183 498 0.771086 0.63673<-19.8889 137.44> 290 639 290 586 0.773957 -0.633238<33.5616 190.914>
LayerCount: 2
Fore
SplineSet
419 0 m 1x7c
 419 67 l 1
 358 10 298 -16 228 -16 c 0xbc
 135 -16 72 36 72 112 c 0
 72 199 158 258 283 258 c 0
 329 258 360 253 419 237 c 1
 419 308 l 2
 419 357 369 390 296 390 c 0
 260 390 232 384 154 360 c 0
 150 359 146 358 144 358 c 0
 134 358 125 367 125 378 c 0
 125 388 131 395 142 399 c 0
 197 418 262 431 299 431 c 0
 392 431 460 379 460 308 c 2
 460 41 l 1
 514 41 l 2
 532 41 541 34 541 21 c 0
 541 7 532 0 514 0 c 2
 419 0 l 1x7c
419 112 m 1
 419 202 l 1
 383 211 335 217 291 217 c 0
 185 217 113 174 113 111 c 0
 113 59 158 25 227 25 c 0
 298 25 352 49 419 112 c 1
290 639 m 1
 422 531 l 2
 433 522 435 518 435 510 c 0
 435 499 426 490 415 490 c 0
 410 490 404 493 397 498 c 2
 290 586 l 1
 183 498 l 2
 176 493 170 490 165 490 c 0
 154 490 145 499 145 510 c 0
 145 518 148 523 158 530 c 2
 290 639 l 1
EndSplineSet
EndChar

StartChar: atilde
Encoding: 227 227 172
Width: 600
Flags: W
HStem: -16 41<150.274 324.215> 0 41<460 540.993> 217 41<182.204 415.923> 390 41<187.177 380.833> 516 41<301.837 390.685> 564 41<188.479 278.31>
VStem: 72 41<59.5967 162.396> 419 41<41 67 95.2972 206.36 237 354.366>
LayerCount: 2
Fore
SplineSet
419 0 m 1x7f
 419 67 l 1
 358 10 298 -16 228 -16 c 0xbf
 135 -16 72 36 72 112 c 0
 72 199 158 258 283 258 c 0
 329 258 360 253 419 237 c 1
 419 308 l 2
 419 357 369 390 296 390 c 0
 260 390 232 384 154 360 c 0
 150 359 146 358 144 358 c 0
 134 358 125 367 125 378 c 0
 125 388 131 395 142 399 c 0
 197 418 262 431 299 431 c 0
 392 431 460 379 460 308 c 2
 460 41 l 1
 514 41 l 2
 532 41 541 34 541 21 c 0
 541 7 532 0 514 0 c 2
 419 0 l 1x7f
419 112 m 1
 419 202 l 1
 383 211 335 217 291 217 c 0
 185 217 113 174 113 111 c 0
 113 59 158 25 227 25 c 0
 298 25 352 49 419 112 c 1
425 603 m 0
 435 603 445 594 445 583 c 0
 445 575 441 569 423 552 c 0
 397 526 377 516 354 516 c 0
 332 516 313 523 273 547 c 0
 253 560 242 564 230 564 c 0
 210 564 201 558 172 527 c 0
 168 522 161 519 155 519 c 0
 144 519 135 527 135 538 c 0
 135 546 141 555 154 568 c 0
 183 595 204 605 229 605 c 0
 249 605 261 601 293 582 c 1
 331 561 339 557 352 557 c 0
 369 557 379 564 409 595 c 0
 415 601 419 603 425 603 c 0
EndSplineSet
EndChar

StartChar: adieresis
Encoding: 228 228 173
Width: 600
Flags: W
HStem: -16 41<150.274 324.215> 0 41<460 540.993> 217 41<182.204 415.923> 390 41<187.177 380.833> 511 100<138.396 219.604 359.396 440.604>
VStem: 72 41<59.5967 162.396> 129 100<520.396 601.544> 350 100<520.396 601.544> 419 41<41 67 95.2972 206.36 237 354.366>
LayerCount: 2
Fore
SplineSet
419 0 m 1x7e80
 419 67 l 1
 358 10 298 -16 228 -16 c 0xbe80
 135 -16 72 36 72 112 c 0
 72 199 158 258 283 258 c 0
 329 258 360 253 419 237 c 1
 419 308 l 2
 419 357 369 390 296 390 c 0
 260 390 232 384 154 360 c 0
 150 359 146 358 144 358 c 0
 134 358 125 367 125 378 c 0
 125 388 131 395 142 399 c 0
 197 418 262 431 299 431 c 0
 392 431 460 379 460 308 c 2
 460 41 l 1
 514 41 l 2
 532 41 541 34 541 21 c 0
 541 7 532 0 514 0 c 2
 419 0 l 1x7e80
419 112 m 1
 419 202 l 1
 383 211 335 217 291 217 c 0
 185 217 113 174 113 111 c 0
 113 59 158 25 227 25 c 0
 298 25 352 49 419 112 c 1
179 611 m 0
 207 611 229 588 229 560 c 0
 229 534 206 511 179 511 c 0
 152 511 129 534 129 561 c 0
 129 588 152 611 179 611 c 0
400 611 m 0
 428 611 450 588 450 560 c 0
 450 534 427 511 400 511 c 0
 373 511 350 534 350 561 c 0x3f
 350 588 373 611 400 611 c 0
EndSplineSet
EndChar

StartChar: aring
Encoding: 229 229 174
Width: 600
Flags: W
HStem: -16 41<150.274 324.215> 0 41<460 540.993> 217 41<182.204 415.923> 390 41<187.177 380.833> 480 33<249.248 330.752> 628 33<249.248 330.97>
VStem: 72 41<59.5967 162.396> 197 33<531.838 609.423> 350 33<532.367 609.195> 419 41<41 67 95.2972 206.36 237 354.366>
LayerCount: 2
Fore
SplineSet
419 0 m 1x7fc0
 419 67 l 1
 358 10 298 -16 228 -16 c 0xbfc0
 135 -16 72 36 72 112 c 0
 72 199 158 258 283 258 c 0
 329 258 360 253 419 237 c 1
 419 308 l 2
 419 357 369 390 296 390 c 0
 260 390 232 384 154 360 c 0
 150 359 146 358 144 358 c 0
 134 358 125 367 125 378 c 0
 125 388 131 395 142 399 c 0
 197 418 262 431 299 431 c 0
 392 431 460 379 460 308 c 2
 460 41 l 1
 514 41 l 2
 532 41 541 34 541 21 c 0
 541 7 532 0 514 0 c 2
 419 0 l 1x7fc0
419 112 m 1
 419 202 l 1
 383 211 335 217 291 217 c 0
 185 217 113 174 113 111 c 0
 113 59 158 25 227 25 c 0
 298 25 352 49 419 112 c 1
290 661 m 0
 342 661 383 621 383 569 c 0
 383 521 341 480 290 480 c 0
 239 480 197 521 197 571 c 0
 197 620 239 661 290 661 c 0
290 628 m 0
 257 628 230 602 230 571 c 0
 230 539 257 513 290 513 c 0
 323 513 350 539 350 570 c 0
 350 602 323 628 290 628 c 0
EndSplineSet
EndChar

StartChar: ae
Encoding: 230 230 175
Width: 600
Flags: W
HStem: -16 41<96.7959 216.794 388.571 500.118> 0 21G<293.5 306.5> 199 41<202.082 280 320 535> 216 41<110.77 278.687> 390 41<116.036 248.7 373.698 485.156>
VStem: 12 45<60.2395 175.176> 280 40<0.0065918 52 245 319.102>
LayerCount: 2
Fore
SplineSet
12 132 m 0x8e
 12 215 108 257 195 257 c 0x9e
 223 257 251 253 280 245 c 1
 280 305 l 2
 280 352 241 390 192 390 c 0
 165 390 133 381 108 365 c 0
 101 361 94 358 90 358 c 0
 81 358 71 369 71 378 c 0
 71 389 79 397 100 406 c 0
 138 423 169 431 199 431 c 0
 248 431 293 398 312 347 c 1
 336 399 382 431 430 431 c 0
 533 431 574 332 577 199 c 1
 319 199 l 1
 326 97 379 25 446 25 c 0
 475 25 497 38 545 82 c 0
 549 85 554 87 558 87 c 0
 569 87 578 77 578 67 c 0
 578 57 570 48 547 29 c 1
 506 -2 476 -16 444 -16 c 0xae
 398 -16 352 12 320 61 c 1
 320 27 l 2
 320 9 313 0 300 0 c 0x4e
 287 0 280 9 280 27 c 2
 280 52 l 1
 241 5 204 -16 160 -16 c 0
 75 -16 12 47 12 132 c 0x8e
280 110 m 1
 280 203 l 1
 253 211 224 216 201 216 c 0
 158 216 100 197 78 176 c 0
 64 162 57 145 57 121 c 0
 57 65 101 25 162 25 c 0
 199 25 233 50 280 110 c 1
320 240 m 1x2e
 535 240 l 1
 529 288 523 313 512 335 c 0
 495 370 464 390 429 390 c 0
 369 390 333 340 320 240 c 1x2e
EndSplineSet
EndChar

StartChar: ccedilla
Encoding: 231 231 176
Width: 600
Flags: W
HStem: -173 38<242.432 340.335> -81 34<315 340.936> 390 41<222.326 405.375> 397 20G<484 497.5>
VStem: 84 41<120.329 293.912> 277 38<-47 -14.7579> 343 37<-129.986 -84.7789> 470 41<271.007 338.484 376 416.993>
LayerCount: 2
Fore
SplineSet
301 -173 m 0xef
 278 -173 213 -160 213 -134 c 0
 213 -123 222 -114 233 -114 c 0
 237 -114 240 -115 248 -119 c 0
 271 -131 284 -135 299 -135 c 0
 325 -135 343 -123 343 -106 c 0
 343 -89 328 -81 298 -81 c 2
 277 -81 l 1
 277 -14 l 1
 228 -7 202 3 172 25 c 0
 116 66 84 131 84 204 c 0
 84 336 180 431 314 431 c 0xef
 376 431 429 412 470 376 c 1
 470 389 l 2
 470 408 477 417 491 417 c 0xdf
 504 417 511 408 511 389 c 2
 511 298 l 2
 511 280 504 271 491 271 c 0
 478 271 471 278 470 295 c 0
 465 348 395 390 311 390 c 0
 201 390 125 315 125 205 c 0
 125 100 202 25 311 25 c 0
 384 25 446 49 498 97 c 0
 506 105 509 107 516 107 c 0
 526 107 535 98 535 88 c 0
 535 71 503 42 459 19 c 0
 416 -3 373 -13 315 -16 c 1
 315 -47 l 1
 356 -48 380 -70 380 -108 c 0
 380 -147 348 -173 301 -173 c 0xef
EndSplineSet
EndChar

StartChar: egrave
Encoding: 232 232 177
Width: 600
Flags: W
HStem: -16 41<214.911 416.047> 199 41<104 478> 390 41<201.192 380.4>
DStem2: 342 530 315 499 0.751759 -0.659438<-171.65 10.5378>
LayerCount: 2
Fore
SplineSet
520 199 m 1
 104 199 l 1
 118 94 198 25 306 25 c 0
 368 25 441 47 481 79 c 0
 488 84 492 86 497 86 c 0
 507 86 516 77 516 66 c 0
 516 31 396 -16 305 -16 c 0
 170 -16 63 87 63 217 c 0
 63 338 163 431 291 431 c 0
 387 431 467 380 503 297 c 0
 517 264 520 245 520 199 c 1
104 240 m 1
 478 240 l 1
 462 331 388 390 291 390 c 0
 194 390 122 332 104 240 c 1
228 630 m 2
 342 530 l 1
 349 522 l 2
 354 517 354 517 354 511 c 0
 354 499 345 490 333 490 c 0
 328 490 322 493 315 499 c 2
 201 599 l 2
 192 607 189 611 189 619 c 0
 189 630 198 639 209 639 c 0
 215 639 220 636 228 630 c 2
EndSplineSet
EndChar

StartChar: eacute
Encoding: 233 233 178
Width: 600
Flags: W
HStem: -16 41<214.911 416.047> 199 41<104 478> 390 41<201.192 380.4>
DStem2: 261 530 288 499 0.751759 0.659438<-20.1521 171.651>
LayerCount: 2
Fore
SplineSet
520 199 m 1
 104 199 l 1
 118 94 198 25 306 25 c 0
 368 25 441 47 481 79 c 0
 488 84 492 86 497 86 c 0
 507 86 516 77 516 66 c 0
 516 31 396 -16 305 -16 c 0
 170 -16 63 87 63 217 c 0
 63 338 163 431 291 431 c 0
 387 431 467 380 503 297 c 0
 517 264 520 245 520 199 c 1
104 240 m 1
 478 240 l 1
 462 331 388 390 291 390 c 0
 194 390 122 332 104 240 c 1
402 599 m 2
 288 499 l 2
 279 492 275 490 269 490 c 0
 258 490 249 499 249 511 c 0
 249 518 251 521 261 530 c 2
 375 630 l 2
 384 637 388 639 394 639 c 0
 405 639 414 630 414 618 c 0
 414 611 411 607 402 599 c 2
EndSplineSet
EndChar

StartChar: ecircumflex
Encoding: 234 234 179
Width: 600
Flags: W
HStem: -16 41<214.911 416.047> 199 41<104 478> 390 41<201.192 380.4>
DStem2: 173 530 198 498 0.771086 0.63673<-19.8889 137.44> 305 639 305 586 0.773957 -0.633238<33.5616 190.914>
LayerCount: 2
Fore
SplineSet
520 199 m 1
 104 199 l 1
 118 94 198 25 306 25 c 0
 368 25 441 47 481 79 c 0
 488 84 492 86 497 86 c 0
 507 86 516 77 516 66 c 0
 516 31 396 -16 305 -16 c 0
 170 -16 63 87 63 217 c 0
 63 338 163 431 291 431 c 0
 387 431 467 380 503 297 c 0
 517 264 520 245 520 199 c 1
104 240 m 1
 478 240 l 1
 462 331 388 390 291 390 c 0
 194 390 122 332 104 240 c 1
305 639 m 1
 437 531 l 2
 448 522 450 518 450 510 c 0
 450 499 441 490 430 490 c 0
 425 490 419 493 412 498 c 2
 305 586 l 1
 198 498 l 2
 191 493 185 490 180 490 c 0
 169 490 160 499 160 510 c 0
 160 518 163 523 173 530 c 2
 305 639 l 1
EndSplineSet
EndChar

StartChar: edieresis
Encoding: 235 235 180
Width: 600
Flags: W
HStem: -16 41<214.911 416.047> 199 41<104 478> 390 41<201.192 380.4> 511 100<153.396 234.604 374.396 455.604>
VStem: 144 100<520.396 601.544> 365 100<520.396 601.544>
LayerCount: 2
Fore
SplineSet
520 199 m 1
 104 199 l 1
 118 94 198 25 306 25 c 0
 368 25 441 47 481 79 c 0
 488 84 492 86 497 86 c 0
 507 86 516 77 516 66 c 0
 516 31 396 -16 305 -16 c 0
 170 -16 63 87 63 217 c 0
 63 338 163 431 291 431 c 0
 387 431 467 380 503 297 c 0
 517 264 520 245 520 199 c 1
104 240 m 1
 478 240 l 1
 462 331 388 390 291 390 c 0
 194 390 122 332 104 240 c 1
194 611 m 0
 222 611 244 588 244 560 c 0
 244 534 221 511 194 511 c 0
 167 511 144 534 144 561 c 0
 144 588 167 611 194 611 c 0
415 611 m 0
 443 611 465 588 465 560 c 0
 465 534 442 511 415 511 c 0
 388 511 365 534 365 561 c 0
 365 588 388 611 415 611 c 0
EndSplineSet
EndChar

StartChar: igrave
Encoding: 236 236 181
Width: 600
Flags: W
HStem: 0 41<92.0066 279 320 507.993> 376 41<134.007 279>
VStem: 279 41<41 376>
DStem2: 331 530 304 499 0.751759 -0.659438<-171.65 10.5378>
LayerCount: 2
Fore
SplineSet
320 417 m 1
 320 41 l 1
 480 41 l 2
 499 41 508 34 508 21 c 0
 508 7 498 0 480 0 c 2
 119 0 l 2
 101 0 92 7 92 21 c 0
 92 34 101 41 119 41 c 2
 279 41 l 1
 279 376 l 1
 161 376 l 2
 143 376 134 383 134 397 c 0
 134 410 143 417 161 417 c 2
 320 417 l 1
217 630 m 2
 331 530 l 1
 338 522 l 2
 343 517 343 517 343 511 c 0
 343 499 334 490 322 490 c 0
 317 490 311 493 304 499 c 2
 190 599 l 2
 181 607 178 611 178 619 c 0
 178 630 187 639 198 639 c 0
 204 639 209 636 217 630 c 2
EndSplineSet
EndChar

StartChar: iacute
Encoding: 237 237 182
Width: 600
Flags: W
HStem: 0 41<92.0066 279 320 507.993> 376 41<134.007 279>
VStem: 279 41<41 376>
DStem2: 250 530 277 499 0.751759 0.659438<-20.1521 171.651>
LayerCount: 2
Fore
SplineSet
320 417 m 1
 320 41 l 1
 480 41 l 2
 499 41 508 34 508 21 c 0
 508 7 498 0 480 0 c 2
 119 0 l 2
 101 0 92 7 92 21 c 0
 92 34 101 41 119 41 c 2
 279 41 l 1
 279 376 l 1
 161 376 l 2
 143 376 134 383 134 397 c 0
 134 410 143 417 161 417 c 2
 320 417 l 1
391 599 m 2
 277 499 l 2
 268 492 264 490 258 490 c 0
 247 490 238 499 238 511 c 0
 238 518 240 521 250 530 c 2
 364 630 l 2
 373 637 377 639 383 639 c 0
 394 639 403 630 403 618 c 0
 403 611 400 607 391 599 c 2
EndSplineSet
EndChar

StartChar: icircumflex
Encoding: 238 238 183
Width: 600
Flags: W
HStem: 0 41<92.0066 279 320 507.993> 376 41<134.007 279>
VStem: 279 41<41 376>
DStem2: 151 530 176 498 0.771086 0.63673<-19.8889 137.44> 283 639 283 586 0.773957 -0.633238<33.5616 190.914>
LayerCount: 2
Fore
SplineSet
320 417 m 1
 320 41 l 1
 480 41 l 2
 499 41 508 34 508 21 c 0
 508 7 498 0 480 0 c 2
 119 0 l 2
 101 0 92 7 92 21 c 0
 92 34 101 41 119 41 c 2
 279 41 l 1
 279 376 l 1
 161 376 l 2
 143 376 134 383 134 397 c 0
 134 410 143 417 161 417 c 2
 320 417 l 1
283 639 m 1
 415 531 l 2
 426 522 428 518 428 510 c 0
 428 499 419 490 408 490 c 0
 403 490 397 493 390 498 c 2
 283 586 l 1
 176 498 l 2
 169 493 163 490 158 490 c 0
 147 490 138 499 138 510 c 0
 138 518 141 523 151 530 c 2
 283 639 l 1
EndSplineSet
EndChar

StartChar: idieresis
Encoding: 239 239 184
Width: 600
Flags: W
HStem: 0 41<92.0066 279 320 507.993> 376 41<134.007 279> 511 100<135.396 216.604 357.396 438.604>
VStem: 126 100<520.396 601.544> 279 41<41 376> 348 100<520.396 601.544>
LayerCount: 2
Fore
SplineSet
320 417 m 1
 320 41 l 1
 480 41 l 2
 499 41 508 34 508 21 c 0
 508 7 498 0 480 0 c 2
 119 0 l 2
 101 0 92 7 92 21 c 0
 92 34 101 41 119 41 c 2
 279 41 l 1
 279 376 l 1
 161 376 l 2
 143 376 134 383 134 397 c 0
 134 410 143 417 161 417 c 2
 320 417 l 1
176 611 m 0
 204 611 226 588 226 560 c 0
 226 534 203 511 176 511 c 0
 149 511 126 534 126 561 c 0
 126 588 149 611 176 611 c 0
398 611 m 0
 426 611 448 588 448 560 c 0
 448 534 425 511 398 511 c 0
 371 511 348 534 348 561 c 0
 348 588 371 611 398 611 c 0
EndSplineSet
EndChar

StartChar: eth
Encoding: 240 240 185
Width: 600
Flags: W
HStem: -17 42<215.752 387.068> 390 40<217.885 386.653> 580 40<159.111 249.484 440 448.104>
VStem: 72 42<124.306 289.886> 488 40<126.912 287.99>
DStem2: 214 521 232 483 0.913631 0.406544<-5.67746 68.942 108.72 111.819 146.902 235.559>
LayerCount: 2
Fore
SplineSet
440 577 m 2
 365 543 l 1
 465 457 528 331 528 221 c 0
 528 148 507 93 462 48 c 0
 419 6 362 -17 300 -17 c 0
 173 -17 72 82 72 207 c 0
 72 330 173 430 298 430 c 0
 353 430 390 416 444 377 c 1
 410 441 365 495 323 525 c 1
 232 483 l 2
 230 482 228 482 225 482 c 0
 215 482 205 493 205 505 c 0
 205 512 208 519 214 521 c 2
 277 549 l 1
 239 565 219 572 179 580 c 0
 165 583 159 588 159 598 c 0
 159 611 168 620 180 620 c 0
 207 620 269 600 328 572 c 1
 423 614 l 1
 430 615 l 1
 440 615 449 606 449 594 c 0
 449 586 445 579 440 577 c 2
301 390 m 0
 197 390 114 309 114 208 c 0
 114 106 197 25 301 25 c 0
 404 25 488 106 488 205 c 0
 488 310 406 390 301 390 c 0
EndSplineSet
EndChar

StartChar: ntilde
Encoding: 241 241 186
Width: 600
Flags: W
HStem: 0 41<53.0066 126 167 238.993 378.007 439 480 540.993> 376 41<65.0066 126> 390 41<243.051 392.668> 516 41<301.837 390.685> 564 41<188.479 278.31>
VStem: 65 102<376.251 416.75> 126 41<41 319.594 348 376> 439 41<41 345.31>
LayerCount: 2
Fore
SplineSet
167 417 m 1xdb
 167 348 l 1
 225 412 261 431 323 431 c 0
 412 431 480 372 480 295 c 2
 480 41 l 1
 514 41 l 2
 532 41 541 34 541 21 c 0
 541 7 532 0 514 0 c 2
 405 0 l 2
 387 0 378 7 378 21 c 0
 378 34 387 41 405 41 c 2
 439 41 l 1
 439 288 l 2
 439 318 426 343 401 364 c 0
 377 384 358 390 319 390 c 0xbb
 281 390 252 380 224 357 c 1
 209 346 199 335 167 294 c 1
 167 41 l 1
 212 41 l 2
 230 41 239 34 239 21 c 0
 239 7 230 0 212 0 c 2
 81 0 l 2
 62 0 53 7 53 21 c 0
 53 34 62 41 81 41 c 2
 126 41 l 1
 126 376 l 1xdb
 92 376 l 2
 74 376 65 383 65 397 c 0xdd
 65 410 74 417 92 417 c 2
 167 417 l 1xdb
425 603 m 0
 435 603 445 594 445 583 c 0
 445 575 441 569 423 552 c 0
 397 526 377 516 354 516 c 0
 332 516 313 523 273 547 c 0
 253 560 242 564 230 564 c 0
 210 564 201 558 172 527 c 0
 168 522 161 519 155 519 c 0
 144 519 135 527 135 538 c 0
 135 546 141 555 154 568 c 0
 183 595 204 605 229 605 c 0
 249 605 261 601 293 582 c 1
 331 561 339 557 352 557 c 0
 369 557 379 564 409 595 c 0
 415 601 419 603 425 603 c 0
EndSplineSet
EndChar

StartChar: ograve
Encoding: 242 242 187
Width: 600
Flags: W
HStem: -16 41<215.252 384.322> 390 41<215.252 385.175>
VStem: 72 41<124.806 290.386> 487 41<125.565 289.617>
DStem2: 344 530 317 499 0.751759 -0.659438<-171.65 10.5378>
LayerCount: 2
Fore
SplineSet
300 431 m 0
 428 431 528 332 528 205 c 0
 528 83 426 -16 300 -16 c 0
 173 -16 72 83 72 208 c 0
 72 331 173 431 300 431 c 0
300 390 m 0
 196 390 113 309 113 208 c 0
 113 106 196 25 300 25 c 0
 403 25 487 106 487 205 c 0
 487 310 405 390 300 390 c 0
230 630 m 2
 344 530 l 1
 351 522 l 2
 356 517 356 517 356 511 c 0
 356 499 347 490 335 490 c 0
 330 490 324 493 317 499 c 2
 203 599 l 2
 194 607 191 611 191 619 c 0
 191 630 200 639 211 639 c 0
 217 639 222 636 230 630 c 2
EndSplineSet
EndChar

StartChar: oacute
Encoding: 243 243 188
Width: 600
Flags: W
HStem: -16 41<215.252 384.322> 390 41<215.252 385.175>
VStem: 72 41<124.806 290.386> 487 41<125.565 289.617>
DStem2: 257 530 284 499 0.751759 0.659438<-20.1521 171.651>
LayerCount: 2
Fore
SplineSet
300 431 m 0
 428 431 528 332 528 205 c 0
 528 83 426 -16 300 -16 c 0
 173 -16 72 83 72 208 c 0
 72 331 173 431 300 431 c 0
300 390 m 0
 196 390 113 309 113 208 c 0
 113 106 196 25 300 25 c 0
 403 25 487 106 487 205 c 0
 487 310 405 390 300 390 c 0
398 599 m 2
 284 499 l 2
 275 492 271 490 265 490 c 0
 254 490 245 499 245 511 c 0
 245 518 247 521 257 530 c 2
 371 630 l 2
 380 637 384 639 390 639 c 0
 401 639 410 630 410 618 c 0
 410 611 407 607 398 599 c 2
EndSplineSet
EndChar

StartChar: ocircumflex
Encoding: 244 244 189
Width: 600
Flags: W
HStem: -16 41<215.252 384.322> 390 41<215.252 385.175>
VStem: 72 41<124.806 290.386> 487 41<125.565 289.617>
DStem2: 168 530 193 498 0.771086 0.63673<-19.8889 137.44> 300 639 300 586 0.773957 -0.633238<33.5616 190.914>
LayerCount: 2
Fore
SplineSet
300 431 m 0
 428 431 528 332 528 205 c 0
 528 83 426 -16 300 -16 c 0
 173 -16 72 83 72 208 c 0
 72 331 173 431 300 431 c 0
300 390 m 0
 196 390 113 309 113 208 c 0
 113 106 196 25 300 25 c 0
 403 25 487 106 487 205 c 0
 487 310 405 390 300 390 c 0
300 639 m 1
 432 531 l 2
 443 522 445 518 445 510 c 0
 445 499 436 490 425 490 c 0
 420 490 414 493 407 498 c 2
 300 586 l 1
 193 498 l 2
 186 493 180 490 175 490 c 0
 164 490 155 499 155 510 c 0
 155 518 158 523 168 530 c 2
 300 639 l 1
EndSplineSet
EndChar

StartChar: otilde
Encoding: 245 245 190
Width: 600
Flags: W
HStem: -16 41<215.252 384.322> 390 41<215.252 385.175> 516 41<317.837 406.685> 564 41<204.479 294.31>
VStem: 72 41<124.806 290.386> 487 41<125.565 289.617>
LayerCount: 2
Fore
SplineSet
300 431 m 0
 428 431 528 332 528 205 c 0
 528 83 426 -16 300 -16 c 0
 173 -16 72 83 72 208 c 0
 72 331 173 431 300 431 c 0
300 390 m 0
 196 390 113 309 113 208 c 0
 113 106 196 25 300 25 c 0
 403 25 487 106 487 205 c 0
 487 310 405 390 300 390 c 0
441 603 m 0
 451 603 461 594 461 583 c 0
 461 575 457 569 439 552 c 0
 413 526 393 516 370 516 c 0
 348 516 329 523 289 547 c 0
 269 560 258 564 246 564 c 0
 226 564 217 558 188 527 c 0
 184 522 177 519 171 519 c 0
 160 519 151 527 151 538 c 0
 151 546 157 555 170 568 c 0
 199 595 220 605 245 605 c 0
 265 605 277 601 309 582 c 1
 347 561 355 557 368 557 c 0
 385 557 395 564 425 595 c 0
 431 601 435 603 441 603 c 0
EndSplineSet
EndChar

StartChar: odieresis
Encoding: 246 246 191
Width: 600
Flags: W
HStem: -16 41<215.252 384.322> 390 41<215.252 385.175> 511 100<148.396 229.604 369.396 450.604>
VStem: 72 41<124.806 290.386> 139 100<520.396 601.544> 360 100<520.396 601.544> 487 41<125.565 289.617>
LayerCount: 2
Fore
SplineSet
300 431 m 0
 428 431 528 332 528 205 c 0
 528 83 426 -16 300 -16 c 0
 173 -16 72 83 72 208 c 0
 72 331 173 431 300 431 c 0
300 390 m 0
 196 390 113 309 113 208 c 0
 113 106 196 25 300 25 c 0
 403 25 487 106 487 205 c 0
 487 310 405 390 300 390 c 0
189 611 m 0
 217 611 239 588 239 560 c 0
 239 534 216 511 189 511 c 0
 162 511 139 534 139 561 c 0
 139 588 162 611 189 611 c 0
410 611 m 0
 438 611 460 588 460 560 c 0
 460 534 437 511 410 511 c 0
 383 511 360 534 360 561 c 0
 360 588 383 611 410 611 c 0
EndSplineSet
EndChar

StartChar: divide
Encoding: 247 247 192
Width: 600
Flags: W
HStem: 25 99<260.058 340.883> 262 40<72.0066 527.993> 441 99<260.058 340.883>
VStem: 251 99<34.1171 115.352 450.117 531.352>
LayerCount: 2
Fore
SplineSet
501 262 m 2
 99 262 l 2
 81 262 72 269 72 282 c 0
 72 295 81 302 99 302 c 2
 501 302 l 2
 519 302 528 295 528 282 c 0
 528 269 519 262 501 262 c 2
300 124 m 0
 328 124 350 102 350 74 c 0
 350 47 327 25 300 25 c 0
 273 25 251 47 251 75 c 0
 251 101 273 124 300 124 c 0
300 540 m 0
 328 540 350 518 350 490 c 0
 350 463 327 441 300 441 c 0
 273 441 251 463 251 491 c 0
 251 517 273 540 300 540 c 0
EndSplineSet
EndChar

StartChar: oslash
Encoding: 248 248 193
Width: 600
Flags: W
HStem: -16 41<214.027 384.748> 390 41<215.252 385.603>
VStem: 72 41<126.299 290.592> 487 41<124.408 290.466>
DStem2: 129 59 88 -33 0.698422 0.715686<-113.029 1.85077 42.0089 409.445 449.959 561.655>
LayerCount: 2
Fore
SplineSet
154 35 m 1
 88 -33 l 2
 80 -41 76 -43 71 -43 c 0
 61 -43 53 -35 53 -25 c 0
 53 -20 55 -16 63 -8 c 2
 129 59 l 1
 92 102 72 153 72 208 c 0
 72 332 173 431 300 431 c 0
 354 431 402 415 444 382 c 1
 508 448 l 2
 517 456 520 458 526 458 c 0
 535 458 543 450 543 440 c 0
 543 435 541 431 533 423 c 2
 469 358 l 1
 508 315 528 264 528 207 c 0
 528 83 427 -16 300 -16 c 0
 245 -16 198 1 154 35 c 1
441 329 m 1
 183 65 l 1
 216 39 256 25 300 25 c 0
 404 25 487 106 487 207 c 0
 487 253 471 294 441 329 c 1
158 89 m 1
 415 352 l 1
 382 377 343 390 300 390 c 0
 196 390 113 309 113 208 c 0
 113 164 129 122 158 89 c 1
EndSplineSet
EndChar

StartChar: ugrave
Encoding: 249 249 194
Width: 600
Flags: W
HStem: -16 41<198.63 346.339> 0 41<480 540.993> 376 41<43.0066 124 337.007 439>
VStem: 124 41<59.3106 376> 439 102<0.251221 40.7501> 439 41<41 66 96.3892 376>
DStem2: 336 530 309 499 0.751759 -0.659438<-171.65 10.5378>
LayerCount: 2
Fore
SplineSet
439 0 m 1x74
 439 66 l 1
 384 12 323 -16 257 -16 c 0
 177 -16 124 36 124 115 c 2
 124 376 l 1
 70 376 l 2
 52 376 43 383 43 397 c 0
 43 410 52 417 70 417 c 2
 165 417 l 1
 165 115 l 2
 165 65 205 25 256 25 c 0xb4
 323 25 384 55 439 115 c 1
 439 376 l 1
 365 376 l 2
 346 376 337 383 337 397 c 0
 337 410 346 417 365 417 c 2
 480 417 l 1
 480 41 l 1x74
 514 41 l 2
 532 41 541 34 541 21 c 0x78
 541 7 532 0 514 0 c 2
 439 0 l 1x74
222 630 m 2
 336 530 l 1
 343 522 l 2
 348 517 348 517 348 511 c 0
 348 499 339 490 327 490 c 0
 322 490 316 493 309 499 c 2
 195 599 l 2
 186 607 183 611 183 619 c 0
 183 630 192 639 203 639 c 0
 209 639 214 636 222 630 c 2
EndSplineSet
EndChar

StartChar: uacute
Encoding: 250 250 195
Width: 600
Flags: W
HStem: -16 41<198.63 346.339> 0 41<480 540.993> 376 41<43.0066 124 337.007 439>
VStem: 124 41<59.3106 376> 439 102<0.251221 40.7501> 439 41<41 66 96.3892 376>
DStem2: 242 530 269 499 0.751759 0.659438<-20.1521 171.651>
LayerCount: 2
Fore
SplineSet
439 0 m 1x74
 439 66 l 1
 384 12 323 -16 257 -16 c 0
 177 -16 124 36 124 115 c 2
 124 376 l 1
 70 376 l 2
 52 376 43 383 43 397 c 0
 43 410 52 417 70 417 c 2
 165 417 l 1
 165 115 l 2
 165 65 205 25 256 25 c 0xb4
 323 25 384 55 439 115 c 1
 439 376 l 1
 365 376 l 2
 346 376 337 383 337 397 c 0
 337 410 346 417 365 417 c 2
 480 417 l 1
 480 41 l 1x74
 514 41 l 2
 532 41 541 34 541 21 c 0x78
 541 7 532 0 514 0 c 2
 439 0 l 1x74
383 599 m 2
 269 499 l 2
 260 492 256 490 250 490 c 0
 239 490 230 499 230 511 c 0
 230 518 232 521 242 530 c 2
 356 630 l 2
 365 637 369 639 375 639 c 0
 386 639 395 630 395 618 c 0
 395 611 392 607 383 599 c 2
EndSplineSet
EndChar

StartChar: ucircumflex
Encoding: 251 251 196
Width: 600
Flags: W
HStem: -16 41<198.63 346.339> 0 41<480 540.993> 376 41<43.0066 124 337.007 439>
VStem: 124 41<59.3106 376> 439 102<0.251221 40.7501> 439 41<41 66 96.3892 376>
DStem2: 160 530 185 498 0.771086 0.63673<-19.8889 137.44> 292 639 292 586 0.773957 -0.633238<33.5616 190.914>
LayerCount: 2
Fore
SplineSet
439 0 m 1x74
 439 66 l 1
 384 12 323 -16 257 -16 c 0
 177 -16 124 36 124 115 c 2
 124 376 l 1
 70 376 l 2
 52 376 43 383 43 397 c 0
 43 410 52 417 70 417 c 2
 165 417 l 1
 165 115 l 2
 165 65 205 25 256 25 c 0xb4
 323 25 384 55 439 115 c 1
 439 376 l 1
 365 376 l 2
 346 376 337 383 337 397 c 0
 337 410 346 417 365 417 c 2
 480 417 l 1
 480 41 l 1x74
 514 41 l 2
 532 41 541 34 541 21 c 0x78
 541 7 532 0 514 0 c 2
 439 0 l 1x74
292 639 m 1
 424 531 l 2
 435 522 437 518 437 510 c 0
 437 499 428 490 417 490 c 0
 412 490 406 493 399 498 c 2
 292 586 l 1
 185 498 l 2
 178 493 172 490 167 490 c 0
 156 490 147 499 147 510 c 0
 147 518 150 523 160 530 c 2
 292 639 l 1
EndSplineSet
EndChar

StartChar: udieresis
Encoding: 252 252 197
Width: 600
Flags: W
HStem: -16 41<198.63 346.339> 0 41<480 540.993> 376 41<43.0066 124 337.007 439> 511 100<140.396 221.604 361.396 442.604>
VStem: 124 41<59.3106 376> 131 100<520.396 601.544> 352 100<520.396 601.544> 439 102<0.251221 40.7501> 439 41<41 66 96.3892 376>
LayerCount: 2
Fore
SplineSet
439 0 m 1x7080
 439 66 l 1
 384 12 323 -16 257 -16 c 0
 177 -16 124 36 124 115 c 2
 124 376 l 1
 70 376 l 2
 52 376 43 383 43 397 c 0
 43 410 52 417 70 417 c 2
 165 417 l 1
 165 115 l 2
 165 65 205 25 256 25 c 0xb880
 323 25 384 55 439 115 c 1
 439 376 l 1
 365 376 l 2
 346 376 337 383 337 397 c 0
 337 410 346 417 365 417 c 2
 480 417 l 1
 480 41 l 1x7880
 514 41 l 2
 532 41 541 34 541 21 c 0x71
 541 7 532 0 514 0 c 2
 439 0 l 1x7080
181 611 m 0
 209 611 231 588 231 560 c 0
 231 534 208 511 181 511 c 0
 154 511 131 534 131 561 c 0x34
 131 588 154 611 181 611 c 0
402 611 m 0
 430 611 452 588 452 560 c 0
 452 534 429 511 402 511 c 0
 375 511 352 534 352 561 c 0x32
 352 588 375 611 402 611 c 0
EndSplineSet
EndChar

StartChar: yacute
Encoding: 253 253 198
Width: 600
Flags: W
HStem: -186 41<57.0066 211 252 343.993> 376 41<51.0066 94 141 219.993 385.007 466 508 548.993>
DStem2: 141 376 94 376 0.447214 -0.894427<0 369.398> 211 -145 252 -145 0.441001 0.897506<18.0811 161.45 211.98 580.056> 292 530 319 499 0.751759 0.659438<-20.1521 171.651>
LayerCount: 2
Fore
SplineSet
282 0 m 1
 94 376 l 1
 78 376 l 2
 60 376 51 383 51 397 c 0
 51 410 60 417 78 417 c 2
 193 417 l 2
 211 417 220 410 220 397 c 0
 220 383 211 376 193 376 c 2
 141 376 l 1
 305 45 l 1
 466 376 l 1
 412 376 l 2
 394 376 385 383 385 397 c 0
 385 410 394 417 412 417 c 2
 522 417 l 2
 540 417 549 410 549 397 c 0
 549 383 540 376 522 376 c 2
 508 376 l 1
 252 -145 l 1
 317 -145 l 2
 335 -145 344 -152 344 -165 c 0
 344 -179 335 -186 317 -186 c 2
 84 -186 l 2
 66 -186 57 -179 57 -165 c 0
 57 -152 66 -145 84 -145 c 2
 211 -145 l 1
 282 0 l 1
433 599 m 2
 319 499 l 2
 310 492 306 490 300 490 c 0
 289 490 280 499 280 511 c 0
 280 518 282 521 292 530 c 2
 406 630 l 2
 415 637 419 639 425 639 c 0
 436 639 445 630 445 618 c 0
 445 611 442 607 433 599 c 2
EndSplineSet
EndChar

StartChar: thorn
Encoding: 254 254 199
Width: 600
Flags: W
HStem: -186 41<22.0066 103 144 268.993> 10 41<237.832 405.358> 390 41<237.682 406.229> 549 41<22.0066 103>
VStem: 103 41<-145 106 143.118 298.23 335 549> 500 41<142.518 298.611>
LayerCount: 2
Fore
SplineSet
144 590 m 1
 144 335 l 1
 197 404 247 431 323 431 c 0
 447 431 541 340 541 221 c 0
 541 102 446 10 323 10 c 0
 246 10 190 40 144 106 c 1
 144 -145 l 1
 242 -145 l 2
 260 -145 269 -152 269 -165 c 0
 269 -179 260 -186 242 -186 c 2
 49 -186 l 2
 31 -186 22 -179 22 -165 c 0
 22 -152 31 -145 49 -145 c 2
 103 -145 l 1
 103 549 l 1
 49 549 l 2
 31 549 22 556 22 570 c 0
 22 583 31 590 49 590 c 2
 144 590 l 1
322 390 m 0
 223 390 144 315 144 221 c 0
 144 126 223 51 322 51 c 0
 420 51 500 126 500 219 c 0
 500 316 423 390 322 390 c 0
EndSplineSet
EndChar

StartChar: ydieresis
Encoding: 255 255 200
Width: 600
Flags: W
HStem: -186 41<57.0066 211 252 343.993> 376 41<51.0066 94 141 219.993 385.007 466 508 548.993> 511 100<148.396 229.604 369.396 450.604>
VStem: 139 100<520.396 601.544> 360 100<520.396 601.544>
DStem2: 141 376 94 376 0.447214 -0.894427<0 369.398> 211 -145 252 -145 0.441001 0.897506<18.0811 161.45 211.98 580.056>
LayerCount: 2
Fore
SplineSet
282 0 m 1
 94 376 l 1
 78 376 l 2
 60 376 51 383 51 397 c 0
 51 410 60 417 78 417 c 2
 193 417 l 2
 211 417 220 410 220 397 c 0
 220 383 211 376 193 376 c 2
 141 376 l 1
 305 45 l 1
 466 376 l 1
 412 376 l 2
 394 376 385 383 385 397 c 0
 385 410 394 417 412 417 c 2
 522 417 l 2
 540 417 549 410 549 397 c 0
 549 383 540 376 522 376 c 2
 508 376 l 1
 252 -145 l 1
 317 -145 l 2
 335 -145 344 -152 344 -165 c 0
 344 -179 335 -186 317 -186 c 2
 84 -186 l 2
 66 -186 57 -179 57 -165 c 0
 57 -152 66 -145 84 -145 c 2
 211 -145 l 1
 282 0 l 1
189 611 m 0
 217 611 239 588 239 560 c 0
 239 534 216 511 189 511 c 0
 162 511 139 534 139 561 c 0
 139 588 162 611 189 611 c 0
410 611 m 0
 438 611 460 588 460 560 c 0
 460 534 437 511 410 511 c 0
 383 511 360 534 360 561 c 0
 360 588 383 611 410 611 c 0
EndSplineSet
EndChar

StartChar: uni0E01
Encoding: 3585 3585 201
Width: 600
Flags: W
HStem: 0 21G<110 170 445 505> 385 60<191.102 393.121>
VStem: 110 60<0 274.252> 445 60<0 337>
LayerCount: 2
Fore
SplineSet
307 445 m 0
 428 445 505 354 505 280 c 10
 505 0 l 25
 445 0 l 25
 445 280 l 18
 445 352 372 385 307 385 c 8
 238 385 176 366 140 330 c 1
 200 330 l 1
 200 280 l 1
 174 266 170 241 170 214 c 10
 170 0 l 25
 110 0 l 25
 110 214 l 18
 110 241 124 273 140 280 c 1
 80 280 l 1
 80 330 l 1
 126 411 216 445 307 445 c 0
EndSplineSet
Comment: "Thai Gogai" 
EndChar

StartChar: uni0E02
Encoding: 3586 3586 202
Width: 600
Flags: W
HStem: 0 60<167 227 287 452> 278 42<191.314 260.992> 400 52<190.921 291> 425 20G<452 512>
VStem: 148 38<327.053 392.729> 227 60<60 206.735> 266 44<324.742 361.443> 332 62<282.625 357.325> 452 60<60 445>
LayerCount: 2
Fore
SplineSet
226 400 m 0xeb80
 204 400 186 382 186 360 c 0
 186 338 204 320 226 320 c 0
 248 320 266 338 266 360 c 0
 266 382 248 400 226 400 c 0xeb80
148 359 m 24
 148 418 207 452 267 452 c 0xeb80
 315 452 394 416 394 324 c 16
 394 243 287 240 287 144 c 2
 287 60 l 25
 452 60 l 25
 452 445 l 25
 512 445 l 25
 512 0 l 17
 167 0 l 9
 167 60 l 25
 227 60 l 25
 227 164 l 18xdd80
 227 230 262 238 290 264 c 9
 306 284 332 290 332 316 c 24
 332 336 322 344 308 362 c 1
 309 359 310 355 310 352 c 0
 310 323 273 278 226 278 c 0
 182 278 148 315 148 359 c 24
EndSplineSet
EndChar

StartChar: uni0E03
Encoding: 3587 3587 203
Width: 600
Flags: W
HStem: 0 60<161 221 281 446> 204 49<114.349 184.451> 333 113<144.822 211.823>
VStem: 67 42<259.079 326.86> 189 45<256.99 328.937> 221 60<60 197.676> 336 52<284.789 367.87> 446 60<60 445>
LayerCount: 2
Fore
SplineSet
150 333 m 0xfb
 128 333 109 315 109 293 c 0
 109 271 128 253 150 253 c 0
 172 253 189 271 189 293 c 0
 189 315 172 333 150 333 c 0xfb
150 204 m 0
 98 204 67 261 67 312 c 0
 67 350 84 384 114 402 c 0
 136 415 163 446 198 446 c 0
 244 446 274 376 275 376 c 0
 278 401 293 446 319 446 c 0
 338 446 355 423 360 417 c 0
 388 387 388 362 388 324 c 16
 388 230 281 225 281 144 c 2
 281 60 l 25
 446 60 l 25
 446 445 l 25
 506 445 l 25
 506 0 l 17
 161 0 l 9
 161 60 l 25
 221 60 l 25
 221 164 l 18xf7
 221 230 256 238 284 264 c 0
 303 283 336 287 336 310 c 0
 336 311 328 365 327 368 c 1
 291 310 l 1
 256 310 l 1
 244 326 230 367 208 378 c 1
 197 373 180 366 180 366 c 1
 218 352 234 324 234 272 c 8
 234 230 179 204 150 204 c 0
EndSplineSet
EndChar

StartChar: uni0E04
Encoding: 3588 3588 204
Width: 600
Flags: W
HStem: 0 21G<55 127.614 444 504> 150 35<251.805 316.634> 265 35<251.717 316.428> 385 60<187.759 378.193>
VStem: 55 60<107 329.753> 324 50<189.688 260.865> 444 60<0 328.587>
DStem2: 115 107 115 0 0.53345 0.845831<0 117.575>
LayerCount: 2
Fore
SplineSet
285 265 m 0
 263 265 244 247 244 225 c 0
 244 203 263 185 285 185 c 0
 307 185 324 203 324 225 c 0
 324 247 307 265 285 265 c 0
286 445 m 16
 390 445 504 384 504 278 c 10
 504 0 l 25
 444 0 l 25
 444 278 l 18
 444 342 361 385 286 385 c 24
 208 385 115 344 115 278 c 10
 115 107 l 17
 189 221 l 2
 215 261 237 300 285 300 c 24
 330 300 374 272 374 227 c 24
 374 181 331 150 285 150 c 16
 256 150 235 163 226 176 c 9
 115 0 l 25
 55 0 l 25
 55 278 l 18
 55 376 175 445 286 445 c 16
EndSplineSet
EndChar

StartChar: uni0E05
Encoding: 3589 3589 205
Width: 600
Flags: W
HStem: 0 21G<57 129.614 446 506> 150 35<255.657 319.895> 265 35<255.887 320.107> 426 20G<181.274 236 332.25 385.178>
VStem: 57 60<107 341.875> 328 48<189.904 260.648> 446 60<0 344.172>
DStem2: 117 107 117 0 0.53345 0.845831<0 117.575>
LayerCount: 2
Fore
SplineSet
288 265 m 0
 266 265 248 247 248 225 c 0
 248 203 266 185 288 185 c 0
 310 185 328 203 328 225 c 0
 328 247 310 265 288 265 c 0
288 300 m 16
 340 300 376 272 376 227 c 24
 376 181 334 150 288 150 c 16
 260 150 237 163 228 176 c 9
 117 0 l 25
 57 0 l 25
 57 300 l 18
 57 424 201 446 201 446 c 1
 285 398 l 1
 366 446 l 1
 366 446 506 432 506 300 c 10
 506 0 l 25
 446 0 l 25
 446 300 l 18
 446 358 366 372 366 372 c 1
 316 338 l 1
 261 338 l 1
 201 372 l 1
 201 372 117 358 117 300 c 10
 117 107 l 17
 189 221 l 2
 214 261 237 300 288 300 c 16
EndSplineSet
EndChar

StartChar: uni0E06
Encoding: 3590 3590 206
Width: 600
Flags: W
HStem: -4 46<159.581 223.376> 132 52<149.464 210.645> 205 41<94.0932 162.73> 326 120<120.696 187.199>
VStem: 45 43<251.394 320.757> 104 44<53.1114 131.604> 168 44<250.544 321.971> 225 43<43.449 80.9822> 307 61<289.576 368.579> 436 60<60 445>
DStem2: 270 142 268 82 0.896577 -0.442888<24.7801 185.149>
LayerCount: 2
Fore
SplineSet
129 326 m 0
 107 326 88 308 88 286 c 0
 88 264 107 246 129 246 c 0
 151 246 168 264 168 286 c 0
 168 308 151 326 129 326 c 0
104 116 m 16
 104 145 135 184 171 184 c 0
 187 184 202 177 211 170 c 9
 215 186 215 195 222 210 c 24
 234 235 246 245 262 267 c 16
 278 289 307 298 307 321 c 0
 307 329 297 367 296 369 c 1
 264 307 l 1
 233 307 l 1
 233 307 207 368 186 379 c 1
 175 374 158 367 158 367 c 1
 196 353 212 325 212 273 c 8
 212 231 158 205 128 205 c 0
 75 205 45 262 45 310 c 0
 45 388 134 446 186 446 c 24
 217 446 250 398 250 398 c 1
 259 421 277 446 295 446 c 0
 314 446 332 424 338 417 c 0
 360 394 368 373 368 348 c 0
 368 279 321 244 294 212 c 1
 283 197 279 169 270 142 c 17
 436 60 l 9
 436 445 l 25
 496 445 l 25
 496 0 l 17
 434 0 l 1
 268 82 l 1
 268 82 269 39 252 22 c 16
 237 6 220 -4 201 -4 c 0
 178 -4 104 20 104 116 c 16
225 74 m 0
 225 104 194 132 174 132 c 0
 158 132 148 117 148 102 c 0
 148 54 183 42 197 42 c 0
 215 42 225 58 225 74 c 0
EndSplineSet
EndChar

StartChar: uni0E07
Encoding: 3591 3591 207
Width: 600
Flags: W
HStem: 0 21G<397.205 514> 280 44<379.887 449.329> 404 41<380.316 448.417>
VStem: 340 34<332.513 395.349> 454 60<54 294 327.96 399.787>
DStem2: 174 338 127 293 0.703459 -0.710736<0 398.818>
LayerCount: 2
Fore
SplineSet
415 404 m 0
 393 404 374 386 374 364 c 0
 374 342 393 324 415 324 c 0
 437 324 454 342 454 364 c 0
 454 386 437 404 415 404 c 0
424 445 m 16
 466 445 514 426 514 388 c 10
 514 0 l 25
 417 0 l 25
 127 293 l 25
 174 338 l 25
 454 54 l 25
 454 294 l 17
 440 281 424 274 402 280 c 8
 362 291 340 325 340 365 c 8
 340 410 379 445 424 445 c 16
EndSplineSet
EndChar

StartChar: uni0E08
Encoding: 3592 3592 208
Width: 600
Flags: W
HStem: 0 21G<443.909 513> 168 42<260.794 330.174> 290 42<263.405 330.157> 385 60<234.119 407.238>
VStem: 229 26<221.099 278.901> 453 60<142 345.935>
DStem2: 397 264 363 198 0.413803 -0.910366<46.0149 134.238>
LayerCount: 2
Fore
SplineSet
296 290 m 0
 274 290 255 272 255 250 c 0
 255 228 274 210 296 210 c 0
 318 210 335 228 335 250 c 0
 335 272 318 290 296 290 c 0
316 445 m 0
 437 445 513 379 513 306 c 10
 513 0 l 25
 453 0 l 25
 363 198 l 17
 350 179 338 168 316 168 c 24
 270 168 229 203 229 250 c 24
 229 297 283 332 316 332 c 8
 339 332 353 324 370 309 c 24
 385 296 386 282 397 264 c 25
 453 142 l 25
 453 305 l 18
 453 356 378 385 316 385 c 24
 256 385 229 366 177 318 c 9
 134 360 l 17
 194 408 238 445 316 445 c 0
EndSplineSet
EndChar

StartChar: uni0E09
Encoding: 3593 3593 209
Width: 600
Flags: W
HStem: 0 34<432.339 492.084> 105 54<450.507 498.406> 146 35<127.228 196.093> 261 46<123.931 194.573> 385 60<159.687 352.568>
VStem: 93 26<192.406 249.677> 201 62<68 152 186.319 255.325> 390 60<155 350.319> 500 33<41.4391 102.002>
DStem2: 263 68 259 0 0.909174 0.416416<0 112.331>
AnchorPoint: "AboveBase" 461 500 basechar 0
LayerCount: 2
Fore
SplineSet
471 105 m 1xdf80
 471 105 428 104 428 70 c 0
 428 48 439 34 461 34 c 0
 483 34 500 52 500 74 c 0
 500 93 487 105 471 105 c 1xdf80
160 261 m 0
 138 261 119 243 119 221 c 0
 119 199 138 181 160 181 c 0xbf80
 182 181 199 199 199 221 c 0
 199 243 182 261 160 261 c 0
93 220 m 24
 93 272 137 307 185 307 c 0
 219 307 244 288 263 252 c 1
 263 68 l 1
 390 131 l 9
 390 296 l 18
 390 368 316 385 252 385 c 24
 187 385 136 355 96 323 c 9
 56 373 l 17
 105 412 169 445 250 445 c 16
 368 445 450 386 450 296 c 10
 450 155 l 17
 457 157 466 159 475 159 c 0xdf80
 509 159 533 127 533 92 c 0
 533 65 523 0 444 0 c 24
 413 0 390 60 390 60 c 1
 259 0 l 9
 201 0 l 25
 201 152 l 17
 185 152 174 146 161 146 c 0
 144 146 93 170 93 220 c 24
EndSplineSet
EndChar

StartChar: uni0E0A
Encoding: 3594 3594 210
Width: 600
Flags: W
HStem: 0 60<105 165 225 390> 278 41<129.616 198.576> 399 53<129.639 219>
VStem: 86 38<325.918 392.157> 165 60<60 199.782> 204 44<323.075 361.454> 270 62<283.133 358.967> 390 60<60 305.721 383.238 500>
LayerCount: 2
Fore
SplineSet
165 399 m 0xfb
 143 399 124 381 124 359 c 0
 124 337 143 319 165 319 c 0xfb
 187 319 204 337 204 359 c 0xf7
 204 381 187 399 165 399 c 0xfb
86 359 m 24
 86 419 143 452 204 452 c 0xf7
 234 452 261 442 288 420 c 8
 320 394 332 365 332 324 c 24
 332 242 225 225 225 144 c 2
 225 60 l 9
 390 60 l 17
 390 274 l 2
 390 301 356 313 332 324 c 1
 382 379 383 440 390 500 c 9
 450 500 l 17
 450 424 430 358 402 328 c 1
 443 318 450 297 450 274 c 2
 450 0 l 1
 105 0 l 9
 105 60 l 25
 165 60 l 25
 165 164 l 18xfb
 165 230 200 238 228 264 c 9
 244 284 270 290 270 316 c 24
 270 336 260 344 246 362 c 1
 247 359 248 355 248 351 c 0xf7
 248 323 212 278 166 278 c 0
 122 278 86 315 86 359 c 24
EndSplineSet
EndChar

StartChar: uni0E0B
Encoding: 3595 3595 211
Width: 600
Flags: W
HStem: 0 60<161 221 281 446> 204 38<118.307 184.527> 322 124<144.749 220.5>
VStem: 67 44<246.87 316.352> 191 43<246.616 317.565> 221 60<60 197.676> 327 61<282.581 367.822> 446 60<60 294.484 384.121 500>
LayerCount: 2
Fore
SplineSet
152 322 m 0xfb
 130 322 111 304 111 282 c 0
 111 260 130 242 152 242 c 0
 174 242 191 260 191 282 c 0
 191 304 174 322 152 322 c 0xfb
150 204 m 0
 98 204 67 261 67 312 c 0
 67 350 84 384 114 402 c 0
 136 415 163 446 196 446 c 0
 245 446 272 370 273 370 c 0
 276 398 291 446 319 446 c 0
 338 446 355 423 360 417 c 0
 388 387 388 362 388 324 c 16
 388 230 281 225 281 144 c 2
 281 60 l 25
 446 60 l 17
 446 253 l 2
 446 282 417 303 388 324 c 1
 428 356 446 452 446 500 c 9
 506 500 l 17
 506 447 494 347 448 324 c 1
 480 307 506 283 506 253 c 2
 506 0 l 1
 161 0 l 9
 161 60 l 25
 221 60 l 25
 221 164 l 18xf7
 221 230 256 238 284 264 c 1
 299 283 327 289 327 311 c 1
 327 311 318 365 318 368 c 1
 286 307 l 1
 260 307 l 1
 260 307 229 367 208 378 c 1
 197 373 180 366 180 366 c 1
 218 352 234 324 234 272 c 8
 234 230 179 204 150 204 c 0
EndSplineSet
EndChar

StartChar: uni0E0C
Encoding: 3596 3596 212
Width: 600
Flags: W
HStem: -1 37<269.32 325.092> 0 53<129.285 186.555> 98 40<268.614 299.37> 113 40<133.012 186.283> 385 60<142.243 289.378>
VStem: 73 60<54.3697 112.85 145 273.953> 188 31<57.0412 109.286> 238 28<42.193 92.5476> 300 60<138 372.185> 328 31<40.5161 60> 443 60<60 444>
LayerCount: 2
Fore
SplineSet
297 98 m 0xaf60
 280 98 266 84 266 67 c 0
 266 50 280 36 297 36 c 0
 314 36 328 50 328 67 c 0
 328 84 314 98 297 98 c 0xaf60
158 113 m 0x5f20
 141 113 128 100 128 83 c 0
 128 66 141 53 158 53 c 0
 175 53 188 66 188 83 c 0
 188 100 175 113 158 113 c 0x5f20
294 138 m 2xaf60
 300 138 l 1xafa0
 300 325 l 2
 300 379 264 385 213 385 c 8
 166 385 137 365 107 330 c 1
 163 330 l 1
 163 280 l 1
 142 266 133 250 133 224 c 2
 133 145 l 1
 133 145 152 153 168 153 c 0
 190 153 219 132 219 83 c 16
 219 44 191 0 147 0 c 0
 109 0 73 21 73 56 c 10
 73 224 l 18
 73 251 88 273 103 280 c 1
 43 280 l 1
 43 330 l 1
 83 411 136 445 213 445 c 0
 302 445 360 399 360 325 c 2
 360 124 l 1
 443 60 l 1
 443 444 l 1
 503 444 l 1
 503 0 l 1
 439 0 l 1x5fa0
 359 60 l 1
 359 50 l 2
 359 24 353 -1 313 -1 c 0
 290 -1 238 9 238 83 c 16
 238 105 242 114 258 126 c 1
 271 137 286 138 294 138 c 2xaf60
EndSplineSet
EndChar

StartChar: uni0E0D
Encoding: 3597 3597 213
Width: 600
Flags: W
HStem: -166 42<320.511 393.281> -76 21<325.624 369.284> 0 60<360 443> 0 53<129.108 186.768> 113 37<133.008 185.668> 385 60<136.499 273.354>
VStem: 73 60<54.4151 112.85 145 274.373> 188 31<57.3842 108.668> 294 26<-119.358 -80.4295> 300 60<60 358.354> 373 22<-115.737 -78.6084> 443 60<60 444>
LayerCount: 2
Fore
SplineSet
158 113 m 0xdf30
 141 113 128 100 128 83 c 0
 128 66 141 53 158 53 c 0
 175 53 188 66 188 83 c 0
 188 100 175 113 158 113 c 0xdf30
373 -104 m 24
 373 -86 367 -76 350 -76 c 0
 335 -76 320 -85 320 -100 c 0xcfb0
 320 -115 336 -124 351 -124 c 0
 369 -124 373 -112 373 -104 c 24
359 -55 m 8
 388 -55 395 -78 395 -88 c 0
 395 -98 390 -108 387 -116 c 9
 445 -56 l 25
 484 -93 l 17
 455 -125 434 -166 387 -166 c 24
 343 -166 294 -148 294 -104 c 24
 294 -72 328 -55 359 -55 c 8
159 150 m 0
 221 150 219 108 219 83 c 16
 219 36 199 0 159 0 c 0xdf70
 120 0 73 22 73 56 c 10
 73 224 l 18
 73 251 88 273 103 280 c 1
 43 280 l 1
 43 330 l 1
 83 411 125 445 201 445 c 24
 279 445 360 385 360 325 c 2
 360 60 l 1
 443 60 l 1xef70
 443 444 l 1
 503 444 l 1
 503 0 l 1
 300 0 l 1
 300 325 l 2xdf70
 300 359 246 385 201 385 c 24
 157 385 133 365 103 330 c 1
 163 330 l 1
 163 280 l 1
 142 266 133 268 133 224 c 2
 133 145 l 1
 133 145 142 150 159 150 c 0
EndSplineSet
Substitution2: "'ccmp' Pali-Sanskrit Descender Removal" uni0E0D.descless
Substitution2: "Thai Descender Removal Single Substitution" uni0E0D.descless
EndChar

StartChar: uni0E0E
Encoding: 3598 3598 214
Width: 600
Flags: W
HStem: -166 37<222.273 292.878> -58 37<222.608 289.35> 0 50<107.398 164.879> 110 49<107.424 162.803> 385 60<234.392 423.685>
VStem: 71 35<52.9753 106.478> 163 60<51.2366 109.545 150 274.373> 176 41<-124.724 -61.6348> 443 60<-107 363.553>
DStem2: 371 -60 353 -113 0.857493 -0.514496<10.2392 85.9208>
AnchorPoint: "BelowBase" 500 -210 basechar 0
LayerCount: 2
Fore
SplineSet
136 110 m 0xfc80
 119 110 106 97 106 80 c 0
 106 63 119 50 136 50 c 0
 153 50 166 63 166 80 c 0
 166 97 153 110 136 110 c 0xfc80
217 -94 m 0xfd80
 217 -106 225 -129 256 -129 c 0
 289 -129 287 -112 309 -94 c 25
 298 -84 275 -58 251 -58 c 0
 232 -58 217 -77 217 -94 c 0xfd80
71 80 m 16
 71 141 110 159 135 159 c 0
 148 159 159 156 163 150 c 1
 163 224 l 2xfe80
 163 251 178 273 193 280 c 1
 133 280 l 1
 133 330 l 1
 173 411 247 445 324 445 c 0
 413 445 503 399 503 325 c 10
 503 -167 l 25
 443 -167 l 17
 353 -113 l 1
 335 -138 322 -166 265 -166 c 0
 221 -166 176 -137 176 -92 c 24xfd80
 176 -64 201 -21 273 -21 c 0
 300 -21 316 -28 327 -36 c 1
 371 40 l 1
 411 20 l 1
 371 -60 l 1
 443 -107 l 1
 443 325 l 2
 443 379 375 385 324 385 c 8
 269 385 223 365 193 330 c 1
 253 330 l 1
 253 280 l 1
 232 266 223 268 223 224 c 10
 223 60 l 18xfe80
 223 34 182 0 143 0 c 24
 101 0 71 38 71 80 c 16
EndSplineSet
EndChar

StartChar: uni0E0F
Encoding: 3599 3599 215
Width: 600
Flags: W
HStem: -166 37<145.942 227.623> -56 35<145.026 217.011> 0 50<114.398 171.879> 110 49<114.424 169.803> 385 60<241.572 430.685>
VStem: 78 35<52.9753 106.478> 98 41<-122.966 -60.133> 141 119<280 330> 170 60<51.2366 109.545 150 274.373> 450 60<-107 363.553>
DStem2: 372 -42 372 -102 0.768221 -0.640184<38.4111 101.533>
AnchorPoint: "BelowBase" 500 -210 basechar 0
LayerCount: 2
Fore
SplineSet
143 110 m 0xfc40
 126 110 113 97 113 80 c 0
 113 63 126 50 143 50 c 0
 160 50 173 63 173 80 c 0
 173 97 160 110 143 110 c 0xfc40
139 -92 m 0xfa40
 139 -104 149 -129 185 -129 c 0
 225 -129 225 -110 239 -96 c 25
 229 -88 211 -56 175 -56 c 0
 157 -56 139 -73 139 -92 c 0xfa40
78 80 m 16xfcc0
 78 141 117 159 142 159 c 0
 155 159 166 156 170 150 c 1
 170 224 l 2xfcc0
 170 251 185 273 200 280 c 1
 141 280 l 1
 141 330 l 1
 181 411 254 445 331 445 c 0
 420 445 510 399 510 325 c 10
 510 -167 l 25
 450 -167 l 17
 372 -102 l 1
 335 -150 l 1
 275 -113 l 1
 257 -138 244 -166 187 -166 c 0
 143 -166 98 -137 98 -92 c 24
 98 -64 123 -21 195 -21 c 0
 222 -21 238 -28 249 -36 c 1
 293 40 l 1
 333 20 l 1
 293 -60 l 1
 335 -90 l 1
 372 -42 l 1
 450 -107 l 1
 450 325 l 2
 450 379 382 385 331 385 c 8
 276 385 230 365 200 330 c 1
 260 330 l 1
 260 280 l 1xfb40
 239 266 230 268 230 224 c 10
 230 60 l 18
 230 34 189 0 150 0 c 24
 108 0 78 38 78 80 c 16xfcc0
EndSplineSet
EndChar

StartChar: uni0E10
Encoding: 3600 3600 216
Width: 600
Flags: W
HStem: -193 87<448.39 488.596> -189 35<106.591 186.9> -78 34<102.296 172.922> -44 28<433.422 484.696> 0 21G<436.047 510> 99 38<270.603 337.723> 217 46<268.986 339.621> 390 55<272.369 455.542>
VStem: 62 35<-144.278 -82.8276> 232 32<145.567 207.814> 396 32<-101.64 -48.0975> 450 60<94 269.957> 490 31<-147.206 -48.6289>
LayerCount: 2
Fore
SplineSet
304 217 m 0x0fe0
 282 217 264 199 264 177 c 0
 264 155 282 137 304 137 c 0
 326 137 344 155 344 177 c 0
 344 199 326 217 304 217 c 0x0fe0
459 -44 m 0x9fe8
 442 -44 428 -58 428 -75 c 0
 428 -92 442 -106 459 -106 c 0
 476 -106 490 -92 490 -75 c 0
 490 -58 476 -44 459 -44 c 0x9fe8
448 -136 m 17
 436 -124 396 -102 396 -73 c 0
 396 -41 433 -16 461 -16 c 8
 495 -16 521 -46 521 -80 c 16
 521 -95 519 -193 519 -193 c 1
 454 -193 l 1x9fe8
 450 -189 348 -128 336 -125 c 1
 299 -173 l 1
 239 -136 l 1
 221 -161 208 -189 151 -189 c 0
 107 -189 62 -160 62 -115 c 24
 62 -87 87 -44 159 -44 c 0x6fe8
 186 -44 202 -51 213 -59 c 1
 257 17 l 1
 297 -3 l 1
 257 -83 l 1
 299 -113 l 1
 336 -65 l 1
 448 -136 l 17
97 -113 m 0
 97 -127 109 -154 144 -154 c 0
 186 -154 188 -132 200 -120 c 25
 193 -115 167 -78 130 -78 c 0x6fe0
 113 -78 97 -93 97 -113 c 0
340 445 m 0
 422 445 508 411 508 411 c 1
 494 356 l 1
 494 356 401 390 340 390 c 24
 313 390 272 384 272 384 c 1
 272 384 356 378 404 355 c 0
 442 337 510 282 510 195 c 10
 510 0 l 25
 450 0 l 25
 360 129 l 17
 347 110 335 99 313 99 c 24
 268 99 232 136 232 181 c 24
 232 226 280 263 313 263 c 8
 335 263 347 254 364 240 c 24
 380 226 384 217 394 195 c 9
 450 94 l 25
 450 194 l 18x0ff0
 450 274 411 287 373 307 c 0
 341 324 322 330 272 330 c 0
 242 330 212 329 173 324 c 9
 173 374 l 17
 212 406 237 445 340 445 c 0
EndSplineSet
Substitution2: "'ccmp' Pali-Sanskrit Descender Removal" uni0E10.descless
Substitution2: "Thai Descender Removal Single Substitution" uni0E10.descless
EndChar

StartChar: uni0E11
Encoding: 3601 3601 217
Width: 600
Flags: W
HStem: 0 21G<165 265.855 439 500> 204 40<59.0896 126.897> 324 122<88.8225 154.323>
VStem: 11 42<250.208 317.998> 133 45<248.215 319.634> 165 60<68 202.622> 271 61<284.628 367.822> 439 61<0 339>
DStem2: 225 68 255 0 0.477035 0.878884<0 338.546>
LayerCount: 2
Back
SplineSet
94 324 m 0xe8
 72 324 53 306 53 284 c 0
 53 262 72 244 94 244 c 0
 116 244 133 262 133 284 c 0
 133 306 116 324 94 324 c 0xe8
255 0 m 9
 165 0 l 1
 165 164 l 18xd8
 165 230 200 238 228 264 c 9
 244 284 275 290 270 316 c 16
 268 326 262 368 262 368 c 1
 231 308 l 1
 202 308 l 1
 202 308 174 366 152 378 c 1
 141 373 124 366 124 366 c 1
 162 352 178 324 178 272 c 8xe8
 178 230 123 204 94 204 c 0
 50 204 23 242 14 285 c 24
 4 333 21 380 58 402 c 0
 82 416 112 452 152 445 c 24
 185 439 214 386 214 386 c 1
 214 386 229 439 257 445 c 24
 278 449 298 424 304 417 c 0
 332 387 332 362 332 324 c 16
 332 224 225 238 225 144 c 2
 225 68 l 17xd8
 369 320 l 1
 369 320 390 363 426 417 c 8
 442 442 501 437 501 407 c 16
 501 372 500 296 500 296 c 1
 500 0 l 9
 439 0 l 1
 439 188 l 1
 439 327 l 1
 255 0 l 9
EndSplineSet
Fore
SplineSet
94 324 m 0xfb
 72 324 53 306 53 284 c 0
 53 262 72 244 94 244 c 0
 116 244 133 262 133 284 c 0
 133 306 116 324 94 324 c 0xfb
214 386 m 1
 217 395 233 445 262 445 c 0
 281 445 298 423 304 417 c 0
 332 387 332 362 332 324 c 16
 332 224 225 238 225 144 c 2
 225 68 l 17
 369 332 l 1
 369 332 390 375 426 429 c 0
 433 440 448 445 463 445 c 0
 482 445 501 436 501 419 c 0
 501 384 500 308 500 308 c 1
 500 0 l 9
 439 0 l 1
 439 339 l 1
 255 0 l 9
 165 0 l 1
 165 164 l 18xf7
 165 230 200 238 228 264 c 1
 243 283 271 289 271 311 c 1
 271 311 262 365 262 368 c 1
 231 308 l 1
 202 308 l 1
 202 308 174 366 152 378 c 1
 141 373 124 366 124 366 c 1
 162 352 178 324 178 272 c 8
 178 230 123 204 94 204 c 0
 42 204 11 261 11 312 c 0
 11 350 28 384 58 402 c 0
 80 415 107 446 142 446 c 0
 185 446 212 386 214 386 c 1
EndSplineSet
EndChar

StartChar: uni0E12
Encoding: 3602 3602 218
Width: 600
Flags: W
HStem: 0 42<274.041 330.532> 114 37<272.161 331.673> 265 42<180.621 249.958> 426 19G<163.603 199.333 247.222 282.762 470 530>
VStem: 54 60<87 346.484> 136 39<190.962 258.941> 242 27<51.228 108.554> 255 33<193.946 256.624> 332 60<144 348.27> 470 60<66 445>
DStem2: 114 87 114 0 0.716555 0.697531<0 95.4603>
LayerCount: 2
Fore
SplineSet
215 265 m 0xfdc0
 193 265 175 247 175 225 c 0
 175 203 193 185 215 185 c 0
 237 185 255 203 255 225 c 0
 255 247 237 265 215 265 c 0xfdc0
269 81 m 0xfec0
 269 60 286 42 305 42 c 0
 331 42 331 71 342 87 c 1
 329 97 315 114 298 114 c 0
 281 114 269 98 269 81 c 0xfec0
242 74 m 8
 242 132 289 151 301 151 c 0
 316 151 332 144 332 144 c 1
 332 300 l 2
 332 358 265 372 265 372 c 1
 242 339 l 1xfec0
 210 339 l 1
 181 372 l 1
 181 372 114 358 114 300 c 10
 114 87 l 17
 182 154 l 1
 182 154 136 174 136 226 c 0
 136 278 172 307 216 307 c 24
 258 307 288 272 288 226 c 0xfdc0
 288 154 236 119 227 110 c 10
 114 0 l 25
 54 0 l 25
 54 300 l 18
 54 424 181 446 181 446 c 1
 225 398 l 1
 265 443 l 1
 265 443 392 432 392 300 c 2
 392 130 l 1
 470 66 l 1
 470 445 l 1
 530 445 l 1
 530 0 l 1
 470 0 l 1
 385 66 l 1
 367 40 345 0 304 0 c 24
 267 0 242 36 242 74 c 8
EndSplineSet
EndChar

StartChar: uni0E13
Encoding: 3603 3603 219
Width: 600
Flags: W
HStem: 0 53<111.108 168.768> 0 31<460.44 526.004> 106 43<489.124 532.853> 113 42<115.007 168.329> 385 60<119.625 256.088>
VStem: 25 118<280 330> 55 60<54.4151 112.85 145 274.373> 170 31<57.1797 109.1> 282 60<60 360.109> 429 60<146 444> 534 28<38.1963 103.969>
AnchorPoint: "AboveBase" 500 500 basechar 0
LayerCount: 2
Fore
SplineSet
140 113 m 0x99e0
 123 113 110 100 110 83 c 0
 110 66 123 53 140 53 c 0
 157 53 170 66 170 83 c 0
 170 100 157 113 140 113 c 0x99e0
484 55 m 0
 484 34 497 31 504 31 c 0
 522 31 534 54 534 74 c 8
 534 89 528 106 512 106 c 16x69e0
 502 106 497 100 488 96 c 17
 488 83 484 68 484 55 c 0
141 155 m 0x5be0
 162 155 201 147 201 83 c 16
 201 40 181 0 141 0 c 0
 102 0 55 22 55 56 c 10
 55 224 l 18x9be0
 55 251 70 273 85 280 c 1
 25 280 l 1
 25 330 l 1
 65 411 106 445 183 445 c 0
 272 445 342 376 342 325 c 2
 342 60 l 1
 429 117 l 1
 429 444 l 1
 489 444 l 1
 489 146 l 1
 489 146 500 149 513 149 c 0
 554 149 562 103 562 85 c 0
 562 60 553 0 475 0 c 0
 436 0 427 58 427 58 c 1
 341 0 l 1
 282 0 l 17
 282 325 l 2
 282 359 228 385 183 385 c 24
 139 385 115 365 85 330 c 1
 143 330 l 1
 143 280 l 1x6de0
 122 266 115 268 115 224 c 2
 115 145 l 1
 115 145 122 155 141 155 c 0x5be0
EndSplineSet
EndChar

StartChar: uni0E14
Encoding: 3604 3604 220
Width: 600
Flags: W
HStem: 0 21G<69 161.364 452 512> 266 46<258.288 328.393> 385 60<176.189 398.095>
VStem: 69 60<70 346.281> 198 55<191.092 261.491> 333 46<190.542 261.178> 452 60<0 341.397>
DStem2: 129 70 129 0 0.850672 0.525696<0 135.352>
LayerCount: 2
Fore
SplineSet
293 266 m 0
 271 266 253 248 253 226 c 0
 253 204 271 186 293 186 c 0
 315 186 333 204 333 226 c 0
 333 248 315 266 293 266 c 0
293 385 m 0
 185 385 129 348 129 300 c 10
 129 70 l 17
 243 143 l 1
 243 143 198 171 198 226 c 0
 198 278 243 312 293 312 c 24
 340 312 379 272 379 226 c 0
 379 143 307 110 307 110 c 9
 129 0 l 25
 69 0 l 25
 69 300 l 18
 69 399 179 445 293 445 c 0
 427 445 512 385 512 300 c 10
 512 0 l 25
 452 0 l 25
 452 300 l 18
 452 329 410 385 293 385 c 0
EndSplineSet
EndChar

StartChar: uni0E15
Encoding: 3605 3605 221
Width: 600
Flags: W
HStem: 0 21G<71 163.545 454 514> 266 46<261.218 331.393> 426 20G<192.685 247 341.5 393.178>
VStem: 71 60<70 341.875> 200 56<190.743 261.491> 336 46<191.246 261.178> 454 60<0 344.172>
DStem2: 131 70 131 0 0.851985 0.523566<0 134.495>
LayerCount: 2
Fore
SplineSet
296 266 m 0
 274 266 256 248 256 226 c 0
 256 204 274 186 296 186 c 0
 318 186 336 204 336 226 c 0
 336 248 318 266 296 266 c 0
296 398 m 1
 374 446 l 1
 374 446 514 432 514 300 c 10
 514 0 l 25
 454 0 l 25
 454 300 l 18
 454 358 374 372 374 372 c 1
 323 338 l 1
 268 338 l 1
 212 372 l 1
 212 372 131 358 131 300 c 10
 131 70 l 17
 244 143 l 1
 244 143 200 174 200 226 c 0
 200 278 246 312 296 312 c 24
 343 312 382 272 382 226 c 0
 382 154 319 119 310 110 c 9
 131 0 l 25
 71 0 l 25
 71 300 l 18
 71 424 212 446 212 446 c 1
 296 398 l 1
EndSplineSet
EndChar

StartChar: uni0E16
Encoding: 3606 3606 222
Width: 600
Flags: W
HStem: 0 43<193.027 262.831> 123 40<193.629 261.468> 387 60<214.266 423.278>
VStem: 130 61<47.2209 119.844 159 270.531> 268 40<48.8748 117.313> 460 60<103.465 357.012>
LayerCount: 2
Fore
SplineSet
228 123 m 0
 206 123 188 105 188 83 c 0
 188 61 206 43 228 43 c 0
 250 43 268 61 268 83 c 0
 268 105 250 123 228 123 c 0
222 163 m 0
 287 163 308 134 308 84 c 16
 308 32 271 0 224 0 c 0
 181 0 130 24 130 58 c 10
 130 214 l 18
 130 241 145 273 160 280 c 1
 100 280 l 1
 100 330 l 1
 145 411 237 447 323 447 c 0
 426 447 520 378 520 327 c 2
 520 327 520 0 519 0 c 2
 460 0 l 17
 460 327 l 2
 460 361 384 387 323 387 c 24
 254 387 195 365 160 330 c 1
 229 330 l 1
 229 280 l 1
 202 266 191 258 191 214 c 2
 191 159 l 1
 191 159 203 163 222 163 c 0
EndSplineSet
EndChar

StartChar: uni0E17
Encoding: 3607 3607 223
Width: 600
Flags: W
HStem: 0 21G<182 244.407 460 520> 278 42<107.868 178.029> 382 66<359.274 454.88> 400 49<107.526 178.632>
VStem: 70 33<328.184 391.223> 182 58<0 15.9048 218 300 323.96 395.433> 460 60<0 375.681>
DStem2: 240 218 345 334 0.305086 0.952325<0 196.701>
LayerCount: 2
Fore
SplineSet
143 400 m 0xde
 121 400 103 382 103 360 c 0
 103 338 121 320 143 320 c 0
 165 320 183 338 183 360 c 0
 183 382 165 400 143 400 c 0xde
70 360 m 24
 70 414 117 449 162 449 c 0xde
 202 449 240 420 240 388 c 2
 240 218 l 25
 296 380 l 17
 316 418 365 448 398 448 c 0
 451 448 520 433 520 330 c 2
 520 0 l 25
 460 0 l 17
 460 330 l 2
 460 373 444 382 398 382 c 0xee
 366 382 352 352 345 334 c 1
 238 0 l 9
 182 0 l 25
 182 300 l 17
 164 293 153 278 137 278 c 0
 119 278 70 301 70 360 c 24
EndSplineSet
EndChar

StartChar: uni0E18
Encoding: 3608 3608 224
Width: 600
Flags: W
HStem: 0 60<165 225 285 450> 279 61<175 412.455> 387 58<212.13 457.996>
VStem: 225 60<60 220> 450 60<60 248.822>
LayerCount: 2
Fore
SplineSet
340 445 m 0
 422 445 508 411 508 411 c 1
 494 356 l 1
 494 356 384 387 313 387 c 24
 256 387 220 382 175 335 c 1
 208 335 249 340 294 340 c 0
 322 340 352 338 382 332 c 0
 458 318 510 288 510 204 c 2
 510 0 l 1
 165 0 l 17
 165 60 l 1
 225 60 l 1
 225 220 l 1
 285 220 l 1
 285 60 l 9
 450 60 l 25
 450 204 l 2
 450 250 421 259 356 270 c 0
 317 277 275 279 236 279 c 0
 183 279 136 275 115 275 c 9
 115 335 l 17
 162 420 226 445 340 445 c 0
EndSplineSet
EndChar

StartChar: uni0E19
Encoding: 3609 3609 225
Width: 600
Flags: W
HStem: 0 54<446.966 516.9> 134 65<446.441 517.525> 284 34<96.8686 161.595> 398 47<94.1791 164.178>
VStem: 55 34<325.375 390.045> 163 62<89 290 320.111 394.95> 383 60<58.1202 102.035 195 445> 522 33<62.7416 125.234>
DStem2: 225 89 221 0 0.843876 0.536538<0 140.844>
AnchorPoint: "AboveBase" 454 500 basechar 0
LayerCount: 2
Fore
SplineSet
482 134 m 0
 460 134 442 116 442 94 c 0
 442 72 460 54 482 54 c 0
 504 54 522 72 522 94 c 0
 522 116 504 134 482 134 c 0
129 398 m 0
 107 398 89 380 89 358 c 0
 89 336 107 318 129 318 c 0
 151 318 169 336 169 358 c 0
 169 380 151 398 129 398 c 0
55 358 m 24
 55 410 99 445 147 445 c 0
 181 445 206 426 225 390 c 1
 225 89 l 1
 383 182 l 9
 383 445 l 1
 443 445 l 9
 443 195 l 17
 450 197 460 199 470 199 c 0
 509 199 555 163 555 110 c 16
 555 52 525 0 471 0 c 24
 418 0 383 80 383 103 c 1
 221 0 l 9
 163 0 l 25
 163 290 l 17
 147 290 136 284 123 284 c 0
 106 284 55 308 55 358 c 24
EndSplineSet
EndChar

StartChar: uni0E1A
Encoding: 3610 3610 226
Width: 600
Flags: W
HStem: 0 60<107 162 222 442> 284 35<95.7935 160.599> 399 46<92.8762 162.95>
VStem: 53 35<326.42 391.024> 162 60<60 291 321.111 396.71> 442 60<60 445>
LayerCount: 2
Fore
SplineSet
128 399 m 0
 106 399 88 381 88 359 c 0
 88 337 106 319 128 319 c 0
 150 319 168 337 168 359 c 0
 168 381 150 399 128 399 c 0
53 351 m 0
 53 382 80 445 130 445 c 8
 172 445 200 433 222 391 c 1
 222 60 l 1
 442 60 l 9
 442 445 l 1
 502 445 l 9
 502 0 l 17
 107 0 l 1
 107 60 l 1
 162 60 l 9
 162 291 l 17
 147 290 135 284 123 284 c 0
 109 284 53 314 53 351 c 0
EndSplineSet
EndChar

StartChar: uni0E1B
Encoding: 3611 3611 227
Width: 600
Flags: W
HStem: 0 60<110 165 225 445> 284 35<95.8071 160.726> 399 46<92.6892 163.631> 595 20G<445 505>
VStem: 56 32<327.762 390.447> 165 60<60 291 322.156 394.85> 445 60<60 615>
AnchorPoint: "AboveBase" 440 500 basechar 0
LayerCount: 2
Fore
SplineSet
128 399 m 0
 106 399 88 381 88 359 c 0
 88 337 106 319 128 319 c 0
 150 319 168 337 168 359 c 0
 168 381 150 399 128 399 c 0
56 351 m 0
 56 382 83 445 133 445 c 8
 175 445 203 433 225 391 c 1
 225 60 l 1
 445 60 l 9
 445 615 l 1
 505 615 l 9
 505 0 l 17
 110 0 l 1
 110 60 l 1
 165 60 l 9
 165 291 l 17
 150 290 138 284 126 284 c 0
 112 284 56 314 56 351 c 0
EndSplineSet
EndChar

StartChar: uni0E1C
Encoding: 3612 3612 228
Width: 600
Flags: W
HStem: 0 21G<117 224.038 400.468 512> 277 46<177.431 248.154> 403 43<177.727 248.061>
VStem: 117 60<60 282 325.786 400.062> 253 24<335.041 390.466> 452 60<60 445>
DStem2: 177 60 211 0 0.548656 0.836048<0 157.099>
LayerCount: 2
Fore
SplineSet
213 403 m 0
 191 403 173 385 173 363 c 0
 173 341 191 323 213 323 c 0
 235 323 253 341 253 363 c 0
 253 385 235 403 213 403 c 0
277 363 m 0
 277 297 226 277 207 277 c 0
 197 277 187 280 177 282 c 9
 177 60 l 17
 282 220 l 9
 342 220 l 25
 452 60 l 1
 452 445 l 25
 512 445 l 25
 512 0 l 17
 413 0 l 1
 314 158 l 1
 211 0 l 1
 117 0 l 9
 117 386 l 17
 129 426 159 446 199 446 c 16
 244 446 277 409 277 363 c 0
EndSplineSet
EndChar

StartChar: uni0E1D
Encoding: 3613 3613 229
Width: 600
Flags: W
HStem: 0 21G<117 224.038 400.468 512> 277 46<180.571 251.071> 403 43<180.93 250.99>
VStem: 117 60<60 282 326.96 398.407> 256 21<336.977 389.771> 452 60<60 610>
DStem2: 177 60 211 0 0.548656 0.836048<0 157.099>
AnchorPoint: "AboveBase" 440 500 basechar 0
LayerCount: 2
Fore
SplineSet
216 403 m 0
 194 403 176 385 176 363 c 0
 176 341 194 323 216 323 c 0
 238 323 256 341 256 363 c 0
 256 385 238 403 216 403 c 0
277 363 m 0
 277 297 226 277 207 277 c 0
 197 277 187 280 177 282 c 9
 177 60 l 17
 282 220 l 9
 342 220 l 25
 452 60 l 1
 452 610 l 25
 512 610 l 25
 512 0 l 17
 413 0 l 1
 314 158 l 1
 211 0 l 1
 117 0 l 9
 117 386 l 17
 129 426 159 446 199 446 c 16
 244 446 277 409 277 363 c 0
EndSplineSet
EndChar

StartChar: uni0E1E
Encoding: 3614 3614 230
Width: 600
Flags: W
HStem: 0 21G<115 215.242 405 510> 277 46<45.8061 114.603> 403 43<46.1759 115.773>
VStem: 16 25<334.076 391.762> 115 61<105 282 325.111 400.062> 450 60<105 445>
DStem2: 176 105 209 0 0.292504 0.956264<0 254.94> 340 445 312 330 0.30782 -0.951445<100.797 357.351>
LayerCount: 2
Fore
SplineSet
81 403 m 0
 59 403 41 385 41 363 c 0
 41 341 59 323 81 323 c 0
 103 323 121 341 121 363 c 0
 121 385 103 403 81 403 c 0
94 446 m 8
 134 446 164 426 176 386 c 9
 176 105 l 17
 280 445 l 9
 340 445 l 25
 450 105 l 1
 450 445 l 25
 510 445 l 25
 510 0 l 17
 411 0 l 1
 312 330 l 1
 209 0 l 1
 115 0 l 9
 115 282 l 17
 105 280 95 277 85 277 c 0
 82 277 16 285 16 363 c 0
 16 409 49 446 94 446 c 8
EndSplineSet
EndChar

StartChar: uni0E1F
Encoding: 3615 3615 231
Width: 600
Flags: W
HStem: 0 21G<120 220.242 410 515> 277 46<52.0938 119.563> 403 43<52.4283 122.112>
VStem: 21 26<334.076 391.762> 120 61<105 282> 127 54<327.393 398.407> 455 60<105 610>
DStem2: 181 105 214 0 0.292504 0.956264<0 254.94> 345 445 317 330 0.30782 -0.951445<100.797 357.351>
AnchorPoint: "AboveBase" 440 500 basechar 0
LayerCount: 2
Fore
SplineSet
87 403 m 0xf6
 65 403 47 385 47 363 c 0
 47 341 65 323 87 323 c 0
 109 323 127 341 127 363 c 0
 127 385 109 403 87 403 c 0xf6
99 446 m 8
 139 446 169 426 181 386 c 9xf6
 181 105 l 17
 285 445 l 9
 345 445 l 25
 455 105 l 1
 455 610 l 25
 515 610 l 25
 515 0 l 17
 416 0 l 1
 317 330 l 1
 214 0 l 1
 120 0 l 9
 120 282 l 17xfa
 110 280 100 277 90 277 c 0
 87 277 21 285 21 363 c 0
 21 409 54 446 99 446 c 8
EndSplineSet
EndChar

StartChar: uni0E20
Encoding: 3616 3616 232
Width: 600
Flags: W
HStem: 0 38<60.653 127.667> 118 41<59.7209 128.687> 385 60<214.502 445.95>
VStem: 22 32<46.6765 109.155> 132 62<42.2287 114.452 150 270.531> 470 60<0 360.583>
LayerCount: 2
Fore
SplineSet
94 118 m 0
 72 118 54 100 54 78 c 0
 54 56 72 38 94 38 c 0
 116 38 134 56 134 78 c 0
 134 100 116 118 94 118 c 0
22 78 m 16
 22 141 63 159 98 159 c 0
 113 159 126 156 132 150 c 1
 132 214 l 2
 132 241 148 273 164 280 c 1
 95 280 l 1
 95 330 l 1
 142 411 237 445 328 445 c 0
 432 445 530 399 530 325 c 10
 530 0 l 25
 470 0 l 25
 470 325 l 18
 470 379 385 385 321 385 c 8
 255 385 200 365 164 330 c 1
 232 330 l 1
 232 280 l 1
 205 266 194 258 194 214 c 10
 194 60 l 18
 194 34 150 0 108 0 c 24
 59 0 22 37 22 78 c 16
EndSplineSet
EndChar

StartChar: uni0E21
Encoding: 3617 3617 233
Width: 600
Flags: W
HStem: -4 49<164.782 231.193> 133 51<157.572 218.863> 274 46<153.611 224.607> 400 46<153.551 224.506>
VStem: 116 38<59.2669 130.237 323.943 396.106> 225 55<170 274 322.786 397.214> 234 46<47.1993 82> 448 60<72 445>
DStem2: 280 150 280 82 0.907009 -0.421111<28.6356 185.224>
LayerCount: 2
Fore
SplineSet
189 400 m 0xf9
 167 400 149 382 149 360 c 0
 149 338 167 320 189 320 c 0
 211 320 229 338 229 360 c 0
 229 382 211 400 189 400 c 0xf9
116 116 m 16
 116 145 147 184 184 184 c 0
 201 184 216 177 225 170 c 9
 225 274 l 1
 215 274 l 2
 201 274 178 275 164 284 c 8
 135 303 116 325 116 360 c 16
 116 404 150 446 196 446 c 16
 244 446 270 422 280 386 c 1xfd
 280 150 l 17
 448 72 l 9
 448 445 l 25
 508 445 l 25
 508 0 l 17
 446 0 l 1
 280 82 l 1xfb
 280 82 281 39 264 22 c 16
 249 6 232 -4 213 -4 c 0
 178 -4 116 33 116 116 c 16
203 45 m 0
 224 45 234 64 234 83 c 0xfb
 234 87 233 92 232 96 c 1
 219 109 206 133 185 133 c 0
 172 133 154 125 154 88 c 16
 154 75 179 45 203 45 c 0
EndSplineSet
EndChar

StartChar: uni0E22
Encoding: 3618 3618 234
Width: 600
Flags: W
HStem: 0 60<236 453> 155 50<250.677 296> 277 46<238.368 309.571> 403 43<239.43 308.784>
VStem: 176 60<60 155 219.75 282 326.548 398.407> 314 22<336.977 389.771> 453 60<60 445>
LayerCount: 2
Fore
SplineSet
274 403 m 0
 252 403 234 385 234 363 c 0
 234 341 252 323 274 323 c 0
 296 323 314 341 314 363 c 0
 314 385 296 403 274 403 c 0
336 363 m 0
 336 297 285 277 266 277 c 0
 256 277 246 280 236 282 c 1
 236 257 l 18
 236 236 263 205 296 205 c 1
 296 155 l 1
 236 155 l 9
 236 60 l 1
 453 60 l 1
 453 445 l 25
 513 445 l 25
 513 0 l 17
 176 0 l 1
 176 155 l 18
 176 199 223 205 234 205 c 1
 211 211 176 221 176 257 c 10
 176 386 l 1
 188 426 218 446 258 446 c 16
 303 446 336 409 336 363 c 0
EndSplineSet
EndChar

StartChar: uni0E23
Encoding: 3619 3619 235
Width: 600
Flags: W
HStem: 0 42<378.888 448.688> 122 47<379.154 449.451> 279 61<178 415.455> 387 58<215.13 460.996>
VStem: 341 33<50.0883 113.353> 453 60<47.5173 118.04 157 248.822>
LayerCount: 2
Fore
SplineSet
414 122 m 0
 392 122 374 104 374 82 c 0
 374 60 392 42 414 42 c 0
 436 42 454 60 454 82 c 0
 454 104 436 122 414 122 c 0
513 82 m 1
 497 26 451 0 423 0 c 8
 378 0 341 37 341 82 c 16
 341 143 384 169 423 169 c 8
 436 169 441 162 453 157 c 25
 453 204 l 2
 453 250 424 259 359 270 c 0
 320 277 278 279 239 279 c 0
 186 279 139 275 118 275 c 9
 118 335 l 17
 165 420 229 445 343 445 c 0
 425 445 511 411 511 411 c 1
 497 356 l 1
 497 356 387 387 316 387 c 24
 259 387 223 382 178 335 c 1
 211 335 252 340 297 340 c 0
 325 340 355 338 385 332 c 0
 461 318 513 288 513 204 c 2
 513 82 l 1
EndSplineSet
EndChar

